<?xml version="1.0" encoding="UTF-8"?>
<svg version="1.1" xmlns="http://www.w3.org/2000/svg" width="946" height="946">
<path d="M0 0 C-2.87765434 32.71438616 -2.87765434 32.71438616 -9.796875 39.44140625 C-14.23411874 42.58052017 -19.01927017 45.12462357 -23.796875 47.703125 C-35.61924936 54.10199852 -46.22493045 62.05882761 -56.9140625 70.1640625 C-61.60496277 73.7164811 -66.34821197 77.18921179 -71.125 80.625 C-71.86161865 81.15536865 -72.5982373 81.6857373 -73.35717773 82.23217773 C-76.29959508 84.34801894 -79.24473923 86.45999948 -82.19287109 88.56787109 C-111.32426615 109.40009284 -139.94438167 131.26709115 -166.3046875 155.55078125 C-167.74610996 156.86059557 -169.1932266 158.16494267 -170.67456055 159.42944336 C-176.55262938 164.45489258 -182.01937393 169.86709774 -187.47290039 175.3425293 C-189.05959946 176.93458966 -190.65157742 178.5212299 -192.24414062 180.10742188 C-197.16427074 185.02428925 -201.99437416 189.97770282 -206.51733398 195.26782227 C-208.77778126 197.90867085 -211.14105065 200.44678423 -213.5 203 C-216.53968996 206.29952777 -219.56158059 209.60951607 -222.5 213 C-225.43844531 216.39051382 -228.46134963 219.69949382 -231.5 223 C-235.0670215 226.87878432 -238.62005127 230.76413184 -242.05859375 234.7578125 C-243.6381035 236.58203503 -245.23716761 238.38303036 -246.84765625 240.1796875 C-259.05125443 253.2978327 -259.05125443 253.2978327 -263 270 C-262.62785125 272.15789487 -262.18111633 274.30388057 -261.671875 276.43359375 C-261.3725708 277.6980835 -261.0732666 278.96257324 -260.76489258 280.26538086 C-260.42675122 281.65612522 -260.0884482 283.04683028 -259.75 284.4375 C-259.39754936 285.913378 -259.04559473 287.38937452 -258.6940918 288.86547852 C-256.52663577 297.9184235 -254.26311829 306.94624162 -251.97265625 315.96875 C-251.71199371 316.99895767 -251.45133118 318.02916534 -251.18276978 319.09059143 C-249.90068445 324.15714461 -248.61042609 329.22125217 -247.30175781 334.28100586 C-240.5081256 360.80506862 -236.47276584 387.81518054 -232.5 414.875 C-232.38028461 415.68702503 -232.26056923 416.49905006 -232.1372261 417.33568192 C-227.74376316 447.15408564 -224.3018447 476.93970703 -222 507 C-221.87186063 508.64291268 -221.74361014 510.28581671 -221.61523438 511.92871094 C-221.01945184 519.61546486 -220.46395401 527.30401347 -220 535 C-214.03975315 532.1147466 -208.3078197 529.0980956 -202.75 525.5 C-196.42490077 521.47937654 -190.02394419 517.60991922 -183.5625 513.8125 C-175.25404414 508.92366286 -166.96019349 504.01166598 -158.6875 499.0625 C-157.65633057 498.44802002 -156.62516113 497.83354004 -155.56274414 497.20043945 C-153.60803134 496.02946413 -151.65878238 494.84930682 -149.71582031 493.65893555 C-147.96427889 492.58902149 -146.19864748 491.54168392 -144.41699219 490.52270508 C-138.63089773 487.04383648 -136.26054807 483.81150912 -133.875 477.5625 C-128.17909237 464.40746627 -120.02994062 459.41499787 -107 454 C-100.9732854 451.82159378 -100.9732854 451.82159378 -97.84765625 452.39453125 C-94.87723971 454.97559086 -93.27712697 458.24711836 -91.4375 461.6875 C-91.05142578 462.38294922 -90.66535156 463.07839844 -90.26757812 463.79492188 C-86.18167378 471.24978313 -83.48853462 477.29687901 -83.6875 485.875 C-83.6987793 486.67075439 -83.71005859 487.46650879 -83.72167969 488.28637695 C-83.88488392 495.26908457 -84.25326854 501.25936068 -88.07666016 507.25830078 C-90.34324267 511.15313901 -90.34027313 514.16020207 -90.0234375 518.6796875 C-89.97876343 519.40125534 -89.93408936 520.12282318 -89.88806152 520.86625671 C-89.73799428 523.20445521 -89.5567955 525.53907404 -89.375 527.875 C-89.26520541 529.49979238 -89.15731085 531.12471421 -89.05126953 532.74975586 C-88.36330758 543.04015151 -87.49101726 553.31626849 -86.61743164 563.59228516 C-85.69176062 574.9523625 -85.69643459 586.2137855 -86.36271667 597.5879364 C-87.21963064 612.66826974 -87.19717088 627.76091241 -87.18867874 642.86005783 C-87.18748641 645.21433401 -87.18803747 647.56860576 -87.18869019 649.92288208 C-87.18720154 675.10494297 -86.76640126 700.26572131 -86.0625 725.4375 C-86.04068539 726.22467281 -86.01887077 727.01184563 -85.99639511 727.82287216 C-85.41437384 748.78392985 -85.41437384 748.78392985 -84.54296875 769.734375 C-84.48004639 771.0347168 -84.41712402 772.33505859 -84.35229492 773.67480469 C-83.51844448 781.54524342 -80.83325667 786.72229159 -75 792 C-68.5441779 799.99960564 -67.73427707 805.04075382 -67.64990234 815.23071289 C-67.63331917 816.70027476 -67.60599726 818.1697552 -67.56787109 819.63891602 C-67.51316552 821.75840018 -67.49124531 823.8759993 -67.4765625 825.99609375 C-67.45674316 827.26638428 -67.43692383 828.5366748 -67.41650391 829.84545898 C-68 833 -68 833 -70.37646484 834.86694336 C-71.24223145 835.24085205 -72.10799805 835.61476074 -73 836 C-73.825 836.37382813 -74.65 836.74765625 -75.5 837.1328125 C-76.325 837.46023438 -77.15 837.78765625 -78 838.125 C-78.825 838.45757813 -79.65 838.79015625 -80.5 839.1328125 C-88.48605588 841.90297563 -98.09859381 842.30422441 -106 839 C-118.89698139 831.66934584 -125.63850633 817.57002696 -130 804 C-130.49907681 802.55306666 -130.99907117 801.10644946 -131.5 799.66015625 C-139.48710011 775.7224167 -139.59681226 750.35555551 -140.91088867 725.36914062 C-141.02498749 723.21352893 -141.1393258 721.0579299 -141.25390625 718.90234375 C-141.31039841 717.83354477 -141.36689056 716.76474579 -141.4250946 715.66355896 C-141.83580174 708.19852261 -142.42652997 700.76021608 -143.07421875 693.3125 C-144.07221999 681.54882088 -144.31543239 669.86360028 -144.25 658.0625 C-144.24723053 657.06841125 -144.24446106 656.07432251 -144.24160767 655.05010986 C-144.18408845 637.35295276 -143.27963128 619.96454891 -141.234375 602.37890625 C-140.96762675 600.06523339 -140.70201382 597.75142938 -140.4375 595.4375 C-140.30714355 594.30650879 -140.17678711 593.17551758 -140.04248047 592.01025391 C-138.4609479 577.38873024 -138.2511895 562.69389179 -138 548 C-145.28644352 551.82128902 -152.03804821 556.27953908 -158.8125 560.9375 C-159.91783044 561.6938057 -161.02330137 562.4499061 -162.12890625 563.20581055 C-172.13997864 570.05993109 -182.08536535 577.00728968 -192 584 C-193.58983975 585.11979735 -195.17968347 586.23958906 -196.76953125 587.359375 C-199.6142543 589.36450965 -202.45840717 591.37044298 -205.30078125 593.37890625 C-205.9138916 593.81090332 -206.52700195 594.24290039 -207.15869141 594.68798828 C-208.4345888 595.59712016 -209.7019946 596.51824284 -210.96240234 597.44873047 C-215.79507064 601 -215.79507064 601 -218 601 C-217.92935333 602.17699966 -217.85870667 603.35399933 -217.78591919 604.56666565 C-216.95364688 619.44421126 -216.85097597 634.29229683 -216.8656745 649.19017863 C-216.86826401 652.65539667 -216.86584224 656.1206125 -216.86428833 659.58583069 C-216.8624832 665.40756717 -216.86482662 671.22929086 -216.86962891 677.05102539 C-216.87504509 683.69180047 -216.87332138 690.33254469 -216.8678025 696.97331899 C-216.86319552 702.75760559 -216.86265774 708.54188314 -216.86524117 714.32617098 C-216.86676607 717.74402043 -216.86668819 721.16184455 -216.86370468 724.57969475 C-216.854061 738.73656872 -216.98487613 752.8765886 -217.44580078 767.02563477 C-217.48452238 768.2219625 -217.52324398 769.41829023 -217.56313896 770.65087032 C-217.81826745 777.76404175 -218.24148919 784.84925229 -218.79739571 791.94532108 C-219.07360938 796.10981365 -219.04029716 800.22969158 -218.921875 804.3984375 C-218.89466218 806.04815818 -218.86865426 807.6978991 -218.84375 809.34765625 C-218.80037481 811.87573968 -218.74921602 814.40272012 -218.67773438 816.93017578 C-218.21467075 834.15283515 -218.21467075 834.15283515 -222.63671875 839.62402344 C-223.31154297 840.30513184 -223.31154297 840.30513184 -224 841 C-224.70382812 841.75152344 -225.40765625 842.50304687 -226.1328125 843.27734375 C-226.79023438 843.82519531 -227.44765625 844.37304688 -228.125 844.9375 C-228.78757812 845.50339844 -229.45015625 846.06929687 -230.1328125 846.65234375 C-235.62447078 850.61598832 -243.54208021 849.48535514 -250 849 C-253.09733673 848.12857805 -255.40374649 846.87403431 -258 845 C-259.03125 844.34 -260.0625 843.68 -261.125 843 C-267.30357681 837.43791787 -270.24795954 829.07059219 -270.91796875 820.99609375 C-271.03237969 818.47755851 -271.12127389 815.95776263 -271.1875 813.4375 C-271.30229409 810.69468043 -271.4367822 807.95290037 -271.5703125 805.2109375 C-271.60131546 804.52365067 -271.63231842 803.83636383 -271.66426086 803.12825012 C-272.04172254 795.18809706 -272.9763871 787.3200738 -273.94799805 779.43334961 C-275.6244465 765.53404765 -276.12524636 751.65426648 -276.38842773 737.67172241 C-276.72119333 720.4020574 -277.39732141 703.16531599 -278.26489258 685.91503906 C-278.35112668 684.19987243 -278.43730906 682.48470319 -278.5234375 680.76953125 C-278.56516586 679.94013031 -278.60689423 679.11072937 -278.64988708 678.25619507 C-279.23315874 666.50929424 -279.62915979 654.75533313 -280 643 C-283.65846476 643.58284662 -286.4352435 644.57513528 -289.66796875 646.37109375 C-290.55194336 646.85771484 -291.43591797 647.34433594 -292.34667969 647.84570312 C-293.28415039 648.37099609 -294.22162109 648.89628906 -295.1875 649.4375 C-296.16493164 649.97955078 -297.14236328 650.52160156 -298.14941406 651.08007812 C-300.15026134 652.19014169 -302.14977743 653.30260809 -304.14794922 654.41748047 C-306.69423929 655.83034233 -309.25088716 657.22012748 -311.81640625 658.59765625 C-328.92532214 667.36774271 -328.92532214 667.36774271 -344 679 C-344.10894902 681.69813188 -344.15224552 684.37105467 -344.15390015 687.07006836 C-344.1582824 687.92620224 -344.16266465 688.78233612 -344.1671797 689.66441345 C-344.18061954 692.55622567 -344.18675825 695.44800739 -344.19287109 698.33984375 C-344.20076824 700.40418131 -344.20903694 702.46851748 -344.21765137 704.53285217 C-344.24392525 711.33438794 -344.25918839 718.13593002 -344.2734375 724.9375 C-344.27879574 727.27661137 -344.28417325 729.6157227 -344.28956985 731.95483398 C-344.31121006 741.68614162 -344.32994594 751.41744756 -344.34119225 761.14877319 C-344.35742317 775.10301706 -344.39056735 789.05698207 -344.44759309 803.0111208 C-344.48629973 812.8167207 -344.50582605 822.62224605 -344.51111281 832.42792034 C-344.51476641 838.2862918 -344.52678828 844.1443662 -344.55921555 850.00265503 C-344.58930704 855.51844725 -344.59560387 861.03376287 -344.58383179 866.54961967 C-344.58361112 868.57123021 -344.5919106 870.5928629 -344.60948563 872.61439705 C-345.09087455 886.70988915 -345.09087455 886.70988915 -339 899 C-338.26136719 900.02609375 -337.52273438 901.0521875 -336.76171875 902.109375 C-335.36887568 903.88256128 -333.97299569 905.65336589 -332.57421875 907.421875 C-330.80693918 910.31617901 -330.86097864 911.69522429 -331 915 C-335.08163412 916.65006981 -339.16558788 918.29431993 -343.25 919.9375 C-344.40886719 920.40607422 -345.56773437 920.87464844 -346.76171875 921.35742188 C-347.87675781 921.80537109 -348.99179687 922.25332031 -350.140625 922.71484375 C-351.16704102 923.12855225 -352.19345703 923.54226074 -353.25097656 923.96850586 C-358.82247276 926.05905394 -363.84020242 926.28023648 -369.75 926.375 C-370.61882812 926.41238281 -371.48765625 926.44976563 -372.3828125 926.48828125 C-378.86645545 926.57589805 -382.96731865 925.09805108 -388 921 C-394.69606994 914.30393006 -396.33260379 907.5523445 -396.39549351 898.40757656 C-396.38784442 897.31054944 -396.38019533 896.21352232 -396.37231445 895.08325195 C-396.37591697 893.90321877 -396.37951948 892.7231856 -396.38323116 891.50739384 C-396.38984671 888.26521372 -396.38300148 885.02340491 -396.36983013 881.78125525 C-396.35871516 878.31385425 -396.36416438 874.846471 -396.36712646 871.37905884 C-396.36981615 864.67473765 -396.35507682 857.97056322 -396.33339965 851.26628065 C-396.31613169 845.86234548 -396.30539323 840.45843184 -396.29855347 835.05447388 C-396.24571639 795.67545601 -395.95368308 756.30773207 -395.0625 716.9375 C-395.04081882 715.97182224 -395.01913765 715.00614449 -394.99679947 714.01120377 C-394.8534807 707.6829651 -394.69881474 701.35508732 -394.53515625 695.02734375 C-394.51564659 694.24925983 -394.49613693 693.47117592 -394.47603607 692.6695137 C-394.28093947 685.03931324 -394.020065 677.41474958 -393.56420898 669.79516602 C-393.49435287 668.62333267 -393.42449677 667.45149933 -393.3525238 666.24415588 C-392.06176768 654.36576911 -385.52040774 644.58915507 -376.4296875 637.11328125 C-371.10714915 632.95794908 -365.51208294 629.38403094 -359.75 625.875 C-357.62578654 624.56463745 -355.50210019 623.25342009 -353.37890625 621.94140625 C-352.31430176 621.28543457 -351.24969727 620.62946289 -350.15283203 619.95361328 C-345.30389468 616.94902936 -340.49459707 613.8834275 -335.6875 610.8125 C-333.8725018 609.65478177 -332.05739903 608.49722747 -330.2421875 607.33984375 C-328.92879395 606.50235596 -328.92879395 606.50235596 -327.58886719 605.64794922 C-323.50298693 603.04707297 -319.40845222 600.45997647 -315.3125 597.875 C-314.549375 597.39329346 -313.78625 596.91158691 -313 596.4152832 C-308.93594518 593.85070963 -304.87051644 591.28832223 -300.8046875 588.7265625 C-299.94834717 588.18660645 -299.09200684 587.64665039 -298.2097168 587.09033203 C-296.57879468 586.06198756 -294.94747394 585.0342749 -293.31567383 584.00732422 C-292.57599365 583.54084473 -291.83631348 583.07436523 -291.07421875 582.59375 C-290.43057373 582.18833984 -289.78692871 581.78292969 -289.1237793 581.36523438 C-288.42293213 580.91470703 -287.72208496 580.46417969 -287 580 C-285.93531494 579.51104248 -284.87062988 579.02208496 -283.77368164 578.51831055 C-280.62640603 575.66080259 -280.57023826 575.21748188 -280.37011719 571.1887207 C-280.39700345 569.16289571 -280.45852499 567.13735735 -280.546875 565.11328125 C-280.57199158 564.00986893 -280.59710815 562.9064566 -280.62298584 561.76960754 C-280.71541301 558.17785839 -280.854457 554.58996086 -281 551 C-281.08056999 548.6281091 -281.16064807 546.25620145 -281.24023438 543.88427734 C-281.51485423 536.31549325 -281.87385421 528.75183639 -282.25 521.1875 C-282.31795748 519.80233939 -282.38587891 518.41717701 -282.45376587 517.03201294 C-284.40450023 477.46428491 -287.67728469 438.07488079 -291.6796608 398.66554642 C-291.93135376 396.18556027 -292.18170526 393.70544126 -292.43197632 391.22531128 C-294.6258422 369.5539457 -297.2095716 347.95711239 -300.1479063 326.37406349 C-300.63374343 322.78944862 -301.10313568 319.2037946 -301.54196167 315.61309814 C-301.62912162 314.90016161 -301.71628157 314.18722507 -301.80608273 313.4526844 C-302.04175437 311.50848618 -302.27375535 309.56384399 -302.50547791 307.61917114 C-303.51965251 300.19691138 -305.03895196 292.83545538 -306.859375 285.5703125 C-308.76327319 277.50568715 -309.28543563 269.89725679 -309.3125 261.625 C-309.32059692 260.10918335 -309.32059692 260.10918335 -309.32885742 258.56274414 C-309.17883786 242.74024598 -302.80985491 232.24123398 -293.9375 219.4375 C-293.28555664 218.49003906 -292.63361328 217.54257813 -291.96191406 216.56640625 C-276.56539378 194.27469517 -260.2950482 173.0005188 -242 153 C-241.13632812 152.05511719 -240.27265625 151.11023438 -239.3828125 150.13671875 C-237.53586244 148.11802838 -235.68486489 146.10313362 -233.83203125 144.08984375 C-231.92041058 142.01027024 -230.02366927 139.91838286 -228.13671875 137.81640625 C-223.61698329 132.79827918 -219.07840193 127.99043095 -213.89453125 123.640625 C-211.82591345 121.84924464 -209.91793683 119.95145417 -208 118 C-204.16398851 114.11964156 -200.13870076 110.55216515 -196 107 C-194.84827706 105.9968754 -193.69730163 104.99289224 -192.546875 103.98828125 C-179.87277908 92.93045467 -166.87521475 82.58437056 -153.28369141 72.67529297 C-151.29541233 71.2167115 -149.32157466 69.74214303 -147.35546875 68.25390625 C-129.32445421 54.66307731 -110.04121134 42.83184015 -90.54443359 31.48779297 C-86.44494305 29.09071991 -82.37363947 26.64887514 -78.3125 24.1875 C-77.63058594 23.77967285 -76.94867187 23.3718457 -76.24609375 22.95166016 C-72.25642725 20.52506582 -68.5010592 17.90799453 -64.76171875 15.109375 C-58.96041905 10.84316682 -52.85960042 7.41983248 -46.5 4.0625 C-45.43007813 3.48693359 -44.36015625 2.91136719 -43.2578125 2.31835938 C-30.04372041 -4.74635359 -14.33441246 -4.77813749 0 0 Z " fill="#38009A" transform="translate(678,12)"/>
<path d="M0 0 C1.98 0.33 3.96 0.66 6 1 C3.12234566 33.71438616 3.12234566 33.71438616 -3.796875 40.44140625 C-8.23411874 43.58052017 -13.01927017 46.12462357 -17.796875 48.703125 C-29.61924936 55.10199852 -40.22493045 63.05882761 -50.9140625 71.1640625 C-55.60496277 74.7164811 -60.34821197 78.18921179 -65.125 81.625 C-65.86161865 82.15536865 -66.5982373 82.6857373 -67.35717773 83.23217773 C-70.29959508 85.34801894 -73.24473923 87.45999948 -76.19287109 89.56787109 C-105.32426615 110.40009284 -133.94438167 132.26709115 -160.3046875 156.55078125 C-161.74610996 157.86059557 -163.1932266 159.16494267 -164.67456055 160.42944336 C-170.55262938 165.45489258 -176.01937393 170.86709774 -181.47290039 176.3425293 C-183.05959946 177.93458966 -184.65157742 179.5212299 -186.24414062 181.10742188 C-191.16427074 186.02428925 -195.99437416 190.97770282 -200.51733398 196.26782227 C-202.77778126 198.90867085 -205.14105065 201.44678423 -207.5 204 C-210.53968996 207.29952777 -213.56158059 210.60951607 -216.5 214 C-219.43844531 217.39051382 -222.46134963 220.69949382 -225.5 224 C-229.0670215 227.87878432 -232.62005127 231.76413184 -236.05859375 235.7578125 C-237.6381035 237.58203503 -239.23716761 239.38303036 -240.84765625 241.1796875 C-253.05125443 254.2978327 -253.05125443 254.2978327 -257 271 C-256.62785125 273.15789487 -256.18111633 275.30388057 -255.671875 277.43359375 C-255.3725708 278.6980835 -255.0732666 279.96257324 -254.76489258 281.26538086 C-254.42675122 282.65612522 -254.0884482 284.04683028 -253.75 285.4375 C-253.39754936 286.913378 -253.04559473 288.38937452 -252.6940918 289.86547852 C-250.52663577 298.9184235 -248.26311829 307.94624162 -245.97265625 316.96875 C-245.71199371 317.99895767 -245.45133118 319.02916534 -245.18276978 320.09059143 C-243.90068445 325.15714461 -242.61042609 330.22125217 -241.30175781 335.28100586 C-234.5081256 361.80506862 -230.47276584 388.81518054 -226.5 415.875 C-226.38028461 416.68702503 -226.26056923 417.49905006 -226.1372261 418.33568192 C-221.74376316 448.15408564 -218.3018447 477.93970703 -216 508 C-215.87186063 509.64291268 -215.74361014 511.28581671 -215.61523438 512.92871094 C-215.01945184 520.61546486 -214.46395401 528.30401347 -214 536 C-213.01 536.33 -212.02 536.66 -211 537 C-211.81984375 537.56460938 -212.6396875 538.12921875 -213.484375 538.7109375 C-218.62715407 542.99860113 -221.76710105 548.99584791 -225.25 554.625 C-225.97561992 555.78184176 -226.70217535 556.93809728 -227.4296875 558.09375 C-228.75762434 560.20750714 -230.08133922 562.32392686 -231.39941406 564.44384766 C-232.57066046 566.31434031 -233.77581287 568.16371931 -235 570 C-235.66 570 -236.32 570 -237 570 C-237.02648117 569.37933151 -237.05296234 568.75866302 -237.08024597 568.1191864 C-239.28692259 516.84455899 -242.22942817 465.56171893 -249.6048584 414.73101807 C-250.04217365 411.70851714 -250.47285439 408.68510488 -250.90332031 405.66162109 C-251.73137642 399.86310531 -252.57478376 394.06697501 -253.42831421 388.27215576 C-253.75919499 386.02399088 -254.08794856 383.77551153 -254.41421509 381.52667236 C-258.33715257 354.62981954 -264.52114482 328.34814284 -271.125 302 C-277.98875463 274.61409187 -277.98875463 274.61409187 -280.4296875 262.75 C-280.59413361 261.97068115 -280.75857971 261.1913623 -280.92800903 260.38842773 C-283.39101816 247.94367791 -280.91603814 239.23378906 -273.94140625 228.75 C-268.40093998 220.90193511 -262.10955488 213.82743272 -255.5859375 206.80078125 C-253.53853741 204.58327995 -251.53414037 202.34671751 -249.5625 200.0625 C-245.98062691 195.930891 -242.26162042 191.93070073 -238.54541016 187.92041016 C-234.75112961 183.82306071 -231.00453553 179.68589227 -227.27734375 175.52734375 C-223.86790305 171.74362482 -220.41802399 167.9973594 -216.96875 164.25 C-215.3093196 162.44469205 -213.66849389 160.62626539 -212.04125977 158.79174805 C-206.66594532 152.74519233 -201.09450285 146.93847005 -195.36108398 141.23071289 C-193.93160283 139.80662508 -192.50759489 138.37721956 -191.08398438 136.94726562 C-186.4262698 132.2960336 -181.72543939 127.7663923 -176.72729492 123.48217773 C-174.32620824 121.42182477 -172.01132303 119.27173543 -169.6875 117.125 C-164.81067418 112.68181806 -159.78485299 108.48151563 -154.65039062 104.34130859 C-152.751612 102.79812963 -150.86744261 101.23809203 -148.984375 99.67578125 C-141.07439172 93.11492644 -133.11714668 86.66378074 -124.921875 80.4609375 C-122.64905762 78.73322673 -120.38711953 76.99169325 -118.125 75.25 C-107.93701966 67.42153902 -97.63429366 59.82661231 -87.09912109 52.47412109 C-76.95338106 45.34921084 -66.971252 37.99092045 -57 30.625 C-54.00147975 28.41465024 -51.00114244 26.20678746 -48 24 C-47.03449219 23.2884375 -46.06898438 22.576875 -45.07421875 21.84375 C-38.35680761 17.00633445 -31.22073735 13.02998575 -24 9 C-23.36884277 8.62794434 -22.73768555 8.25588867 -22.08740234 7.87255859 C-17.20468407 5 -17.20468407 5 -15 5 C-15 4.01 -15 3.02 -15 2 C-10.05 1.67 -5.1 1.34 0 1 C0 0.67 0 0.34 0 0 Z " fill="#0D0035" transform="translate(672,11)"/>
<path d="M0 0 C0.33 0.66 0.66 1.32 1 2 C-0.80017578 1.91685547 -0.80017578 1.91685547 -2.63671875 1.83203125 C-21.70127349 1.5323045 -35.39189398 10.30707999 -50.34545898 21.30810547 C-56.24709875 25.6100812 -62.42040897 29.30111738 -68.75 32.9375 C-104.45984744 53.47781772 -137.93245627 76.78057853 -169.27490234 103.53369141 C-171.01628378 105.01384099 -172.76694893 106.48235723 -174.51953125 107.94921875 C-180.91809778 113.33131419 -187.02342679 118.86512405 -192.87207031 124.8425293 C-195.58769235 127.61369397 -198.35131501 130.24350752 -201.3125 132.75 C-204.64823457 135.5895096 -207.45501964 138.69412746 -210.28515625 142.03125 C-211.95170356 143.94455261 -213.68827191 145.72458717 -215.5 147.5 C-219.21230253 151.16313296 -222.60459354 155.04406155 -226 159 C-226.88354655 160.00831053 -227.76770766 161.01608274 -228.65234375 162.0234375 C-235.97026816 170.40114848 -242.81998782 179.07379441 -249.484375 187.97851562 C-250.83458348 189.77937359 -252.19661369 191.57040755 -253.5625 193.359375 C-259.70413026 201.48442808 -265.43035182 209.90758565 -271.12838745 218.34683228 C-272.03395016 219.68586425 -272.94284515 221.02264945 -273.85525513 222.35702515 C-282.84781945 235.53159147 -287.38635339 246.49210698 -284.52685547 262.67822266 C-283.87942778 265.81305154 -283.19536961 268.93795155 -282.5 272.0625 C-264.30300239 354.73908583 -259.12379693 442.69549101 -255 527 C-254.96239563 527.75758606 -254.92479126 528.51517212 -254.88604736 529.29571533 C-254.53054773 536.49037068 -254.23264937 543.68204454 -254.07177734 550.88378906 C-254.01930146 553.1620279 -253.95555509 555.44001496 -253.88525391 557.71777344 C-253.77085625 561.60343215 -253.69330566 565.48828368 -253.625 569.375 C-253.58673096 570.56609375 -253.54846191 571.7571875 -253.5090332 572.984375 C-253.429809 581.16174233 -253.429809 581.16174233 -256.02734375 584.98046875 C-259.61026841 587.41459759 -263.20012136 589.74748828 -266.9375 591.9375 C-268.55711932 592.90696929 -270.17555709 593.87841452 -271.79296875 594.8515625 C-272.64294434 595.36235352 -273.49291992 595.87314453 -274.36865234 596.39941406 C-278.87088639 599.13801551 -283.30982394 601.97475487 -287.75 604.8125 C-288.66942383 605.39942627 -289.58884766 605.98635254 -290.53613281 606.59106445 C-292.41519058 607.79117473 -294.29393263 608.99177948 -296.17236328 610.19287109 C-300.84032303 613.17614152 -305.51379129 616.15074699 -310.1875 619.125 C-311.55660522 619.99644653 -311.55660522 619.99644653 -312.95336914 620.88549805 C-318.07468581 624.14376943 -323.1995989 627.39622537 -328.33203125 630.63696289 C-329.89039233 631.62143747 -331.4477024 632.6075779 -333.00390625 633.59545898 C-337.01905155 636.14016772 -341.05328629 638.64432573 -345.125 641.09765625 C-360.44880825 650.05388837 -360.44880825 650.05388837 -369 665 C-369.28175602 667.55508803 -369.48274835 670.02694577 -369.59082031 672.58764648 C-369.62768574 673.32728606 -369.66455116 674.06692564 -369.70253372 674.82897854 C-370.13899918 684.08053828 -370.36397782 693.33815501 -370.546875 702.59765625 C-370.56790031 703.62523607 -370.58892563 704.6528159 -370.61058807 705.7115345 C-371.02252951 726.52727869 -371.08849288 747.34192081 -371.12928772 768.16102219 C-371.14027384 773.75991284 -371.15478178 779.35879104 -371.1697998 784.95767212 C-371.1796973 788.74586972 -371.18945971 792.53406766 -371.19921875 796.32226562 C-371.20168767 797.26619006 -371.20415659 798.21011449 -371.20670033 799.1826427 C-371.23429199 809.89367486 -371.25256179 820.60460367 -371.25048828 831.31567383 C-371.24890317 839.97211076 -371.2647925 848.62831862 -371.30119491 857.28468186 C-371.31959692 861.82755997 -371.32904043 866.37005471 -371.31671906 870.91296196 C-371.30534456 875.1400732 -371.31683694 879.36648441 -371.34635353 883.59350204 C-371.35301527 885.14193897 -371.3510912 886.69043962 -371.34005547 888.23885155 C-371.3262691 890.34668292 -371.34296595 892.45211711 -371.36749268 894.55979919 C-371.36969252 896.3276359 -371.36969252 896.3276359 -371.3719368 898.13118649 C-372 901 -372 901 -374.53953171 902.90251255 C-375.35148624 903.26468341 -376.16344078 903.62685427 -377 904 C-376.505 905.485 -376.505 905.485 -376 907 C-377.45217676 908.50596108 -378.91192861 910.00462104 -380.375 911.5 C-381.59316406 912.75296875 -381.59316406 912.75296875 -382.8359375 914.03125 C-385 916 -385 916 -387 916 C-390.07654677 909.21827098 -390.4238468 903.47398712 -390.37231445 896.08325195 C-390.37591697 894.90321877 -390.37951948 893.7231856 -390.38323116 892.50739384 C-390.38984671 889.26521372 -390.38300148 886.02340491 -390.36983013 882.78125525 C-390.35871516 879.31385425 -390.36416438 875.846471 -390.36712646 872.37905884 C-390.36981615 865.67473765 -390.35507682 858.97056322 -390.33339965 852.26628065 C-390.31613169 846.86234548 -390.30539323 841.45843184 -390.29855347 836.05447388 C-390.24571639 796.67545601 -389.95368308 757.30773207 -389.0625 717.9375 C-389.04081882 716.97182224 -389.01913765 716.00614449 -388.99679947 715.01120377 C-388.8534807 708.6829651 -388.69881474 702.35508732 -388.53515625 696.02734375 C-388.51564659 695.24925983 -388.49613693 694.47117592 -388.47603607 693.6695137 C-388.28093947 686.03931324 -388.020065 678.41474958 -387.56420898 670.79516602 C-387.49435287 669.62333267 -387.42449677 668.45149933 -387.3525238 667.24415588 C-386.06176768 655.36576911 -379.52040774 645.58915507 -370.4296875 638.11328125 C-365.10714915 633.95794908 -359.51208294 630.38403094 -353.75 626.875 C-351.62578654 625.56463745 -349.50210019 624.25342009 -347.37890625 622.94140625 C-346.31430176 622.28543457 -345.24969727 621.62946289 -344.15283203 620.95361328 C-339.30389468 617.94902936 -334.49459707 614.8834275 -329.6875 611.8125 C-327.8725018 610.65478177 -326.05739903 609.49722747 -324.2421875 608.33984375 C-322.92879395 607.50235596 -322.92879395 607.50235596 -321.58886719 606.64794922 C-317.50298693 604.04707297 -313.40845222 601.45997647 -309.3125 598.875 C-308.549375 598.39329346 -307.78625 597.91158691 -307 597.4152832 C-302.93594518 594.85070963 -298.87051644 592.28832223 -294.8046875 589.7265625 C-293.94834717 589.18660645 -293.09200684 588.64665039 -292.2097168 588.09033203 C-290.57879468 587.06198756 -288.94747394 586.0342749 -287.31567383 585.00732422 C-286.57599365 584.54084473 -285.83631348 584.07436523 -285.07421875 583.59375 C-284.43057373 583.18833984 -283.78692871 582.78292969 -283.1237793 582.36523438 C-282.42293213 581.91470703 -281.72208496 581.46417969 -281 581 C-279.93531494 580.51104248 -278.87062988 580.02208496 -277.77368164 579.51831055 C-274.62640603 576.66080259 -274.57023826 576.21748188 -274.37011719 572.1887207 C-274.39700345 570.16289571 -274.45852499 568.13735735 -274.546875 566.11328125 C-274.57199158 565.00986893 -274.59710815 563.9064566 -274.62298584 562.76960754 C-274.71541301 559.17785839 -274.854457 555.58996086 -275 552 C-275.08056999 549.6281091 -275.16064807 547.25620145 -275.24023438 544.88427734 C-275.51485423 537.31549325 -275.87385421 529.75183639 -276.25 522.1875 C-276.31795748 520.80233939 -276.38587891 519.41717701 -276.45376587 518.03201294 C-278.40450023 478.46428491 -281.67728469 439.07488079 -285.6796608 399.66554642 C-285.93135376 397.18556027 -286.18170526 394.70544126 -286.43197632 392.22531128 C-288.6258422 370.5539457 -291.2095716 348.95711239 -294.1479063 327.37406349 C-294.63374343 323.78944862 -295.10313568 320.2037946 -295.54196167 316.61309814 C-295.62912162 315.90016161 -295.71628157 315.18722507 -295.80608273 314.4526844 C-296.04175437 312.50848618 -296.27375535 310.56384399 -296.50547791 308.61917114 C-297.51965251 301.19691138 -299.03895196 293.83545538 -300.859375 286.5703125 C-302.76327319 278.50568715 -303.28543563 270.89725679 -303.3125 262.625 C-303.32059692 261.10918335 -303.32059692 261.10918335 -303.32885742 259.56274414 C-303.17883786 243.74024598 -296.80985491 233.24123398 -287.9375 220.4375 C-287.28555664 219.49003906 -286.63361328 218.54257813 -285.96191406 217.56640625 C-270.56539378 195.27469517 -254.2950482 174.0005188 -236 154 C-235.13632812 153.05511719 -234.27265625 152.11023438 -233.3828125 151.13671875 C-231.53586244 149.11802838 -229.68486489 147.10313362 -227.83203125 145.08984375 C-225.92041058 143.01027024 -224.02366927 140.91838286 -222.13671875 138.81640625 C-217.61698329 133.79827918 -213.07840193 128.99043095 -207.89453125 124.640625 C-205.82591345 122.84924464 -203.91793683 120.95145417 -202 119 C-198.16398851 115.11964156 -194.13870076 111.55216515 -190 108 C-188.84827706 106.9968754 -187.69730163 105.99289224 -186.546875 104.98828125 C-173.87277908 93.93045467 -160.87521475 83.58437056 -147.28369141 73.67529297 C-145.29541233 72.2167115 -143.32157466 70.74214303 -141.35546875 69.25390625 C-123.32445421 55.66307731 -104.04121134 43.83184015 -84.54443359 32.48779297 C-80.44494305 30.09071991 -76.37363947 27.64887514 -72.3125 25.1875 C-71.63058594 24.77967285 -70.94867187 24.3718457 -70.24609375 23.95166016 C-66.25642725 21.52506582 -62.5010592 18.90799453 -58.76171875 16.109375 C-52.96041905 11.84316682 -46.85960042 8.41983248 -40.5 5.0625 C-39.43007813 4.48693359 -38.36015625 3.91136719 -37.2578125 3.31835938 C-25.31860009 -3.0647586 -13.22512272 -3.75213639 0 0 Z " fill="#2B01A8" transform="translate(672,11)"/>
<path d="M0 0 C0.99 0.495 0.99 0.495 2 1 C1.18595703 2.71896484 1.18595703 2.71896484 0.35546875 4.47265625 C-0.36725281 6.00257332 -1.08990539 7.53252297 -1.8125 9.0625 C-2.16892578 9.81466797 -2.52535156 10.56683594 -2.89257812 11.34179688 C-4.70682999 15.18667927 -6.49030626 19.02843765 -8.08422852 22.97167969 C-9 25 -9 25 -10.48803711 27.61035156 C-15.93396378 37.73426214 -15.89561898 47.04113483 -15.875 58.3125 C-15.89316608 60.13219004 -15.91398088 61.95185565 -15.9375 63.77148438 C-15.98882734 68.18130312 -16.00446786 72.58989935 -16 77 C-16.33 77 -16.66 77 -17 77 C-17.33 67.76 -17.66 58.52 -18 49 C-22.10171317 49.82034263 -24.1825129 50.43472939 -27.66796875 52.37109375 C-28.55194336 52.85771484 -29.43591797 53.34433594 -30.34667969 53.84570312 C-31.28415039 54.37099609 -32.22162109 54.89628906 -33.1875 55.4375 C-34.16493164 55.97955078 -35.14236328 56.52160156 -36.14941406 57.08007812 C-38.15026134 58.19014169 -40.14977743 59.30260809 -42.14794922 60.41748047 C-44.69423929 61.83034233 -47.25088716 63.22012748 -49.81640625 64.59765625 C-66.92532214 73.36774271 -66.92532214 73.36774271 -82 85 C-82.10007551 87.70953725 -82.13439812 90.39365487 -82.12698364 93.10371399 C-82.12932363 94.39320655 -82.12932363 94.39320655 -82.13171089 95.70874947 C-82.13572477 98.6122465 -82.13252972 101.51569196 -82.12939453 104.41918945 C-82.13074843 106.4916385 -82.1325283 108.5640873 -82.13470459 110.63653564 C-82.13928113 116.2832651 -82.13748824 121.92997638 -82.1343255 127.57670617 C-82.13180202 133.47522549 -82.1341395 139.3737432 -82.13571167 145.27226257 C-82.13753383 155.18305746 -82.13512629 165.09384491 -82.13037109 175.00463867 C-82.12493288 186.47155362 -82.12668774 197.93845078 -82.1321975 209.40536529 C-82.13673267 219.23636602 -82.13737705 229.06736138 -82.13475883 238.89836282 C-82.13319771 244.77601328 -82.13299771 250.65365538 -82.13629532 256.53130531 C-82.13917973 262.05926472 -82.13718778 267.58720116 -82.13140106 273.11515808 C-82.13007634 275.14691314 -82.13046272 277.17867012 -82.13266373 279.21042442 C-82.1353866 281.97875425 -82.13198 284.74701 -82.12698364 287.51533508 C-82.13032973 288.72831999 -82.13032973 288.72831999 -82.13374341 289.96580964 C-82.12138837 293.48290172 -81.9443722 296.61604748 -81 300 C-81.66 299.67 -82.32 299.34 -83 299 C-83 298.34 -83 297.68 -83 297 C-92.75361041 299.26518275 -101.20592813 302.08711069 -110 307 C-112.0331454 303.62953322 -112.23917203 301.08306295 -112.20927429 297.17723083 C-112.20505463 295.98433945 -112.20083496 294.79144806 -112.19648743 293.56240845 C-112.18151718 292.25460419 -112.16654694 290.94679993 -112.15112305 289.59936523 C-112.1423259 288.20324715 -112.13441454 286.80712325 -112.12731934 285.41099548 C-112.10533334 281.59629254 -112.07068424 277.78179553 -112.03379035 273.96721148 C-111.99649313 269.89706004 -111.97048259 265.82683489 -111.94306946 261.75660706 C-111.89494003 254.84507915 -111.83932301 247.93364474 -111.77856445 241.0222168 C-111.71766022 234.09288857 -111.66169402 227.16355274 -111.61254883 220.23413086 C-111.60662842 219.39993036 -111.60070801 218.56572985 -111.59460819 217.70625055 C-111.58270057 216.02447439 -111.57080502 214.34269814 -111.55892158 212.66092181 C-111.45082063 197.43371621 -111.3195382 182.20686227 -111.16747642 166.98003268 C-111.06303185 156.50874898 -110.97758338 146.03765165 -110.92039627 135.56599826 C-110.88157923 128.55863537 -110.82936312 121.55145434 -110.76743561 114.54425794 C-110.73151892 110.41151132 -110.70226152 106.27897542 -110.68991661 102.14608574 C-110.67834255 98.31395751 -110.64839711 94.48240485 -110.60461783 90.65051341 C-110.59191919 89.25671406 -110.58583936 87.86283471 -110.58718514 86.46897817 C-110.59174893 76.49217478 -109.76875475 67.81202726 -102.78515625 60.21484375 C-99.00194567 56.77583589 -94.84182054 54.13121156 -90.4375 51.5625 C-89.64085937 51.0878833 -88.84421875 50.6132666 -88.0234375 50.12426758 C-85.68865284 48.73834053 -83.34559525 47.36752727 -81 46 C-79.88753906 45.34257813 -78.77507812 44.68515625 -77.62890625 44.0078125 C-71.15531106 40.241651 -64.57650035 36.69370667 -57.97192383 33.1640625 C-39.87773435 23.49200615 -22.18376387 13.19600373 -4.6328125 2.57421875 C-3.11653263 1.66760037 -1.58014215 0.79007108 0 0 Z " fill="#0E003B" transform="translate(416,606)"/>
<path d="M0 0 C0.99 0.495 0.99 0.495 2 1 C1.42967041 1.96147949 0.85934082 2.92295898 0.27172852 3.91357422 C-15.04018912 30.17335349 -19.96212336 51.71842909 -18 82 C-18.33 82 -18.66 82 -19 82 C-19 71.44 -19 60.88 -19 50 C-26.50042197 54.15022953 -26.50042197 54.15022953 -33.64453125 58.71484375 C-34.64097656 59.39393799 -35.63742187 60.07303223 -36.6640625 60.77270508 C-37.70304688 61.4870874 -38.74203125 62.20146973 -39.8125 62.9375 C-40.91783044 63.6938057 -42.02330137 64.4499061 -43.12890625 65.20581055 C-53.13997864 72.05993109 -63.08536535 79.00728968 -73 86 C-74.58983975 87.11979735 -76.17968347 88.23958906 -77.76953125 89.359375 C-80.6142543 91.36450965 -83.45840717 93.37044298 -86.30078125 95.37890625 C-86.9138916 95.81090332 -87.52700195 96.24290039 -88.15869141 96.68798828 C-89.4345888 97.59712016 -90.7019946 98.51824284 -91.96240234 99.44873047 C-96.79507064 103 -96.79507064 103 -99 103 C-98.89403 104.7654995 -98.89403 104.7654995 -98.78591919 106.56666565 C-97.95364688 121.44421126 -97.85097597 136.29229683 -97.8656745 151.19017863 C-97.86826401 154.65539667 -97.86584224 158.1206125 -97.86428833 161.58583069 C-97.8624832 167.40756717 -97.86482662 173.22929086 -97.86962891 179.05102539 C-97.87504509 185.69180047 -97.87332138 192.33254469 -97.8678025 198.97331899 C-97.86319552 204.75760559 -97.86265774 210.54188314 -97.86524117 216.32617098 C-97.86676607 219.74402043 -97.86668819 223.16184455 -97.86370468 226.57969475 C-97.854061 240.73656872 -97.98487613 254.8765886 -98.44580078 269.02563477 C-98.48452238 270.2219625 -98.52324398 271.41829023 -98.56313896 272.65087032 C-98.81826745 279.76404175 -99.24148919 286.84925229 -99.79739571 293.94532108 C-100.07360938 298.10981365 -100.04029716 302.22969158 -99.921875 306.3984375 C-99.89466218 308.04815818 -99.86865426 309.6978991 -99.84375 311.34765625 C-99.80037481 313.87573968 -99.74921602 316.40272012 -99.67773438 318.93017578 C-99.21467075 336.15283515 -99.21467075 336.15283515 -103.63671875 341.62402344 C-104.08660156 342.0780957 -104.53648437 342.53216797 -105 343 C-106.05574219 344.12728516 -106.05574219 344.12728516 -107.1328125 345.27734375 C-108.11894531 346.09912109 -108.11894531 346.09912109 -109.125 346.9375 C-109.78757812 347.50339844 -110.45015625 348.06929687 -111.1328125 348.65234375 C-116.60998953 352.60553638 -124.55585388 351.51472951 -131 351 C-134.12523177 349.98915526 -136.22937814 348.80938571 -139 347 C-137 346 -137 346 -135.08203125 346.55859375 C-134.33308594 346.84863281 -133.58414062 347.13867188 -132.8125 347.4375 C-126.30649238 349.6927774 -121.18110107 349.53728133 -114.8515625 346.91015625 C-108.66579067 343.86947094 -105.23094738 339.13891583 -102.75 332.8125 C-101.52874076 326.60443219 -101.20633159 320.12717129 -103 314 C-109.76972768 314.55405936 -109.76972768 314.55405936 -116 317 C-116.309375 317.845625 -116.61875 318.69125 -116.9375 319.5625 C-117.4634375 320.7690625 -117.4634375 320.7690625 -118 322 C-121.125 322.8125 -121.125 322.8125 -124 323 C-126.26361197 318.49972382 -126.3069841 314.24102581 -126.25 309.3125 C-126.24316728 308.47098735 -126.23633455 307.6294747 -126.22929478 306.76246166 C-126.1417067 301.12252321 -125.81933951 295.5683141 -125.27112675 289.9558897 C-123.44575397 270.65758177 -123.79380656 251.33114799 -123.89600682 231.96960425 C-123.92002874 226.84180374 -123.92971438 221.71397875 -123.94029236 216.58613586 C-123.97406017 201.40748577 -124.02731148 186.2289135 -124.0894165 171.050354 C-124.13788096 159.18462441 -124.1799245 147.31895765 -124.20092481 135.45314342 C-124.21242643 129.36621381 -124.2377899 123.27955031 -124.27367222 117.19271791 C-124.29284035 113.42200159 -124.29954158 109.65133948 -124.30273628 105.88057899 C-124.30675802 104.13301225 -124.31595675 102.38544864 -124.33069992 100.63793945 C-124.35009031 98.25428474 -124.3509894 95.87130908 -124.3473053 93.4875946 C-124.35740806 92.79617754 -124.36751083 92.10476048 -124.37791973 91.39239138 C-124.34612681 87.08715473 -123.5785753 84.45086932 -121 81 C-119.18505859 79.42944336 -119.18505859 79.42944336 -117.1484375 78.08984375 C-116.38861572 77.58138916 -115.62879395 77.07293457 -114.84594727 76.54907227 C-114.03053467 76.01725342 -113.21512207 75.48543457 -112.375 74.9375 C-110.64115807 73.77979672 -108.90809981 72.62091902 -107.17578125 71.4609375 C-105.86794678 70.59033691 -105.86794678 70.59033691 -104.53369141 69.70214844 C-100.83317023 67.21611706 -97.19548739 64.64579404 -93.5625 62.0625 C-92.14722826 61.06106669 -90.73186253 60.0597662 -89.31640625 59.05859375 C-87.15874311 57.53055503 -85.0019269 56.00137011 -82.84716797 54.46923828 C-59.22682732 37.69065147 -35.0955025 21.57550695 -10.37060547 6.46826172 C-8.78369648 5.48539141 -7.20964481 4.48146791 -5.64892578 3.45751953 C-4.93075684 2.98813965 -4.21258789 2.51875977 -3.47265625 2.03515625 C-2.8475415 1.61758057 -2.22242676 1.20000488 -1.57836914 0.76977539 C-1.05750732 0.51574951 -0.53664551 0.26172363 0 0 Z " fill="#100043" transform="translate(559,510)"/>
<path d="M0 0 C4.13265702 3.54633039 6.24655504 7.79722853 8.6875 12.5625 C9.09033203 13.33013672 9.49316406 14.09777344 9.90820312 14.88867188 C15.15123948 24.96197624 15.8691635 37.9543027 12.72720337 49.03048706 C12 51 12 51 9.92333984 54.25830078 C7.65675733 58.15313901 7.65972687 61.16020207 7.9765625 65.6796875 C8.02123657 66.40125534 8.06591064 67.12282318 8.11193848 67.86625671 C8.26200572 70.20445521 8.4432045 72.53907404 8.625 74.875 C8.73479459 76.49979238 8.84268915 78.12471421 8.94873047 79.74975586 C9.63669242 90.04015151 10.50898274 100.31626849 11.38256836 110.59228516 C12.30823938 121.9523625 12.30356541 133.2137855 11.63728333 144.5879364 C10.78036936 159.66826974 10.80282912 174.76091241 10.81132126 189.86005783 C10.81251359 192.21433401 10.81196253 194.56860576 10.81130981 196.92288208 C10.81279846 222.10494297 11.23359874 247.26572131 11.9375 272.4375 C11.95931461 273.22467281 11.98112923 274.01184563 12.00360489 274.82287216 C12.58562616 295.78392985 12.58562616 295.78392985 13.45703125 316.734375 C13.51995361 318.0347168 13.58287598 319.33505859 13.64770508 320.67480469 C14.48155552 328.54524342 17.16674333 333.72229159 23 339 C29.4558221 346.99960564 30.26572293 352.04075382 30.35009766 362.23071289 C30.36668083 363.70027476 30.39400274 365.1697552 30.43212891 366.63891602 C30.48683448 368.75840018 30.50875469 370.8759993 30.5234375 372.99609375 C30.54325684 374.26638428 30.56307617 375.5366748 30.58349609 376.84545898 C30 380 30 380 27.62353516 381.86694336 C26.75776855 382.24085205 25.89200195 382.61476074 25 383 C24.175 383.37382813 23.35 383.74765625 22.5 384.1328125 C21.675 384.46023438 20.85 384.78765625 20 385.125 C19.175 385.45757813 18.35 385.79015625 17.5 386.1328125 C9.51394412 388.90297563 -0.09859381 389.30422441 -8 386 C-17.75168165 380.45713663 -24.77561791 370.21279186 -29 360 C-29.16015625 357.171875 -29.16015625 357.171875 -29 355 C-26.67474293 357.93572279 -24.90991417 360.92854017 -23.1875 364.25 C-18.07462402 373.66120065 -12.60833981 381.46388673 -2 385 C9.34356551 386.253345 17.76349367 383.46683912 28 379 C24.79561704 374.57682151 21.11593596 371.51832086 16.8125 368.25 C9.04419251 362.26957434 9.04419251 362.26957434 8.375 358.1875 C8.02767782 355.2112161 7.92827313 352.85793833 9 350 C8.01 351.32 7.02 352.64 6 354 C2.63266438 352.96041988 1.86695937 351.78601143 -0.03515625 348.7265625 C-0.72355391 347.36568388 -1.39893478 345.99815809 -2.0625 344.625 C-2.40087891 343.97144531 -2.73925781 343.31789063 -3.08789062 342.64453125 C-8.04630608 332.61261139 -9.44509084 322.31013677 -9.6159668 311.23339844 C-9.64566559 310.01864334 -9.67536438 308.80388824 -9.70596313 307.55232239 C-9.78384036 304.25671705 -9.84973929 300.96114938 -9.90996909 297.66518307 C-9.97635945 294.1878065 -10.05817196 290.71078968 -10.13813782 287.23370361 C-10.27035431 281.39375926 -10.39277826 275.55368124 -10.50805664 269.71337891 C-10.66961094 261.52912558 -10.84858243 253.34532337 -11.03124368 245.16151762 C-12.35311987 185.70080298 -12.35311987 185.70080298 -11.5625 170 C-11.47070134 168.0344353 -11.37915734 166.06885869 -11.2878418 164.10327148 C-11.2167067 162.60725906 -11.2167067 162.60725906 -11.14413452 161.08102417 C-10.00946271 136.8262431 -9.62239864 113.18466291 -11.64245605 88.98187256 C-12.54334799 78.1865163 -13.39769355 67.39725499 -13.85012817 56.57229614 C-13.93515459 54.61645095 -14.04137567 52.66156328 -14.14819336 50.70678711 C-14.39791134 43.78879655 -14.17798589 39.60405119 -10 34 C-7.06347715 29.13954839 -6.76622055 26.5520075 -8 21 C-8.21382324 20.34990967 -8.42764648 19.69981934 -8.64794922 19.0300293 C-9.09168771 16.47130143 -8.56978103 15.42943135 -7.3828125 13.14453125 C-7.02316406 12.44005859 -6.66351562 11.73558594 -6.29296875 11.00976562 C-5.90753906 10.28466797 -5.52210938 9.55957031 -5.125 8.8125 C-4.74730469 8.07580078 -4.36960937 7.33910156 -3.98046875 6.58007812 C-1.19764881 1.19764881 -1.19764881 1.19764881 0 0 Z " fill="#110044" transform="translate(580,465)"/>
<path d="M0 0 C0.33 0 0.66 0 1 0 C1.99363737 14.37545651 2.37056779 28.75278462 2.71875 43.15625 C2.78188441 45.67281845 2.84532637 48.18937921 2.90905762 50.70593262 C3.09233744 57.96802566 3.27174113 65.23021159 3.45052338 72.49241638 C3.69323188 82.34065556 3.93910208 92.18881412 4.18751526 102.03691101 C4.27830903 105.66376974 4.36674351 109.29068025 4.45495605 112.91760254 C4.95159706 141.75576707 4.95159706 141.75576707 7.15625 170.4921875 C7.2634436 171.49935822 7.37063721 172.50652893 7.4810791 173.54421997 C7.81297948 176.65537821 8.15539545 179.76522578 8.5 182.875 C10.07628083 197.24763174 11.42835992 211.54902403 12 226 C15.98527046 226.46386348 15.98527046 226.46386348 18 224.0625 C18.66 223.381875 19.32 222.70125 20 222 C21.0209375 221.7834375 21.0209375 221.7834375 22.0625 221.5625 C22.701875 221.376875 23.34125 221.19125 24 221 C24.61875 219.7934375 24.61875 219.7934375 25.25 218.5625 C27.49770978 215.27121068 29.20128867 214.95850705 32.9921875 214.203125 C35.50362289 213.94904982 37.59592887 214.24872777 40 215 C42.29379843 222.93580263 41.71572519 231.6104563 38 239 C34.19977109 244.81550181 29.5090325 248.30911281 23 250.75 C16.27783896 251.59027013 11.19313299 250.4342296 5 248 C3.9275 247.5875 2.855 247.175 1.75 246.75 C-3.74085606 243.25581887 -7.25095091 237.21737947 -9 231 C-9.58973618 226.26228749 -9.78752803 221.51761391 -10 216.75 C-10.14535105 213.96166917 -10.30308199 211.17414204 -10.46484375 208.38671875 C-10.50512192 207.68397324 -10.54540009 206.98122772 -10.5868988 206.25718689 C-11.06656316 198.28263052 -11.97207716 190.36230801 -12.94726562 182.43457031 C-14.79079532 167.17424118 -15.19702323 151.91379517 -15.5 136.5625 C-15.76933512 122.38166839 -15.76933512 122.38166839 -16.49609375 108.21875 C-17.2539023 96.62897617 -17.39871021 85.01217254 -17.49650764 73.40096951 C-17.52727821 69.80542187 -17.57378555 66.21166139 -17.65844727 62.61694336 C-18.03254201 46.32589216 -18.16505515 33.09069857 -9 19 C-7.95549989 16.65429409 -7.10893621 14.29992033 -6.25 11.875 C-4.61073159 7.41685449 -2.97028097 3.71285121 0 0 Z " fill="#240090" transform="translate(417,609)"/>
<path d="M0 0 C0.99 0.495 0.99 0.495 2 1 C1.42967041 1.96147949 0.85934082 2.92295898 0.27172852 3.91357422 C-15.04018912 30.17335349 -19.96212336 51.71842909 -18 82 C-18.33 82 -18.66 82 -19 82 C-19 71.44 -19 60.88 -19 50 C-26.50042197 54.15022953 -26.50042197 54.15022953 -33.64453125 58.71484375 C-34.64097656 59.39393799 -35.63742187 60.07303223 -36.6640625 60.77270508 C-37.70304688 61.4870874 -38.74203125 62.20146973 -39.8125 62.9375 C-40.91783044 63.6938057 -42.02330137 64.4499061 -43.12890625 65.20581055 C-53.13997864 72.05993109 -63.08536535 79.00728968 -73 86 C-74.58983975 87.11979735 -76.17968347 88.23958906 -77.76953125 89.359375 C-80.6142543 91.36450965 -83.45840717 93.37044298 -86.30078125 95.37890625 C-86.9138916 95.81090332 -87.52700195 96.24290039 -88.15869141 96.68798828 C-89.4345888 97.59712016 -90.7019946 98.51824284 -91.96240234 99.44873047 C-96.79507064 103 -96.79507064 103 -99 103 C-98.89403 104.7654995 -98.89403 104.7654995 -98.78591919 106.56666565 C-97.95364688 121.44421126 -97.85097597 136.29229683 -97.8656745 151.19017863 C-97.86826401 154.65539667 -97.86584224 158.1206125 -97.86428833 161.58583069 C-97.8624832 167.40756717 -97.86482662 173.22929086 -97.86962891 179.05102539 C-97.87504509 185.69180047 -97.87332138 192.33254469 -97.8678025 198.97331899 C-97.86319552 204.75760559 -97.86265774 210.54188314 -97.86524117 216.32617098 C-97.86676607 219.74402043 -97.86668819 223.16184455 -97.86370468 226.57969475 C-97.854061 240.73656872 -97.98487613 254.8765886 -98.44580078 269.02563477 C-98.48452238 270.2219625 -98.52324398 271.41829023 -98.56313896 272.65087032 C-98.81826745 279.76404175 -99.24148919 286.84925229 -99.79739571 293.94532108 C-100.07360938 298.10981365 -100.04029716 302.22969158 -99.921875 306.3984375 C-99.89466218 308.04815818 -99.86865426 309.6978991 -99.84375 311.34765625 C-99.80037481 313.87573968 -99.74921602 316.40272012 -99.67773438 318.93017578 C-99.21467075 336.15283515 -99.21467075 336.15283515 -103.63671875 341.62402344 C-104.08660156 342.0780957 -104.53648437 342.53216797 -105 343 C-106.05574219 344.12728516 -106.05574219 344.12728516 -107.1328125 345.27734375 C-108.11894531 346.09912109 -108.11894531 346.09912109 -109.125 346.9375 C-109.78757812 347.50339844 -110.45015625 348.06929687 -111.1328125 348.65234375 C-116.60998953 352.60553638 -124.55585388 351.51472951 -131 351 C-134.12523177 349.98915526 -136.22937814 348.80938571 -139 347 C-137 346 -137 346 -135.08203125 346.55859375 C-134.33308594 346.84863281 -133.58414062 347.13867188 -132.8125 347.4375 C-126.30649238 349.6927774 -121.18110107 349.53728133 -114.8515625 346.91015625 C-108.66579067 343.86947094 -105.23094738 339.13891583 -102.75 332.8125 C-101.52874076 326.60443219 -101.20633159 320.12717129 -103 314 C-109.76972768 314.55405936 -109.76972768 314.55405936 -116 317 C-116.309375 317.845625 -116.61875 318.69125 -116.9375 319.5625 C-117.4634375 320.7690625 -117.4634375 320.7690625 -118 322 C-121.125 322.8125 -121.125 322.8125 -124 323 C-126.3992233 318.35150485 -126.19957409 314.08913926 -126 309 C-118.21191437 309.51648735 -110.65074958 310.44876534 -103 312 C-102.93941406 310.71867187 -102.87882812 309.43734375 -102.81640625 308.1171875 C-102.73185464 306.36978761 -102.64721437 304.62239201 -102.5625 302.875 C-102.52318359 302.03839844 -102.48386719 301.20179688 -102.44335938 300.33984375 C-102.20558648 295.47464443 -101.88736635 290.62778732 -101.48731995 285.77316284 C-100.86891013 277.14118095 -100.86694815 268.53765072 -100.88647461 259.88720703 C-100.88675735 258.11176556 -100.88659706 256.33632397 -100.8860321 254.56088257 C-100.88574752 249.78499396 -100.89158914 245.00913094 -100.89860606 240.23324823 C-100.90489632 235.2258025 -100.90544786 230.21835606 -100.90663147 225.21090698 C-100.90972816 215.74822116 -100.91791896 206.28554702 -100.92798096 196.82286632 C-100.93919395 186.04161174 -100.94466557 175.26035657 -100.94967639 164.4790976 C-100.96010311 142.31939191 -100.9776701 120.15969669 -101 98 C-101.75917725 97.71318359 -102.51835449 97.42636719 -103.30053711 97.13085938 C-106.71828528 95.69909583 -109.57368533 93.65304716 -112.5625 91.5 C-117.56818591 87.89855851 -117.56818591 87.89855851 -123 85 C-121.6164754 81.70248937 -120.21661378 80.14923751 -117.24609375 78.1875 C-116.48304932 77.67582275 -115.72000488 77.16414551 -114.93383789 76.63696289 C-114.11004639 76.09676514 -113.28625488 75.55656738 -112.4375 75 C-110.69455633 73.83315997 -108.95238318 72.66516827 -107.2109375 71.49609375 C-106.33276367 70.90940918 -105.45458984 70.32272461 -104.54980469 69.71826172 C-100.8467869 67.22287306 -97.20199179 64.64928932 -93.5625 62.0625 C-92.14720568 61.0610986 -90.73184021 60.05979775 -89.31640625 59.05859375 C-87.15874311 57.53055503 -85.0019269 56.00137011 -82.84716797 54.46923828 C-59.22682732 37.69065147 -35.0955025 21.57550695 -10.37060547 6.46826172 C-8.78369648 5.48539141 -7.20964481 4.48146791 -5.64892578 3.45751953 C-4.93075684 2.98813965 -4.21258789 2.51875977 -3.47265625 2.03515625 C-2.8475415 1.61758057 -2.22242676 1.20000488 -1.57836914 0.76977539 C-1.05750732 0.51574951 -0.53664551 0.26172363 0 0 Z " fill="#090123" transform="translate(559,510)"/>
<path d="M0 0 C1.49416557 4.48249672 0.22770007 8.25604129 -0.6875 12.8125 C-0.84927734 13.70259766 -1.01105469 14.59269531 -1.17773438 15.50976562 C-2.82507508 23.83284659 -5.92285374 28.67480421 -12.84521484 33.59765625 C-16.2209473 35.79459793 -19.74091669 37.64548552 -23.3125 39.5 C-32.72330857 44.56532437 -41.10427796 50.69775061 -49.58691406 57.16796875 C-53.630605 60.2379664 -57.72249435 63.24214767 -61.8125 66.25 C-62.60906006 66.83749023 -63.40562012 67.42498047 -64.22631836 68.03027344 C-68.79048801 71.39249936 -73.37756538 74.71842428 -78 78 C-91.20963582 87.38188801 -104.22711584 97.03170144 -117 107 C-117.57057129 107.4444043 -118.14114258 107.88880859 -118.72900391 108.34667969 C-134.37783031 120.54311979 -149.70853254 133.10448416 -164.3046875 146.55078125 C-165.74610996 147.86059557 -167.1932266 149.16494267 -168.67456055 150.42944336 C-174.55262938 155.45489258 -180.01937393 160.86709774 -185.47290039 166.3425293 C-187.05959946 167.93458966 -188.65157742 169.5212299 -190.24414062 171.10742188 C-195.16427074 176.02428925 -199.99437416 180.97770282 -204.51733398 186.26782227 C-206.77778126 188.90867085 -209.14105065 191.44678423 -211.5 194 C-214.53968996 197.29952777 -217.56158059 200.60951607 -220.5 204 C-223.43844531 207.39051382 -226.46134963 210.69949382 -229.5 214 C-233.0670215 217.87878432 -236.62005127 221.76413184 -240.05859375 225.7578125 C-241.6381035 227.58203503 -243.23716761 229.38303036 -244.84765625 231.1796875 C-256.46107474 244.00017174 -256.46107474 244.00017174 -262 260 C-262.33 260 -262.66 260 -263 260 C-263.36938107 258.48279017 -263.71967165 256.96092928 -264.0625 255.4375 C-264.25972656 254.59058594 -264.45695312 253.74367188 -264.66015625 252.87109375 C-265.7465899 243.69260258 -261.3240781 237.98239751 -256 231 C-252.77699853 227.22477086 -249.40419567 223.61135889 -246 220 C-244.80465829 218.65275028 -243.61636116 217.29919379 -242.4375 215.9375 C-238.35080992 211.23828494 -234.17218666 206.62323387 -230 202 C-228.9171875 200.7934375 -228.9171875 200.7934375 -227.8125 199.5625 C-223.69449502 194.97386587 -219.54880457 190.41279503 -215.375 185.875 C-212.39781719 182.63782784 -209.44047144 179.38862271 -206.5625 176.0625 C-198.61115256 166.93524906 -190.29388438 158.19787648 -181.75 149.625 C-181.00580811 148.87621582 -180.26161621 148.12743164 -179.49487305 147.35595703 C-175.39081983 143.26330016 -171.19533506 139.34193137 -166.80419922 135.55908203 C-164.38303957 133.46685936 -162.03781962 131.29621284 -159.6875 129.125 C-154.81067418 124.68181806 -149.78485299 120.48151563 -144.65039062 116.34130859 C-142.751612 114.79812963 -140.86744261 113.23809203 -138.984375 111.67578125 C-131.07439172 105.11492644 -123.11714668 98.66378074 -114.921875 92.4609375 C-112.64905762 90.73322673 -110.38711953 88.99169325 -108.125 87.25 C-97.94125263 79.42479164 -87.64299775 71.83250817 -77.11230469 64.48291016 C-73.3654188 61.85246807 -69.64986152 59.17886036 -65.9375 56.5 C-65.18791016 55.95923828 -64.43832031 55.41847656 -63.66601562 54.86132812 C-59.34356361 51.73101812 -55.06272321 48.55215971 -50.81054688 45.32714844 C-39.73484194 36.93104953 -28.57708004 28.96705809 -16.09741211 22.77441406 C-11.37074891 20.38711758 -6.58090984 17.68754673 -3.828125 13.0078125 C-3.63734375 12.38648438 -3.4465625 11.76515625 -3.25 11.125 C-3.03214844 10.44695313 -2.81429688 9.76890625 -2.58984375 9.0703125 C-2.29787109 8.04550781 -2.29787109 8.04550781 -2 7 C-1.69255859 5.97519531 -1.69255859 5.97519531 -1.37890625 4.9296875 C-0.8983425 3.29245652 -0.44605377 1.64696777 0 0 Z " fill="#08021D" transform="translate(676,21)"/>
<path d="M0 0 C-1.58160045 4.12625465 -3.42535736 8.10018748 -5.375 12.0625 C-5.81199219 12.97999023 -5.81199219 12.97999023 -6.2578125 13.91601562 C-7.60011911 16.63889636 -8.82449293 18.83126926 -11.0234375 20.9453125 C-14.21558424 24.26363105 -15.456713 28.62376772 -17.00390625 32.89257812 C-20.55840145 41.79566208 -28.29348706 46.51163049 -36.1875 51.375 C-37.38487793 52.12257568 -37.38487793 52.12257568 -38.60644531 52.88525391 C-47.31043967 58.27351848 -56.16502352 63.41025277 -65.00756836 68.56640625 C-85.39267386 80.45704043 -105.3937236 92.86686339 -124.99609375 106.0078125 C-130.62100621 109.73824859 -136.31276598 113.36555459 -142 117 C-142 113.37939635 -141.07620285 112.16908035 -139.1484375 109.140625 C-138.54386719 108.18929687 -137.93929688 107.23796875 -137.31640625 106.2578125 C-136.67574219 105.26523437 -136.03507812 104.27265625 -135.375 103.25 C-134.75753906 102.27289062 -134.14007813 101.29578125 -133.50390625 100.2890625 C-125.91284038 88.43101856 -117.896535 81.15453093 -105.875 73.9375 C-105.10422119 73.47053711 -104.33344238 73.00357422 -103.53930664 72.52246094 C-96.62090683 68.34370056 -89.65908264 64.23806073 -82.69604492 60.13427734 C-75.34543357 55.80105645 -68.01035697 51.4424659 -60.6875 47.0625 C-59.65616943 46.44793945 -58.62483887 45.83337891 -57.56225586 45.20019531 C-55.6077126 44.02928991 -53.65862772 42.84921207 -51.71582031 41.65893555 C-49.96427889 40.58902149 -48.19864748 39.54168392 -46.41699219 38.52270508 C-40.63089773 35.04383648 -38.26054807 31.81150912 -35.875 25.5625 C-29.65287909 11.19214576 -20.06423017 6.96471866 -6.2578125 0.76953125 C-4 0 -4 0 0 0 Z " fill="#3001BC" transform="translate(580,464)"/>
<path d="M0 0 C0 12.21 0 24.42 0 37 C-0.33 37 -0.66 37 -1 37 C-1.33 27.76 -1.66 18.52 -2 9 C-6.10171317 9.82034263 -8.1825129 10.43472939 -11.66796875 12.37109375 C-12.55194336 12.85771484 -13.43591797 13.34433594 -14.34667969 13.84570312 C-15.75288574 14.63364258 -15.75288574 14.63364258 -17.1875 15.4375 C-18.16493164 15.97955078 -19.14236328 16.52160156 -20.14941406 17.08007812 C-22.15026134 18.19014169 -24.14977743 19.30260809 -26.14794922 20.41748047 C-28.69423929 21.83034233 -31.25088716 23.22012748 -33.81640625 24.59765625 C-50.92532214 33.36774271 -50.92532214 33.36774271 -66 45 C-66.10007551 47.70953725 -66.13439812 50.39365487 -66.12698364 53.10371399 C-66.12854363 53.9633757 -66.13010362 54.82303741 -66.13171089 55.70874947 C-66.13572477 58.6122465 -66.13252972 61.51569196 -66.12939453 64.41918945 C-66.13074843 66.4916385 -66.1325283 68.5640873 -66.13470459 70.63653564 C-66.13928113 76.2832651 -66.13748824 81.92997638 -66.1343255 87.57670617 C-66.13180202 93.47522549 -66.1341395 99.3737432 -66.13571167 105.27226257 C-66.13753383 115.18305746 -66.13512629 125.09384491 -66.13037109 135.00463867 C-66.12493288 146.47155362 -66.12668774 157.93845078 -66.1321975 169.40536529 C-66.13673267 179.23636602 -66.13737705 189.06736138 -66.13475883 198.89836282 C-66.13319771 204.77601328 -66.13299771 210.65365538 -66.13629532 216.53130531 C-66.13917973 222.05926472 -66.13718778 227.58720116 -66.13140106 233.11515808 C-66.13007634 235.14691314 -66.13046272 237.17867012 -66.13266373 239.21042442 C-66.1353866 241.97875425 -66.13198 244.74701 -66.12698364 247.51533508 C-66.12921436 248.32399169 -66.13144509 249.13264829 -66.13374341 249.96580964 C-66.12138837 253.48290172 -65.9443722 256.61604748 -65 260 C-65.66 259.67 -66.32 259.34 -67 259 C-67 258.34 -67 257.68 -67 257 C-68.32 257 -69.64 257 -71 257 C-70.98620611 228.77570868 -70.94403753 200.55158392 -70.86790943 172.32738876 C-70.83322791 159.22296022 -70.80789976 146.11863721 -70.80444336 133.01416016 C-70.80140787 121.59485506 -70.78097329 110.17573777 -70.73947543 98.75650525 C-70.71810615 92.70773895 -70.70556507 86.65923991 -70.71384621 80.61043549 C-70.72136135 74.92059091 -70.70566667 69.23128899 -70.67193985 63.54154396 C-70.66367596 61.45014101 -70.66399241 59.35868441 -70.67340279 57.2672863 C-70.68496 54.41727059 -70.6660058 51.56905258 -70.63923645 48.71917725 C-70.64990971 47.88649283 -70.66058297 47.05380842 -70.67157966 46.19589114 C-70.60164143 42.22055608 -70.42489419 40.43265796 -67.58625317 37.54214859 C-66.73278962 37.03323956 -65.87932608 36.52433052 -65 36 C-64.33363525 35.54012695 -63.66727051 35.08025391 -62.98071289 34.60644531 C-50.51540939 26.67108615 -37.74352758 19.49180381 -24.65844727 12.64550781 C-17.75456014 9.02913979 -10.98152957 5.29724207 -4.31274414 1.26318359 C-2 0 -2 0 0 0 Z " fill="#08011D" transform="translate(400,646)"/>
<path d="M0 0 C2.95767337 2.7536959 5.221175 5.35340874 7 9 C7.04892653 10.66594837 7.05561731 12.33426158 7 14 C2.91836588 15.65006981 -1.16558788 17.29431993 -5.25 18.9375 C-6.98830078 19.64036133 -6.98830078 19.64036133 -8.76171875 20.35742188 C-9.87675781 20.80537109 -10.99179687 21.25332031 -12.140625 21.71484375 C-13.16704102 22.12855225 -14.19345703 22.54226074 -15.25097656 22.96850586 C-20.82247276 25.05905394 -25.84020242 25.28023648 -31.75 25.375 C-32.61882812 25.41238281 -33.48765625 25.44976563 -34.3828125 25.48828125 C-42.22795566 25.5942967 -46.83235064 22.93007566 -52.5 17.6875 C-52.995 17.130625 -53.49 16.57375 -54 16 C-52.38255642 12.11813542 -49.7994997 9.25806038 -46.9375 6.25 C-46.49728516 5.74339844 -46.05707031 5.23679687 -45.60351562 4.71484375 C-43.64234281 2.6681627 -41.87977978 1.13282003 -39.02505493 0.70184326 C-33.45402667 0.75256204 -28.57818921 1.61351386 -23.24609375 3.1875 C-22.06660912 3.52044067 -22.06660912 3.52044067 -20.86329651 3.86010742 C-18.38474843 4.56244063 -15.91122344 5.28088032 -13.4375 6 C-11.74444791 6.48284958 -10.05109062 6.96463038 -8.35742188 7.4453125 C-4.23465371 8.6178956 -0.11630446 9.80493361 4 11 C3.566875 10.44570313 3.13375 9.89140625 2.6875 9.3203125 C2.130625 8.59585938 1.57375 7.87140625 1 7.125 C0.443125 6.40570312 -0.11375 5.68640625 -0.6875 4.9453125 C-2 3 -2 3 -2 1 C-1.34 0.67 -0.68 0.34 0 0 Z " fill="#0D0036" transform="translate(340,913)"/>
<path d="M0 0 C1.94921875 1.70703125 1.94921875 1.70703125 3.6875 3.8125 C4.26886719 4.49957031 4.85023438 5.18664062 5.44921875 5.89453125 C9.92350599 11.96919327 9.40659157 18.10403182 9.42553711 25.3815918 C9.43748387 27.55955904 9.48673564 29.7347355 9.53710938 31.91210938 C9.54656895 33.29686121 9.55380622 34.68163038 9.55859375 36.06640625 C9.57204834 37.32396729 9.58550293 38.58152832 9.59936523 39.87719727 C9 43 9 43 6.62133789 44.86254883 C5.75629639 45.23790771 4.89125488 45.6132666 4 46 C3.175 46.37382813 2.35 46.74765625 1.5 47.1328125 C0.675 47.46023438 -0.15 47.78765625 -1 48.125 C-1.825 48.45757813 -2.65 48.79015625 -3.5 49.1328125 C-11.48605588 51.90297563 -21.09859381 52.30422441 -29 49 C-38.75168165 43.45713663 -45.77561791 33.21279186 -50 23 C-50.16015625 20.171875 -50.16015625 20.171875 -50 18 C-47.67474293 20.93572279 -45.90991417 23.92854017 -44.1875 27.25 C-39.07462402 36.66120065 -33.60833981 44.46388673 -23 48 C-11.65643449 49.253345 -3.23650633 46.46683912 7 42 C3.79561704 37.57682151 0.11593596 34.51832086 -4.1875 31.25 C-11.95580749 25.26957434 -11.95580749 25.26957434 -12.625 21.1875 C-12.97232218 18.2112161 -13.07172687 15.85793833 -12 13 C-12.99 14.32 -13.98 15.64 -15 17 C-18.9429464 15.53403275 -20.01834588 13.62691725 -21.75 9.875 C-22.17796875 8.96492187 -22.6059375 8.05484375 -23.046875 7.1171875 C-23.36140625 6.41851563 -23.6759375 5.71984375 -24 5 C-23.34 4.01 -22.68 3.02 -22 2 C-22 3.32 -22 4.64 -22 6 C-21.29875 5.649375 -20.5975 5.29875 -19.875 4.9375 C-16.49731414 3.8360807 -14.41919407 4.20483859 -11 5 C-10.38125 4.195625 -9.7625 3.39125 -9.125 2.5625 C-6.01101382 -1.19260099 -4.58305498 -1.40858511 0 0 Z " fill="#17005B" transform="translate(601,802)"/>
<path d="M0 0 C2.125 2.25 2.125 2.25 4 5 C4.5775 5.721875 5.155 6.44375 5.75 7.1875 C7 9 7 9 7 11 C6.34 11 5.68 11 5 11 C7.31 14.63 9.62 18.26 12 22 C-1.18401892 18.91926408 -14.07845903 15.02864027 -27 11 C-21.31894778 4.74685119 -8.75541269 -1.65642943 0 0 Z " fill="#240091" transform="translate(333,903)"/>
<path d="M0 0 C2.32525707 2.93572279 4.09008583 5.92854017 5.8125 9.25 C10.92537598 18.66120065 16.39166019 26.46388673 27 30 C38.88538464 31.31321033 48.45355947 28.27322026 59 23 C57.95691447 26.15617492 57.16176585 26.91812397 54.13671875 28.44921875 C52.99847656 28.85785156 51.86023438 29.26648438 50.6875 29.6875 C49.55699219 30.10386719 48.42648437 30.52023437 47.26171875 30.94921875 C38.88226491 33.64870747 29.30303233 34.47217715 21 31 C11.24831835 25.45713663 4.22438209 15.21279186 0 5 C-0.16015625 2.171875 -0.16015625 2.171875 0 0 Z " fill="#0F0920" transform="translate(551,820)"/>
<path d="M0 0 C1 3 1 3 0.28515625 4.796875 C-3.45134976 10.76573443 -8.13034142 16.71011381 -15 19 C-23.57890803 19.62077508 -30.61154472 19.82511365 -38 15 C-36 14 -36 14 -34.08203125 14.55859375 C-33.33308594 14.84863281 -32.58414062 15.13867188 -31.8125 15.4375 C-25.30706693 17.69257824 -20.16218407 17.55209849 -13.83984375 14.89453125 C-7.26619923 11.69842807 -3.92269187 5.92360386 0 0 Z " fill="#0D091C" transform="translate(458,842)"/>
<path d="M0 0 C3.3 0.33 6.6 0.66 10 1 C10 4.84955327 9.93720146 6.74197937 8 10 C4.875 10.8125 4.875 10.8125 2 11 C0.19769832 7.17010894 -0.19622241 4.21878192 0 0 Z " fill="#13004E" transform="translate(433,822)"/>
<path d="M0 0 C0 1.65 0 3.3 0 5 C-0.66 5 -1.32 5 -2 5 C-3.70680947 6.62553283 -5.37660195 8.29115995 -7 10 C-7.99 9.67 -8.98 9.34 -10 9 C-9.55090939 7.51800098 -9.09043436 6.03944764 -8.625 4.5625 C-8.36976563 3.73878906 -8.11453125 2.91507813 -7.8515625 2.06640625 C-6.17760825 -1.99562035 -3.68580708 -0.87295431 0 0 Z " fill="#13004C" transform="translate(433,836)"/>
<path d="M0 0 C2.32472205 2.85306797 3.7508258 5.54074837 5 9 C0.428721 8.45144652 -3.67435795 7.58255197 -8 6 C-5.51047079 3.33264727 -3.36591866 1.44253657 0 0 Z " fill="#1F007E" transform="translate(314,908)"/>
<path d="M0 0 C-3.59037626 2.39358417 -7.27634399 3.91530072 -11.25 5.5625 C-11.98863281 5.87896484 -12.72726562 6.19542969 -13.48828125 6.52148438 C-18.03439167 8.40968367 -22.09678667 9.52654157 -27 10 C-23.66392941 6.29738558 -19.75589431 5.06170933 -15.1875 3.3125 C-13.99543945 2.83200195 -13.99543945 2.83200195 -12.77929688 2.34179688 C-8.36200029 0.62822194 -4.81975606 -0.41134794 0 0 Z " fill="#0F0C1C" transform="translate(342,928)"/>
<path d="M0 0 C3.7102381 3.45435961 6.83840258 6.57603873 7.1875 11.8125 C7.125625 12.534375 7.06375 13.25625 7 14 C4.29120665 15.35439668 1.99066732 15.06501451 -1 15 C1 13 1 13 4 11 C3.566875 10.44570313 3.13375 9.89140625 2.6875 9.3203125 C1.8521875 8.23363281 1.8521875 8.23363281 1 7.125 C0.443125 6.40570312 -0.11375 5.68640625 -0.6875 4.9453125 C-2 3 -2 3 -2 1 C-1.34 0.67 -0.68 0.34 0 0 Z " fill="#0E0822" transform="translate(340,913)"/>
<path d="M0 0 C0.66 0.33 1.32 0.66 2 1 C2 1.66 2 2.32 2 3 C1.13375 3.309375 1.13375 3.309375 0.25 3.625 C-2.81410544 5.49750888 -4.15539968 7.96958519 -6 11 C-6.66 10.34 -7.32 9.68 -8 9 C-10.06874034 8.3574765 -10.06874034 8.3574765 -12 8 C-12 7.01 -12 6.02 -12 5 C-10.56445975 4.49440092 -9.1264798 3.9957251 -7.6875 3.5 C-6.88699219 3.2215625 -6.08648438 2.943125 -5.26171875 2.65625 C-3 2 -3 2 0 2 C0 1.34 0 0.68 0 0 Z " fill="#090122" transform="translate(596,798)"/>
<path d="M0 0 C0.66 0.99 1.32 1.98 2 3 C3.32 2.34 4.64 1.68 6 1 C6.33 1.33 6.66 1.66 7 2 C7.66 2.33 8.32 2.66 9 3 C6.9375 5.5 6.9375 5.5 4 8 C0.1875 8.3125 0.1875 8.3125 -3 8 C-1.125 1.125 -1.125 1.125 0 0 Z " fill="#190066" transform="translate(592,811)"/>
<path d="M0 0 C0.33 0 0.66 0 1 0 C1.7013076 6.59229145 -0.50397814 10.49376557 -4 16 C-4.33 16 -4.66 16 -5 16 C-5.82200425 9.75276774 -2.92551394 5.28682163 0 0 Z " fill="#0C071C" transform="translate(592,507)"/>
<path d="M0 0 C1.98 0.66 3.96 1.32 6 2 C4.12050295 5.57104439 2.82946843 7.54744301 -1 9 C-1.80967438 6.08517222 -2.21845993 4.53886783 -1.0625 1.6875 C-0.711875 1.130625 -0.36125 0.57375 0 0 Z " fill="#13004C" transform="translate(581,825)"/>
<path d="M0 0 C0 10.56 0 21.12 0 32 C-0.33 32 -0.66 32 -1 32 C-1.01458252 31.16227051 -1.02916504 30.32454102 -1.04418945 29.46142578 C-1.10520707 26.35621098 -1.17935065 23.25166883 -1.26245117 20.14697266 C-1.31209959 18.14117664 -1.34654164 16.13502313 -1.38085938 14.12890625 C-1.41630859 12.87207031 -1.45175781 11.61523438 -1.48828125 10.3203125 C-1.51446533 9.15773926 -1.54064941 7.99516602 -1.56762695 6.79736328 C-1.71031006 5.8742334 -1.85299316 4.95110352 -2 4 C-2.99 3.34 -3.98 2.68 -5 2 C-1.125 0 -1.125 0 0 0 Z " fill="#1A1A1A" transform="translate(400,651)"/>
<path d="M0 0 C-3.63 1.98 -7.26 3.96 -11 6 C-11.66 4.35 -12.32 2.7 -13 1 C-11.39796533 0.63631108 -9.79325797 0.28438048 -8.1875 -0.0625 C-7.29417969 -0.25972656 -6.40085937 -0.45695313 -5.48046875 -0.66015625 C-3 -1 -3 -1 0 0 Z " fill="#16005A" transform="translate(317,907)"/>
<path d="M0 0 C-0.625 2.4375 -0.625 2.4375 -2 5 C-5.125 5.8125 -5.125 5.8125 -8 6 C-8.33 4.35 -8.66 2.7 -9 1 C-3.375 -1.125 -3.375 -1.125 0 0 Z " fill="#17005E" transform="translate(443,827)"/>
<path d="M0 0 C0.66 0 1.32 0 2 0 C3.3927289 1.61736259 4.71937515 3.2925002 6 5 C6.86625 6.0828125 6.86625 6.0828125 7.75 7.1875 C9 9 9 9 9 11 C6.1157546 10.65514457 5.1792182 10.21744593 3.296875 7.93359375 C2.78640625 7.10988281 2.2759375 6.28617188 1.75 5.4375 C1.22921875 4.61121094 0.7084375 3.78492188 0.171875 2.93359375 C-0.21484375 2.29550781 -0.6015625 1.65742187 -1 1 C-0.67 0.67 -0.34 0.34 0 0 Z " fill="#1F0372" transform="translate(331,903)"/>
<path d="M0 0 C0.66 0 1.32 0 2 0 C1.745504 1.48206495 1.47088238 2.96068615 1.1875 4.4375 C1.03667969 5.26121094 0.88585937 6.08492187 0.73046875 6.93359375 C0.36888672 7.95646484 0.36888672 7.95646484 0 9 C-0.99 9.33 -1.98 9.66 -3 10 C-3.66 9.67 -4.32 9.34 -5 9 C-3.7580393 5.56072421 -2.44259716 2.74792181 0 0 Z " fill="#190064" transform="translate(299,914)"/>
<path d="M0 0 C0.66 0.99 1.32 1.98 2 3 C3.32 2.34 4.64 1.68 6 1 C5 4 5 4 2.625 5.75 C0 7 0 7 -3 6 C-2.01 4.02 -1.02 2.04 0 0 Z " fill="#200082" transform="translate(592,811)"/>
<path d="M0 0 C0.33 0.99 0.66 1.98 1 3 C0.00390625 4.82421875 0.00390625 4.82421875 -1.4375 6.6875 C-1.91058594 7.31011719 -2.38367188 7.93273437 -2.87109375 8.57421875 C-3.24363281 9.04472656 -3.61617188 9.51523437 -4 10 C-4 6.58238295 -3.24061454 4.17045938 -2 1 C-1.34 0.67 -0.68 0.34 0 0 Z " fill="#1A006B" transform="translate(428,835)"/>
<path d="M0 0 C1.5 1.1875 1.5 1.1875 3 3 C3.1875 5.6875 3.1875 5.6875 3 8 C1.29115995 6.37660195 -0.37446717 4.70680947 -2 3 C-2 2.34 -2 1.68 -2 1 C-1.34 0.67 -0.68 0.34 0 0 Z " fill="#140445" transform="translate(340,913)"/>
<path d="M0 0 C3.63 0 7.26 0 11 0 C8.09907498 1.93395001 7.10325263 2.30131941 3.8125 2.625 C2.554375 2.74875 1.29625 2.8725 0 3 C0 2.01 0 1.02 0 0 Z " fill="#07001F" transform="translate(313,904)"/>
<path d="M0 0 C0.99 0 1.98 0 3 0 C2.34 1.32 1.68 2.64 1 4 C-0.32 4 -1.64 4 -3 4 C-1.6875 2 -1.6875 2 0 0 Z " fill="#210088" transform="translate(297,912)"/>
</svg>
