<?xml version="1.0" encoding="UTF-8"?>
<svg version="1.1" xmlns="http://www.w3.org/2000/svg" width="1658" height="1658">
<path d="M0 0 C2 2 2 2 2.125 4.3125 C-1.25474935 12.38634566 -17.79020181 17.5752805 -25.43505859 21.40795898 C-37.69665925 27.56634446 -49.04362506 34.21799261 -59.5625 43.125 C-66.24440035 48.66774477 -73.13072071 53.8656595 -80.14501953 58.97900391 C-84.63384031 62.25231152 -89.06406671 65.57414392 -93.4375 69 C-99.56951195 73.75464379 -105.90717678 78.18565271 -112.27832031 82.61279297 C-117.9568868 86.5604538 -123.59061096 90.56242633 -129.1875 94.625 C-134.90584156 98.77573155 -140.65286032 102.87970879 -146.4375 106.9375 C-158.97989071 115.75336897 -171.31729015 124.85325048 -183.43359375 134.24609375 C-187.16189201 137.13396552 -190.91849157 139.98426552 -194.67358398 142.8371582 C-207.28821083 152.42320491 -219.76440433 162.14115523 -232.03588867 172.16259766 C-236.35675854 175.68555142 -240.72295628 179.14178781 -245.125 182.5625 C-250.53660508 186.77656181 -255.77110232 191.16544345 -260.95483398 195.65600586 C-264.48291418 198.71082519 -268.05481812 201.69408621 -271.6875 204.625 C-276.42977487 208.47461137 -280.94928961 212.52712671 -285.4453125 216.66015625 C-287.62697815 218.65834848 -289.83011309 220.62148889 -292.0625 222.5625 C-299.7287706 229.24354707 -307.21327293 236.10118716 -314.625 243.0625 C-315.32939209 243.72306396 -316.03378418 244.38362793 -316.75952148 245.06420898 C-320.23888284 248.34217424 -323.66577483 251.65586728 -327.0234375 255.05859375 C-330.22041302 258.28027906 -333.55896819 261.26541636 -336.99560547 264.22705078 C-340.49278228 267.32041229 -343.77173362 270.6275827 -347.0625 273.9375 C-347.73087891 274.60201172 -348.39925781 275.26652344 -349.08789062 275.95117188 C-352.9883877 279.85925009 -356.67648466 283.88531281 -360.28295898 288.06469727 C-363.05025427 291.18375737 -366.02184369 294.08410336 -369 297 C-373.19329366 301.15006383 -377.28241664 305.30799319 -381.09765625 309.8125 C-383.82257844 312.94588076 -386.66550921 315.96585246 -389.5 319 C-393.51618986 323.30520169 -397.49129906 327.62968438 -401.3359375 332.08984375 C-403.31540126 334.36204511 -405.3458317 336.58459872 -407.375 338.8125 C-410.46636801 342.23229328 -413.42459032 345.71958524 -416.3125 349.3125 C-420.20255931 354.12585437 -424.32871834 358.6476145 -428.55566406 363.16113281 C-432.47878593 367.37393141 -436.11896414 371.76395352 -439.72265625 376.25390625 C-442.21827478 379.26320269 -444.83784189 382.13920076 -447.5 385 C-451.71031037 389.52983315 -455.67638398 394.20292849 -459.5546875 399.01953125 C-462.47005392 402.57292514 -465.4785701 406.0368228 -468.5 409.5 C-494.17724073 439.01996753 -512.15423963 463.49618179 -510 504 C-509.12438282 513.2619046 -507.29003048 522.37151898 -505.49084473 531.4888916 C-504.95326986 534.23906633 -504.43014842 536.99174926 -503.90917969 539.74511719 C-498.82539685 566.57095748 -493.14374062 593.20545649 -486.75 619.75 C-479.90150309 648.22872857 -473.79948698 676.4643083 -469.69140625 705.4765625 C-469.54123676 706.5317382 -469.39106728 707.58691391 -469.2363472 708.67406464 C-465.95542244 731.77783036 -463.03714306 754.92199077 -460.2545166 778.09047318 C-459.86647102 781.32100494 -459.47699373 784.55136209 -459.08740234 787.78170776 C-455.23003682 819.81105536 -451.48039047 851.82924749 -449 884 C-448.91423706 885.10996338 -448.82847412 886.21992676 -448.7401123 887.36352539 C-447.43292648 904.41579118 -446.28313022 921.47641949 -445.21746826 938.54534912 C-445.01204023 941.8087316 -444.80034546 945.07163727 -444.58642578 948.33447266 C-441.25895105 999.48602644 -440.34420885 1050.76727802 -439 1102 C-437.46394859 1100.97510468 -437.46394859 1100.97510468 -435.89686584 1099.92950439 C-434.53680018 1099.02232964 -433.17672802 1098.11516463 -431.81665039 1097.20800781 C-430.80718227 1096.5344072 -430.80718227 1096.5344072 -429.77732086 1095.84719849 C-424.68404208 1092.45044958 -419.57355768 1089.08178284 -414.4375 1085.75 C-413.60871338 1085.21189697 -412.77992676 1084.67379395 -411.92602539 1084.11938477 C-402.87365374 1078.25331263 -393.77356457 1072.46270551 -384.66210938 1066.68896484 C-382.10026457 1065.06361246 -379.5419335 1063.43286749 -376.984375 1061.80078125 C-360.72051522 1051.44149893 -344.08369353 1041.8731656 -327.23828125 1032.4921875 C-315.75706393 1026.08225996 -304.39022434 1019.48891654 -293.0625 1012.8125 C-285.03158484 1008.08073996 -276.98160266 1003.40301695 -268.82910156 998.88256836 C-257.58064639 992.64000578 -246.81305919 985.88164129 -236.25 978.53808594 C-234.22512428 977.15389355 -232.17431243 975.8372377 -230.09375 974.5390625 C-224.40090348 970.97878306 -224.40090348 970.97878306 -221.15625 965.3828125 C-220.92150552 963.41415992 -220.73884191 961.43877782 -220.6015625 959.4609375 C-219.79894771 954.84329657 -217.9018551 951.22228606 -215.6875 947.125 C-215.30762939 946.41150391 -214.92775879 945.69800781 -214.53637695 944.96289062 C-212.09177954 940.53987725 -209.34982618 936.78263559 -206 933 C-201.125 933.875 -201.125 933.875 -200 935 C-199.70613847 938.72224599 -199.85190829 939.77786243 -202 943 C-200.68 943.66 -199.36 944.32 -198 945 C-198.29661111 951.40680008 -199.26964523 956.68793307 -203 962 C-204.52680298 963.25534617 -206.06044547 964.50239871 -207.59912109 965.74316406 C-212.24352535 970.34439884 -212.98108631 974.01887219 -213.06441307 980.46364212 C-213.04470093 982.68048749 -212.98021136 984.89346789 -212.9140625 987.109375 C-212.89976387 988.68285152 -212.8893738 990.25636785 -212.88265991 991.82989502 C-212.85409489 995.96588008 -212.77082573 1000.09901713 -212.67626953 1004.23394775 C-212.59197959 1008.3704766 -212.56270295 1012.50734917 -212.52734375 1016.64453125 C-212.39152101 1030.29057363 -212.09268952 1043.92127436 -211.35351562 1057.54936218 C-209.39295335 1094.8826029 -211.21213584 1131.79763761 -215.32861328 1168.90039062 C-219.88730526 1210.0904703 -221.01339869 1251.19687812 -221.8314476 1292.59249592 C-222.09043846 1305.64899292 -222.37859185 1318.70487522 -222.66320801 1331.76083374 C-222.70826212 1333.82916238 -222.7533061 1335.89749123 -222.79833984 1337.96582031 C-222.83165091 1339.49425159 -222.83165091 1339.49425159 -222.86563492 1341.05356026 C-222.99559184 1347.03732963 -223.12177127 1353.02116297 -223.24440002 1359.0050869 C-223.60130119 1376.41210806 -223.9789053 1393.81055598 -224.67182922 1411.20799255 C-225.0099641 1419.81252851 -225.21758803 1428.40972305 -225.24023438 1437.02099609 C-225.24683913 1438.5285306 -225.26071047 1440.03604798 -225.28125 1441.54345703 C-225.46322385 1454.9611855 -224.14504665 1467.42612957 -219.25 1480.0625 C-218.87464111 1481.03413086 -218.87464111 1481.03413086 -218.49169922 1482.02539062 C-215.76802033 1488.89888069 -212.45063189 1495.46625915 -209 1502 C-207.329375 1501.690625 -207.329375 1501.690625 -205.625 1501.375 C-204.42875 1501.25125 -203.2325 1501.1275 -202 1501 C-200 1503 -200 1503 -199.6875 1506.8125 C-199.81256449 1510.62696692 -200.25302078 1513.16440854 -203 1516 C-206.375 1516.6875 -206.375 1516.6875 -210 1516 C-220.92362167 1505.04008723 -228.31395558 1486.84009707 -232 1472 C-232.21205078 1471.17048828 -232.42410156 1470.34097656 -232.64257812 1469.48632812 C-235.48640049 1458.07052838 -237.32153571 1446.75645305 -238.07421875 1435.015625 C-238.1554599 1433.80640884 -238.23670105 1432.59719269 -238.32040405 1431.35133362 C-239.19001754 1417.88938013 -239.71869179 1404.4205035 -240.125 1390.9375 C-240.14582767 1390.2651104 -240.16665535 1389.59272079 -240.18811417 1388.89995575 C-241.0053545 1362.46570837 -241.18845897 1336.03567464 -241.18758392 1309.58992386 C-241.18750139 1306.67395163 -241.18886049 1303.75798234 -241.19024658 1300.8420105 C-241.19342549 1281.6397852 -241.07726922 1262.44591286 -240.55859375 1243.25 C-240.5398287 1242.52869526 -240.52106365 1241.80739052 -240.50172997 1241.06422806 C-239.70553562 1211.36054348 -235.48405513 1182.1592427 -231.25892639 1152.78744507 C-228.11325408 1130.90499151 -225.31383067 1109.08028361 -224 1087 C-223.90923794 1085.57191566 -223.81807377 1084.14385684 -223.7265625 1082.71582031 C-221.5680754 1048.49404268 -221.7845044 1014.27137464 -222 980 C-222.47046753 980.33536774 -222.94093506 980.67073547 -223.42565918 981.01626587 C-225.60505747 982.56783817 -227.78688654 984.11595892 -229.96875 985.6640625 C-230.70834961 986.19136963 -231.44794922 986.71867676 -232.20996094 987.26196289 C-243.97334098 995.59756062 -256.40110366 1002.70373242 -269 1009.6875 C-288.43069792 1020.47706399 -307.15331946 1032.2943924 -325.58178711 1044.70117188 C-331.46902666 1048.66284824 -337.38182421 1052.55026524 -343.4375 1056.25 C-352.03458152 1061.52254406 -360.22398748 1067.36425671 -368.44873047 1073.19433594 C-372.55909536 1076.10345161 -376.68585031 1078.9890531 -380.8125 1081.875 C-381.62799316 1082.44557129 -382.44348633 1083.01614258 -383.28369141 1083.60400391 C-384.97200308 1084.78506646 -386.66048267 1085.96588903 -388.34912109 1087.14648438 C-390.17529504 1088.42335973 -392.00112103 1089.70073284 -393.82666016 1090.97851562 C-405.8568062 1099.39538118 -417.92605167 1107.73787501 -430.19580078 1115.80273438 C-431.38930246 1116.59474145 -432.57540496 1117.39802449 -433.75341797 1118.21289062 C-437.79619089 1121 -437.79619089 1121 -440 1121 C-439.99777939 1122.30510529 -439.99555878 1123.61021057 -439.99327087 1124.9548645 C-439.78286322 1252.79411188 -439.78286322 1252.79411188 -440.95162201 1314.44628143 C-441.00244833 1317.12923929 -441.05264796 1319.81220851 -441.10284424 1322.49517822 C-441.34315693 1335.26960241 -441.60277092 1348.04354942 -441.87653351 1360.81729889 C-441.93607173 1363.62025949 -441.99384589 1366.42325145 -442.0512085 1369.22625732 C-442.75755893 1403.38599737 -444.47920914 1437.26742423 -447.97363281 1471.26708984 C-449.15410248 1482.84733107 -450.21328349 1494.35949835 -450.2734375 1506.0078125 C-450.28122223 1506.89217987 -450.28900696 1507.77654724 -450.29702759 1508.68771362 C-450.46753659 1513.32502006 -450.46753659 1513.32502006 -448 1517 C-447.64826148 1520.79877599 -447.47298556 1523.14360153 -449.5 1526.4375 C-450.2425 1527.2109375 -450.2425 1527.2109375 -451 1528 C-454.08279091 1527.75004398 -455.56577494 1527.49301562 -457.64453125 1525.1328125 C-459.66045377 1520.47353335 -459.35969588 1516.09083782 -459.375 1511.0625 C-459.68870787 1494.24982669 -461.41829235 1477.58356738 -463.09716797 1460.86157227 C-466.01607083 1431.38905009 -467.30434862 1401.86947569 -467.94504547 1372.26904297 C-468.00113716 1369.69787422 -468.05968556 1367.12676977 -468.11859131 1364.55566406 C-469.7981395 1290.38655617 -470.23503136 1216.18290039 -471 1142 C-474.90701373 1144.28923586 -478.81389244 1146.57870196 -482.72065735 1148.86836243 C-484.04388468 1149.64383347 -485.36714603 1150.41924646 -486.69044495 1151.19459534 C-494.29278577 1155.6490257 -501.89116964 1160.10983125 -509.47705078 1164.59225464 C-526.51230704 1174.61842054 -543.84531618 1183.97223282 -561.546875 1192.76171875 C-562.58352295 1193.27700134 -563.6201709 1193.79228394 -564.68823242 1194.32318115 C-569.89172638 1196.90725566 -575.10036418 1199.48000243 -580.31835938 1202.03466797 C-593.94343856 1208.74361425 -607.03110246 1216.10207497 -620 1224 C-621.18158359 1224.71159962 -622.36363457 1225.42242442 -623.54638672 1226.13208008 C-626.14483473 1227.69789066 -628.7311564 1229.28120777 -631.3125 1230.875 C-632.13943359 1231.37773438 -632.96636719 1231.88046875 -633.81835938 1232.3984375 C-646.91015329 1240.47394216 -656.80640306 1248.73139373 -660.53991693 1264.24322146 C-661.06281852 1267.37640319 -661.12410309 1270.32560664 -661.12304783 1273.50298786 C-661.12420167 1274.14527396 -661.12535552 1274.78756006 -661.12654433 1275.44930938 C-661.12919374 1277.60411588 -661.12470263 1279.75884784 -661.12025452 1281.91365051 C-661.12069056 1283.4730157 -661.12156608 1285.03238083 -661.12284368 1286.59174556 C-661.12508212 1290.87885149 -661.12107623 1295.16593248 -661.11606562 1299.45303524 C-661.111752 1304.07534909 -661.1132082 1308.69766151 -661.1139679 1313.31997681 C-661.11449255 1321.329159 -661.11135184 1329.33833305 -661.10573006 1337.3475132 C-661.09760716 1348.92748056 -661.09499902 1360.50744397 -661.09374207 1372.08741387 C-661.09155279 1390.87460301 -661.08489607 1409.66178782 -661.07543945 1428.44897461 C-661.06626212 1446.70027647 -661.05918286 1464.95157716 -661.05493164 1483.20288086 C-661.05466892 1484.32766457 -661.05440619 1485.45244829 -661.05413551 1486.61131636 C-661.05283048 1492.25395804 -661.05156677 1497.89659974 -661.05032361 1503.53924143 C-661.03995487 1550.35949729 -661.02233992 1597.17974842 -661 1644 C-659.68 1644.66 -658.36 1645.32 -657 1646 C-657.875 1650.875 -657.875 1650.875 -659 1652 C-665.26966292 1651.53558052 -665.26966292 1651.53558052 -667.875 1649.625 C-669.85657426 1646.76272606 -670.12886449 1644.18420255 -670.15821838 1640.81362915 C-670.1680072 1639.95842178 -670.17779602 1639.10321442 -670.18788147 1638.22209167 C-670.19363693 1637.28464615 -670.1993924 1636.34720062 -670.20532227 1635.38134766 C-670.22017166 1633.89371162 -670.22017166 1633.89371162 -670.23532104 1632.37602234 C-670.26716162 1629.05539368 -670.29188535 1625.73475272 -670.31640625 1622.4140625 C-670.33705915 1620.05015775 -670.35805721 1617.68625599 -670.37937927 1615.32235718 C-670.42353339 1610.30997707 -670.46433931 1605.29758409 -670.50268555 1600.28515625 C-670.55019217 1594.09094038 -670.60419143 1587.8968062 -670.66065216 1581.70266628 C-670.97304283 1547.15883981 -671.05647222 1512.61669238 -671.0147047 1478.07177067 C-671.00422637 1469.18675844 -670.99874468 1460.30176693 -670.99990845 1451.41674805 C-671.00271981 1427.59085819 -670.98364343 1403.76522916 -670.91971302 1379.93941498 C-670.88996127 1368.58154802 -670.87205386 1357.22387528 -670.87988281 1345.8659668 C-670.88682699 1335.74577835 -670.87275498 1325.6258726 -670.83356392 1315.50575382 C-670.8137483 1310.21098292 -670.80379118 1304.91665687 -670.81957626 1299.62186241 C-670.83397807 1294.69017281 -670.8200284 1289.75934722 -670.78504753 1284.82776833 C-670.77715808 1283.03644469 -670.77920352 1281.24504147 -670.79260826 1279.45375061 C-670.89279164 1264.82330338 -668.64254685 1249.99561712 -658 1239 C-657.43539063 1238.39671875 -656.87078125 1237.7934375 -656.2890625 1237.171875 C-644.19257121 1225.41006924 -627.82029011 1217.68009408 -613.32092285 1209.25393677 C-606.59398917 1205.34245329 -599.89758001 1201.43907785 -593.5 1197 C-586.58942323 1192.20887476 -579.32933101 1188.03137603 -572.0625 1183.8125 C-561.82041393 1177.86497975 -551.69797866 1171.77215045 -541.67797852 1165.4543457 C-534.99018122 1161.23791903 -528.26279546 1157.09499879 -521.5 1153 C-512.50851616 1147.55253696 -503.57680488 1142.01550807 -494.68164062 1136.41210938 C-493.76576172 1135.83654297 -492.84988281 1135.26097656 -491.90625 1134.66796875 C-490.98448975 1134.05598633 -490.06272949 1133.44400391 -489.11303711 1132.81347656 C-486.64442475 1131.37540483 -484.63319284 1130.46617817 -481.98266602 1129.53808594 C-477.53648135 1127.80452659 -473.77311963 1126.0132345 -471 1122 C-468.47637018 1113.67651645 -469.4493031 1104.55678817 -469.84941101 1095.97162247 C-469.99941921 1092.40124942 -470.06251655 1088.82921619 -470.13574219 1085.2565918 C-470.27057631 1079.2108079 -470.45775698 1073.16861915 -470.68115234 1067.12548828 C-470.976048 1059.10983451 -471.16767464 1051.09502157 -471.32213402 1043.07557297 C-471.94989807 1010.87316582 -473.26768609 978.69475044 -474.75306702 946.52178574 C-474.87060728 943.9703523 -474.9866195 941.41885313 -475.10241699 938.86734009 C-477.76939718 880.52218273 -482.41581633 822.38301997 -487.62958944 764.22039068 C-488.21214349 757.71453102 -488.78727433 751.20804427 -489.35839844 744.70117188 C-492.9141247 704.20161477 -496.55731264 663.75301542 -501.69338608 623.41685295 C-502.20327616 619.39769644 -502.70069665 615.37699465 -503.19946289 611.35644531 C-503.84033064 606.19576651 -504.4933759 601.0367992 -505.15625 595.87890625 C-505.70129668 591.55737933 -506.18659491 587.23896962 -506.59375 582.90234375 C-508.51125876 563.06393661 -512.58694225 543.64822559 -516.59117126 524.14256287 C-518.67563556 513.90526723 -519.30873864 504.10415777 -519.4050293 493.68823242 C-519.42647969 491.95365329 -519.46042633 490.2191785 -519.50756836 488.48510742 C-520.30504311 458.75717837 -502.82950299 437.31798712 -486.6875 413.625 C-485.39326192 411.71819009 -484.09940126 409.81112397 -482.8059082 407.90380859 C-480.30429635 404.21657988 -477.79975847 400.53136635 -475.29296875 396.84765625 C-472.62814362 392.92919679 -469.98016189 389.00012438 -467.34375 385.0625 C-460.22170834 374.44956503 -452.72593852 364.2104032 -444.91015625 354.09765625 C-441.14084508 349.21288925 -437.50240679 344.24049114 -433.875 339.25 C-427.73626915 330.84112665 -421.21624199 322.80028135 -414.52636719 314.82617188 C-412.43151308 312.3198525 -410.3717584 309.78559931 -408.3125 307.25 C-400.26118658 297.41281299 -392.02601413 287.80286748 -383.375 278.48828125 C-381.99072394 276.98995971 -380.61869273 275.481311 -379.25 273.96875 C-373.8008218 267.95619693 -368.216517 262.14219554 -362.41015625 256.47265625 C-360.00105384 254.10017875 -360.00105384 254.10017875 -358.18359375 251.62109375 C-356.33463716 249.40168432 -354.58654159 247.70726824 -352.40625 245.84375 C-347.15098161 241.34757593 -342.35269307 236.42231564 -337.5 231.5 C-332.08954632 226.01192145 -326.69229871 220.60116242 -320.83642578 215.58691406 C-317.86931508 213.02293912 -315.03943221 210.315471 -312.1875 207.625 C-307.14434182 202.90126891 -301.97309024 198.43165709 -296.578125 194.109375 C-293.9757371 191.98014854 -291.48424498 189.76550643 -289 187.5 C-283.8249007 182.79536428 -278.43858803 178.39481861 -273 174 C-271.78057483 173.00082343 -270.56186423 172.00077435 -269.34375 171 C-261.83137452 164.84011491 -254.23494078 158.81557008 -246.49316406 152.94628906 C-242.83400498 150.17157915 -239.19498091 147.37699268 -235.59375 144.52734375 C-228.2868748 138.74852935 -220.92332544 133.14516803 -213.20703125 127.921875 C-212.39282211 127.36796082 -211.57861298 126.81404663 -210.73973083 126.24334717 C-208.16221766 124.49199846 -205.58156527 122.74536922 -203 121 C-202.1689978 120.43740479 -201.33799561 119.87480957 -200.48181152 119.29516602 C-178.31510173 104.29803355 -156.06453264 89.58389436 -133 76 C-131.46539649 75.08328451 -129.93146928 74.16543524 -128.3984375 73.24609375 C-120.20920573 68.35575528 -111.89636891 63.70126845 -103.5625 59.0625 C-87.5302772 50.12140628 -72.41131408 40.89966353 -57.9296875 29.60546875 C-50.25792954 23.78065824 -42.22344187 19.38771926 -33.55541992 15.20043945 C-26.00125625 11.5509376 -18.68000329 7.57857498 -11.43310547 3.35180664 C-10.6598291 2.91215576 -9.88655273 2.47250488 -9.08984375 2.01953125 C-8.41816162 1.62870361 -7.74647949 1.23787598 -7.05444336 0.83520508 C-4.53439925 -0.18928344 -2.6966745 -0.28592252 0 0 Z " fill="#920BC7" transform="translate(1163,3)"/>
</svg>
