<svg id="svg" version="1.1" xmlns="http://www.w3.org/2000/svg" xmlns:xlink="http://www.w3.org/1999/xlink" width="400" height="400" viewBox="0, 0, 400,400"><g id="svgg"><path id="path0" d="M265.800 30.379 C 265.169 30.634,265.413 30.766,266.958 31.005 L 268.917 31.308 267.958 32.040 C 267.431 32.443,266.460 32.976,265.800 33.225 C 265.140 33.474,263.479 34.200,262.108 34.839 C 260.738 35.478,259.517 36.000,259.395 36.000 C 258.977 36.000,251.000 40.920,250.867 41.260 C 250.793 41.447,250.523 41.601,250.267 41.603 C 250.010 41.604,248.545 42.414,247.012 43.403 C 245.479 44.391,244.074 45.200,243.891 45.200 C 243.707 45.200,242.317 46.010,240.800 47.000 C 239.283 47.990,237.881 48.800,237.683 48.800 C 237.484 48.800,235.835 49.796,234.016 51.013 C 232.197 52.230,229.708 53.783,228.485 54.464 C 227.261 55.145,225.415 56.309,224.382 57.051 C 223.349 57.793,222.310 58.400,222.072 58.400 C 221.834 58.400,221.496 58.650,221.320 58.956 C 221.144 59.261,220.331 59.885,219.514 60.341 C 218.061 61.152,214.153 63.880,211.845 65.693 C 211.210 66.192,210.490 66.671,210.245 66.758 C 209.083 67.170,197.778 76.436,194.334 79.798 C 192.868 81.229,191.502 82.400,191.298 82.400 C 191.094 82.400,189.773 83.615,188.363 85.100 C 186.954 86.584,185.170 88.308,184.400 88.929 C 173.790 97.494,164.123 109.769,165.858 112.474 C 166.044 112.763,166.467 114.337,166.798 115.971 C 167.350 118.697,167.499 118.975,168.593 119.335 C 169.249 119.552,170.027 119.969,170.321 120.264 C 170.615 120.558,171.293 120.909,171.828 121.043 C 172.363 121.177,172.800 121.447,172.800 121.643 C 172.800 121.840,173.089 122.000,173.443 122.000 C 173.835 122.000,174.000 122.222,173.867 122.571 C 173.746 122.885,173.907 123.357,174.224 123.620 C 174.943 124.217,174.979 123.662,174.366 121.452 C 174.059 120.346,174.059 119.781,174.368 119.472 C 174.606 119.234,174.800 118.645,174.800 118.162 C 174.800 117.246,194.872 96.800,195.770 96.800 C 196.015 96.800,198.098 94.910,200.400 92.600 C 202.702 90.290,204.800 88.400,205.061 88.400 C 205.322 88.400,206.315 87.593,207.268 86.607 C 208.221 85.620,209.282 84.810,209.626 84.807 C 209.971 84.803,210.811 84.170,211.492 83.400 C 212.174 82.630,212.982 82.000,213.287 82.000 C 213.593 82.000,214.454 81.370,215.200 80.600 C 215.946 79.830,216.764 79.200,217.016 79.200 C 217.269 79.200,217.802 78.840,218.200 78.400 C 218.598 77.960,219.237 77.600,219.619 77.600 C 220.002 77.600,220.421 77.322,220.552 76.982 C 220.682 76.642,221.421 76.100,222.194 75.777 C 222.967 75.454,223.823 74.832,224.096 74.395 C 224.369 73.958,224.881 73.600,225.234 73.600 C 225.587 73.600,226.202 73.240,226.600 72.800 C 226.998 72.360,227.635 72.000,228.016 72.000 C 228.397 72.000,229.003 71.550,229.363 71.000 C 229.724 70.450,230.352 70.000,230.760 70.000 C 231.168 70.000,231.742 69.711,232.035 69.358 C 232.327 69.005,232.935 68.548,233.384 68.341 C 235.009 67.594,236.135 66.849,237.356 65.714 C 238.040 65.079,239.230 64.314,240.000 64.014 C 240.770 63.715,241.772 63.140,242.226 62.735 C 242.680 62.331,243.423 62.000,243.877 62.000 C 244.331 62.000,244.943 61.710,245.237 61.355 C 245.532 61.000,246.684 60.293,247.799 59.784 C 248.913 59.274,250.162 58.484,250.574 58.028 C 250.987 57.573,251.574 57.200,251.880 57.200 C 252.186 57.200,252.842 56.795,253.337 56.300 C 253.833 55.805,254.679 55.169,255.219 54.888 C 255.759 54.606,257.100 53.847,258.200 53.201 C 259.300 52.556,260.650 51.830,261.200 51.589 C 261.750 51.348,262.723 50.892,263.361 50.575 C 264.000 50.259,264.833 50.000,265.212 50.000 C 265.592 50.000,266.126 49.730,266.400 49.400 C 266.674 49.070,267.191 48.800,267.549 48.799 C 269.243 48.798,272.800 44.255,272.800 42.093 C 272.800 40.968,272.980 39.936,273.200 39.800 C 273.420 39.664,273.606 38.708,273.613 37.676 C 273.620 36.644,273.890 35.451,274.213 35.024 C 276.172 32.434,269.642 28.829,265.800 30.379 M271.000 32.000 C 270.864 32.220,270.403 32.400,269.976 32.400 C 269.549 32.400,269.200 32.220,269.200 32.000 C 269.200 31.780,269.661 31.600,270.224 31.600 C 270.804 31.600,271.140 31.773,271.000 32.000 M155.424 124.487 C 155.052 125.339,155.666 127.289,156.381 127.527 C 156.739 127.646,156.803 127.529,156.579 127.165 C 156.396 126.869,156.128 125.991,155.984 125.214 C 155.785 124.134,155.652 123.962,155.424 124.487 M174.889 125.831 C 174.842 126.397,175.073 127.130,175.402 127.459 C 175.731 127.788,176.000 128.434,176.000 128.895 C 176.000 129.356,176.103 129.630,176.229 129.504 C 176.498 129.236,175.524 124.800,175.196 124.800 C 175.074 124.800,174.936 125.264,174.889 125.831 M178.352 137.913 C 178.221 138.707,178.279 139.081,178.501 138.859 C 178.703 138.657,178.801 138.067,178.719 137.546 C 178.593 136.745,178.537 136.802,178.352 137.913 M174.635 148.306 C 174.783 149.128,175.070 150.009,175.272 150.265 C 175.475 150.521,176.210 154.931,176.907 160.065 C 177.603 165.199,178.283 169.490,178.416 169.600 C 178.882 169.983,181.200 188.888,181.200 192.299 C 181.200 193.235,181.350 194.000,181.533 194.000 C 181.930 194.000,183.069 209.418,183.597 221.954 C 183.805 226.879,184.066 230.999,184.178 231.111 C 184.449 231.382,185.600 230.408,185.600 229.907 C 185.600 229.690,186.500 228.274,187.600 226.762 C 188.700 225.250,189.600 223.911,189.600 223.787 C 189.600 223.592,190.683 222.550,192.274 221.214 C 192.610 220.933,192.639 220.434,192.374 219.511 C 192.168 218.793,192.000 217.450,192.000 216.526 C 192.000 215.603,191.820 214.736,191.600 214.600 C 191.380 214.464,191.200 213.446,191.200 212.337 C 191.200 211.228,190.936 209.754,190.613 209.060 C 190.212 208.201,189.973 205.957,189.862 202.000 C 189.673 195.337,189.012 188.037,188.412 186.003 C 188.185 185.234,188.000 183.749,188.000 182.703 C 188.000 181.656,187.836 180.800,187.635 180.800 C 187.434 180.800,187.169 180.125,187.046 179.300 C 186.922 178.475,186.468 175.550,186.037 172.800 C 185.605 170.050,185.136 166.585,184.994 165.100 C 184.852 163.615,184.571 162.400,184.368 162.400 C 184.166 162.400,184.000 161.937,184.000 161.372 C 184.000 160.389,183.427 157.137,182.037 150.233 C 181.482 147.472,180.533 145.668,180.533 147.371 C 180.533 147.698,180.728 147.848,180.967 147.706 C 181.205 147.563,181.170 147.730,180.890 148.077 C 180.470 148.595,180.488 148.748,180.990 148.941 C 181.325 149.070,181.600 149.338,181.600 149.538 C 181.600 149.926,176.353 148.150,176.007 147.644 C 175.206 146.474,174.377 146.874,174.635 148.306 M237.776 191.821 C 237.030 192.417,237.039 192.431,238.000 192.176 C 239.234 191.848,240.002 191.200,239.156 191.200 C 238.825 191.200,238.204 191.479,237.776 191.821 M238.594 201.225 C 238.453 201.869,238.113 202.531,237.839 202.698 C 237.564 202.864,237.211 203.270,237.054 203.600 C 236.897 203.930,236.508 204.650,236.190 205.200 C 235.789 205.893,235.669 206.937,235.800 208.600 C 235.904 209.920,236.190 214.330,236.435 218.400 C 236.695 222.703,237.074 226.036,237.341 226.363 C 237.676 226.774,237.768 232.124,237.681 246.163 C 237.609 257.699,237.807 273.006,238.175 284.400 C 238.512 294.850,238.863 305.740,238.953 308.600 C 239.166 315.313,239.056 315.098,242.435 315.431 C 243.956 315.581,245.200 315.815,245.200 315.952 C 245.200 316.088,245.659 316.200,246.221 316.200 C 247.046 316.200,247.200 316.047,247.026 315.400 C 246.908 314.960,246.808 310.338,246.805 305.129 C 246.801 297.808,246.680 295.537,246.270 295.127 C 245.453 294.310,244.751 270.019,244.885 247.161 C 244.967 233.054,244.873 227.567,244.543 227.161 C 244.290 226.850,243.891 223.680,243.647 220.053 C 243.175 213.028,243.136 213.301,245.237 209.062 C 246.188 207.145,246.263 202.684,245.369 201.200 C 244.813 200.276,244.785 200.269,245.010 201.100 C 245.329 202.278,244.724 202.265,241.435 201.028 L 238.851 200.055 238.594 201.225 M230.577 208.669 C 229.490 209.245,227.973 210.141,227.207 210.659 C 226.441 211.176,225.611 211.600,225.363 211.600 C 225.115 211.600,224.302 212.014,223.556 212.519 C 222.810 213.025,221.390 213.872,220.400 214.402 C 219.410 214.933,217.325 216.139,215.766 217.083 C 214.208 218.027,212.723 218.800,212.466 218.800 C 212.210 218.800,212.000 218.989,212.000 219.220 C 212.000 219.452,211.415 219.890,210.700 220.195 C 209.985 220.500,208.169 221.563,206.665 222.559 C 205.160 223.554,203.585 224.478,203.165 224.611 C 202.744 224.745,202.400 225.026,202.400 225.237 C 202.400 225.447,201.951 225.791,201.402 225.999 C 200.853 226.208,199.076 227.283,197.454 228.389 C 195.831 229.495,194.407 230.400,194.289 230.400 C 194.171 230.400,192.843 231.210,191.337 232.199 C 189.832 233.189,188.375 233.999,188.100 233.999 C 187.825 234.000,187.600 234.167,187.600 234.370 C 187.600 234.574,186.844 235.159,185.920 235.670 L 184.240 236.600 184.345 272.200 C 184.432 301.748,184.340 309.348,183.804 316.904 C 183.125 326.463,183.148 326.800,184.477 326.800 C 184.934 326.800,185.997 327.007,186.841 327.260 C 188.014 327.611,188.510 327.607,188.952 327.240 C 189.345 326.914,189.611 326.895,189.788 327.181 C 189.931 327.411,190.467 327.600,190.981 327.600 C 192.057 327.600,192.683 328.717,191.797 329.056 C 191.473 329.181,189.586 329.122,187.604 328.926 L 184.000 328.570 184.000 329.497 C 184.000 330.008,183.751 330.521,183.447 330.637 C 183.035 330.795,182.821 332.215,182.608 336.186 C 182.317 341.619,181.686 342.992,180.121 341.595 C 179.555 341.091,177.200 340.430,177.200 340.775 C 177.200 340.959,177.822 341.404,178.583 341.765 C 179.344 342.126,180.074 342.597,180.207 342.811 C 180.524 343.324,184.282 343.315,184.600 342.800 C 184.736 342.580,185.202 342.400,185.636 342.400 C 186.070 342.400,186.529 342.130,186.655 341.800 C 186.782 341.470,187.212 341.200,187.611 341.200 C 188.597 341.200,192.245 337.033,192.631 335.465 C 192.803 334.769,192.956 329.716,192.972 324.235 C 192.993 316.641,193.119 314.230,193.500 314.102 C 194.305 313.830,194.222 263.257,193.416 262.644 C 192.811 262.185,192.377 247.490,192.951 246.916 C 193.088 246.779,193.200 246.312,193.200 245.879 C 193.200 245.446,193.695 244.623,194.300 244.051 C 195.349 243.058,196.077 242.583,198.458 241.337 C 199.040 241.033,199.734 240.521,200.000 240.200 C 200.574 239.509,202.700 238.400,203.452 238.400 C 203.743 238.400,204.276 237.950,204.637 237.400 C 204.997 236.850,205.603 236.400,205.984 236.400 C 206.365 236.400,207.002 236.040,207.400 235.600 C 207.798 235.160,208.338 234.800,208.600 234.800 C 208.862 234.800,209.403 234.439,209.803 233.997 C 210.608 233.107,212.631 232.000,213.452 232.000 C 213.743 232.000,214.276 231.550,214.637 231.000 C 214.997 230.450,215.514 230.000,215.785 230.000 C 216.520 230.000,218.644 228.870,219.226 228.169 C 220.085 227.134,222.484 226.288,222.855 226.889 C 223.236 227.505,224.367 226.196,224.387 225.116 C 224.394 224.740,225.602 222.130,227.071 219.316 C 230.798 212.176,232.865 207.932,232.697 207.764 C 232.619 207.685,231.665 208.093,230.577 208.669 M223.067 231.867 C 222.648 232.285,222.755 235.125,223.200 235.400 C 223.447 235.552,223.600 234.871,223.600 233.624 C 223.600 231.572,223.544 231.389,223.067 231.867 M166.828 234.966 C 166.196 235.728,166.385 236.104,167.160 235.625 C 167.456 235.442,167.624 235.072,167.534 234.802 C 167.418 234.454,167.214 234.501,166.828 234.966 M189.926 242.198 C 191.748 243.930,192.471 244.873,192.195 245.155 C 191.919 245.438,190.783 244.478,188.615 242.128 C 185.054 238.268,185.837 238.311,189.926 242.198 M173.821 242.518 C 172.953 243.003,171.995 243.625,171.692 243.900 C 171.390 244.175,170.962 244.400,170.741 244.400 C 170.520 244.400,169.138 245.095,167.670 245.945 C 166.201 246.795,163.830 248.005,162.400 248.634 C 160.970 249.263,159.744 249.906,159.675 250.063 C 159.606 250.220,158.256 250.840,156.675 251.439 C 155.094 252.039,153.710 252.648,153.600 252.792 C 153.490 252.936,151.600 253.914,149.400 254.964 C 147.200 256.014,144.590 257.262,143.600 257.736 C 142.610 258.211,141.291 259.005,140.669 259.500 C 140.047 259.995,139.340 260.400,139.097 260.400 C 138.114 260.400,133.607 263.747,132.565 265.251 L 131.450 266.860 131.140 277.330 C 130.442 300.959,129.995 358.549,130.507 358.875 C 131.237 359.338,136.800 359.272,136.800 358.800 C 136.800 358.217,139.498 358.309,139.726 358.900 C 139.832 359.175,139.820 357.459,139.699 355.088 C 139.548 352.148,139.628 350.493,139.950 349.888 C 140.305 349.220,140.395 339.867,140.311 312.100 C 140.250 291.805,140.335 275.200,140.500 275.200 C 140.665 275.200,140.800 274.570,140.800 273.800 C 140.800 272.672,140.954 272.400,141.591 272.400 C 142.026 272.400,142.676 271.950,143.037 271.400 C 143.397 270.850,144.021 270.400,144.422 270.400 C 144.824 270.400,145.264 270.220,145.400 270.000 C 145.536 269.780,146.095 269.600,146.642 269.600 C 147.189 269.600,148.086 269.150,148.636 268.600 C 149.186 268.050,149.723 267.600,149.830 267.600 C 150.025 267.600,155.291 265.067,156.400 264.439 C 158.492 263.255,160.611 262.400,161.450 262.400 C 161.986 262.400,162.529 262.130,162.655 261.800 C 162.782 261.470,163.131 261.200,163.431 261.200 C 163.730 261.200,164.631 260.832,165.431 260.383 C 166.824 259.600,166.910 259.596,167.430 260.283 C 167.922 260.931,167.976 260.863,167.987 259.576 C 168.001 258.079,170.239 253.102,171.862 250.962 C 172.378 250.281,172.800 249.434,172.800 249.079 C 172.800 248.725,173.611 246.897,174.602 245.017 C 176.519 241.383,176.420 241.066,173.821 242.518 M222.814 244.374 C 222.304 245.326,222.267 247.600,222.761 247.600 C 222.960 247.600,223.185 246.700,223.261 245.600 C 223.417 243.353,223.394 243.290,222.814 244.374 M222.000 252.400 C 221.234 253.830,220.958 257.747,221.638 257.522 C 222.013 257.398,222.283 256.416,222.449 254.568 C 222.729 251.459,222.666 251.156,222.000 252.400 M221.484 275.486 C 221.311 275.753,221.353 278.903,221.577 282.486 C 221.801 286.069,222.265 293.590,222.609 299.200 C 222.952 304.810,223.402 310.030,223.609 310.800 C 223.898 311.878,223.942 311.465,223.798 309.000 C 223.538 304.539,222.806 292.073,222.259 282.800 C 222.006 278.510,221.657 275.219,221.484 275.486 M247.508 317.910 C 247.312 318.656,246.995 318.801,245.537 318.805 C 244.582 318.808,243.407 318.916,242.928 319.045 C 241.707 319.372,242.212 320.400,243.594 320.400 C 244.203 320.400,244.929 320.674,245.207 321.009 C 245.654 321.546,245.778 321.523,246.277 320.812 C 247.179 319.524,248.335 319.056,249.126 319.660 C 249.515 319.958,249.442 319.759,248.951 319.188 C 248.484 318.645,248.020 317.935,247.921 317.610 C 247.795 317.200,247.669 317.292,247.508 317.910 M253.232 325.314 C 253.203 325.966,252.884 326.005,249.600 325.757 L 246.000 325.485 246.000 326.743 C 246.000 327.571,245.803 328.000,245.424 328.000 C 244.559 328.000,244.503 328.219,243.985 333.610 C 243.722 336.354,243.332 338.710,243.120 338.844 C 242.499 339.237,243.905 339.600,246.045 339.600 C 247.493 339.600,248.091 339.428,248.271 338.958 C 248.462 338.463,248.859 338.371,250.017 338.556 C 251.139 338.736,251.574 338.646,251.745 338.198 C 251.872 337.869,252.237 337.600,252.556 337.600 C 253.964 337.600,254.910 328.321,253.767 325.734 C 253.421 324.952,253.255 324.822,253.232 325.314 M230.200 329.612 C 231.274 330.938,232.000 332.273,232.000 332.921 C 232.000 333.357,234.576 336.000,235.001 336.000 C 235.383 336.000,234.595 334.300,234.022 333.888 C 233.649 333.619,233.066 332.860,232.726 332.200 C 231.275 329.378,230.805 328.633,230.802 329.149 C 230.800 329.610,230.687 329.612,230.100 329.161 C 229.559 328.746,229.582 328.849,230.200 329.612 M173.200 337.307 C 173.200 337.906,174.285 339.050,174.575 338.757 C 174.661 338.671,174.387 338.175,173.966 337.656 C 173.444 337.012,173.200 336.901,173.200 337.307 M238.400 338.400 C 238.950 338.830,239.757 339.186,240.194 339.191 C 240.746 339.197,240.532 338.956,239.496 338.400 C 237.606 337.387,237.105 337.387,238.400 338.400 M129.061 364.300 C 128.920 365.785,128.804 368.294,128.803 369.876 C 128.800 372.699,128.362 373.722,127.516 372.876 C 127.289 372.649,126.880 372.548,126.609 372.652 C 126.338 372.756,125.460 372.454,124.658 371.981 C 122.924 370.958,122.788 371.185,124.296 372.584 C 125.751 373.933,132.946 374.074,135.000 372.793 C 137.486 371.243,138.561 370.800,139.838 370.800 C 140.561 370.800,141.264 370.620,141.400 370.400 C 141.536 370.180,141.893 370.000,142.193 370.000 C 142.493 370.000,143.266 369.472,143.912 368.827 L 145.085 367.653 142.593 366.427 C 141.223 365.752,139.941 365.200,139.745 365.200 C 139.549 365.200,138.708 364.836,137.877 364.390 C 135.681 363.213,131.248 361.600,130.210 361.600 C 129.398 361.600,129.292 361.848,129.061 364.300 M143.738 364.731 C 144.102 365.134,144.400 365.674,144.400 365.931 C 144.400 366.189,144.580 366.400,144.800 366.400 C 145.452 366.400,145.256 365.375,144.469 364.662 C 143.478 363.765,142.912 363.819,143.738 364.731 M119.600 368.424 C 119.600 368.657,119.780 368.736,120.000 368.600 C 120.220 368.464,120.400 368.696,120.400 369.114 C 120.400 369.533,120.729 370.174,121.131 370.538 C 122.347 371.638,122.411 371.289,121.305 369.600 C 120.284 368.040,119.600 367.568,119.600 368.424 " stroke="none" fill="#184030" fill-rule="evenodd"></path><path id="path1" d="M258.800 32.105 C 256.710 32.806,254.820 33.542,254.600 33.739 C 253.779 34.474,239.528 41.477,232.500 44.599 C 231.125 45.210,230.000 45.832,230.000 45.982 C 230.000 46.133,228.650 46.849,227.000 47.574 C 225.350 48.299,224.000 49.029,224.000 49.197 C 224.000 49.364,223.114 49.883,222.031 50.349 C 220.947 50.815,219.822 51.422,219.529 51.698 C 218.822 52.365,216.074 53.936,214.700 54.460 C 214.095 54.690,213.600 55.036,213.600 55.230 C 213.600 55.423,212.925 55.911,212.100 56.315 C 209.898 57.392,208.857 58.070,207.515 59.300 C 206.855 59.905,206.109 60.403,205.858 60.407 C 205.606 60.411,204.976 60.861,204.458 61.407 C 203.940 61.953,203.305 62.400,203.047 62.400 C 202.789 62.400,202.008 62.920,201.312 63.557 C 200.615 64.193,199.135 65.303,198.023 66.024 C 196.910 66.745,196.000 67.460,196.000 67.613 C 196.000 67.766,195.235 68.411,194.300 69.046 C 193.365 69.681,192.272 70.605,191.871 71.100 C 191.470 71.595,190.944 72.000,190.702 72.000 C 190.208 72.000,189.865 72.324,179.800 82.306 C 172.418 89.627,168.500 93.818,167.234 95.749 C 166.838 96.351,166.129 97.114,165.658 97.445 C 165.186 97.775,164.800 98.277,164.800 98.561 C 164.800 98.844,164.440 99.402,164.000 99.800 C 163.560 100.198,163.200 100.653,163.200 100.812 C 163.200 100.970,162.570 101.787,161.800 102.628 C 161.030 103.469,160.400 104.348,160.400 104.582 C 160.400 104.816,160.067 105.215,159.660 105.470 C 159.253 105.724,158.512 106.802,158.014 107.866 C 157.515 108.930,156.903 109.928,156.654 110.085 C 155.903 110.558,156.079 119.818,156.880 122.031 C 157.585 123.976,159.006 131.135,159.414 134.800 C 159.549 136.010,159.818 137.360,160.011 137.800 C 160.382 138.645,161.645 148.530,162.413 156.600 C 162.664 159.240,163.023 161.760,163.210 162.200 C 163.702 163.359,166.400 194.439,166.400 198.951 C 166.400 200.100,166.561 201.211,166.757 201.420 C 167.282 201.979,168.139 223.895,167.814 228.473 C 167.622 231.190,167.669 232.400,167.968 232.400 C 168.206 232.400,168.400 233.019,168.400 233.776 C 168.400 235.524,168.572 235.614,171.978 235.646 C 173.530 235.661,174.800 235.836,174.800 236.036 C 174.800 236.236,174.373 236.400,173.850 236.400 C 173.328 236.400,172.071 236.864,171.056 237.431 L 169.211 238.462 168.105 237.688 C 166.404 236.497,165.910 236.457,164.400 237.392 C 163.630 237.869,162.146 238.606,161.101 239.029 C 160.057 239.453,159.202 239.945,159.201 240.122 C 159.201 240.299,158.210 240.882,157.000 241.417 C 155.790 241.952,154.800 242.529,154.800 242.699 C 154.800 242.869,153.450 243.635,151.800 244.400 C 150.150 245.165,148.800 245.902,148.800 246.037 C 148.800 246.171,147.540 246.862,146.000 247.572 C 144.460 248.282,143.200 248.990,143.200 249.145 C 143.200 249.300,142.075 249.955,140.700 250.599 C 139.325 251.243,138.110 251.889,138.000 252.034 C 137.890 252.178,136.630 252.883,135.200 253.600 C 133.770 254.317,132.510 255.037,132.400 255.200 C 132.290 255.363,131.210 256.010,130.000 256.638 C 127.923 257.714,124.000 261.159,124.000 261.906 C 124.000 262.095,123.685 262.598,123.300 263.025 C 121.226 265.322,120.419 270.007,120.407 279.820 C 120.403 282.911,120.241 285.611,120.047 285.820 C 119.702 286.191,119.053 313.159,118.570 347.179 C 118.341 363.286,118.364 364.128,119.025 363.579 C 120.645 362.233,127.363 360.038,128.031 360.635 C 129.799 362.216,129.794 362.269,129.911 342.899 C 130.245 287.755,130.834 265.921,132.007 265.196 C 132.263 265.037,132.681 264.492,132.936 263.984 C 133.191 263.476,134.184 262.666,135.143 262.184 C 136.102 261.702,137.002 261.149,137.143 260.954 C 137.284 260.759,138.300 260.154,139.400 259.610 C 140.500 259.065,141.493 258.492,141.607 258.337 C 141.909 257.924,146.912 255.601,147.500 255.600 C 147.775 255.600,148.000 255.453,148.000 255.272 C 148.000 255.092,149.395 254.335,151.100 253.589 C 152.805 252.844,154.438 252.001,154.729 251.717 C 155.019 251.433,155.509 251.200,155.818 251.200 C 156.427 251.200,160.075 249.562,160.400 249.142 C 160.510 249.000,161.950 248.287,163.600 247.559 C 165.250 246.830,166.694 246.102,166.808 245.942 C 167.037 245.621,171.804 243.200,172.206 243.200 C 172.891 243.200,173.562 241.933,173.674 240.426 C 173.778 239.039,174.010 238.626,174.995 238.072 C 177.269 236.793,177.253 236.867,177.012 228.400 C 176.620 214.645,175.948 201.424,175.599 200.600 C 175.413 200.160,175.150 197.640,175.016 195.000 C 174.618 187.189,173.632 176.050,173.015 172.400 C 172.698 170.530,171.971 164.230,171.399 158.400 C 170.827 152.570,170.202 147.440,170.012 147.000 C 169.821 146.560,169.282 143.140,168.813 139.400 C 168.345 135.660,167.805 132.240,167.614 131.800 C 167.423 131.360,167.065 129.560,166.818 127.800 C 166.273 123.909,165.598 120.739,165.200 120.200 C 164.281 118.957,164.020 109.861,164.840 107.685 C 165.065 107.088,166.048 105.580,167.025 104.334 C 168.001 103.087,168.800 101.874,168.800 101.637 C 168.800 101.400,169.160 100.982,169.600 100.707 C 170.040 100.432,170.400 100.045,170.400 99.847 C 170.400 98.997,180.076 88.044,186.466 81.661 C 194.066 74.069,204.669 64.927,207.700 63.351 C 208.305 63.037,208.800 62.604,208.800 62.390 C 208.800 62.175,208.995 62.000,209.233 62.000 C 209.470 62.000,211.135 60.955,212.933 59.678 C 214.730 58.400,216.695 57.110,217.300 56.810 C 217.905 56.510,218.400 56.115,218.400 55.932 C 218.400 55.750,218.586 55.600,218.813 55.600 C 219.040 55.600,220.435 54.816,221.913 53.858 C 224.630 52.097,227.747 50.319,231.400 48.447 C 232.500 47.883,233.460 47.282,233.533 47.111 C 233.607 46.940,233.837 46.800,234.046 46.800 C 234.254 46.800,235.667 46.096,237.186 45.235 C 238.704 44.375,240.364 43.539,240.873 43.377 C 241.383 43.215,243.240 42.406,245.000 41.579 C 246.760 40.752,249.190 39.611,250.400 39.044 C 252.851 37.896,257.582 35.372,258.200 34.883 C 258.420 34.709,259.680 34.155,261.000 33.652 C 265.127 32.078,266.050 31.605,265.798 31.196 C 265.346 30.466,262.631 30.818,258.800 32.105 M236.426 192.636 C 235.450 192.942,234.550 193.330,234.426 193.498 C 234.302 193.666,233.175 194.143,231.923 194.559 C 228.876 195.570,225.216 200.136,225.197 202.950 C 225.195 203.197,224.790 203.597,224.297 203.837 C 222.355 204.784,220.600 205.822,220.210 206.255 C 219.985 206.505,218.630 207.218,217.200 207.839 C 215.770 208.460,214.510 209.082,214.400 209.221 C 214.290 209.361,213.212 209.967,212.004 210.569 C 210.796 211.171,209.716 211.795,209.604 211.956 C 209.492 212.117,208.160 212.771,206.645 213.408 C 205.130 214.045,203.690 214.758,203.445 214.993 C 203.200 215.227,201.695 216.037,200.100 216.792 C 198.505 217.547,197.200 218.265,197.200 218.386 C 197.200 218.507,196.215 219.055,195.011 219.603 C 193.807 220.151,192.817 220.813,192.811 221.073 C 192.805 221.333,192.484 221.647,192.097 221.769 C 191.410 221.987,186.800 228.008,186.800 228.687 C 186.800 228.876,186.267 229.653,185.616 230.415 C 183.903 232.419,184.862 233.120,186.636 231.160 C 187.014 230.742,187.490 230.400,187.692 230.400 C 187.894 230.400,189.312 229.590,190.842 228.600 C 192.372 227.611,194.248 226.540,195.012 226.221 C 195.775 225.902,196.400 225.452,196.400 225.220 C 196.400 224.989,196.574 224.800,196.786 224.800 C 196.999 224.800,198.368 224.125,199.829 223.300 C 205.291 220.215,210.813 217.289,221.909 211.600 C 223.411 210.830,225.734 209.525,227.072 208.700 C 228.410 207.875,229.687 207.200,229.910 207.200 C 230.132 207.200,230.419 206.927,230.547 206.594 C 230.675 206.261,231.208 205.825,231.732 205.626 C 232.400 205.372,233.250 204.117,234.574 201.432 C 235.613 199.324,236.597 197.600,236.761 197.600 C 237.013 197.600,239.200 192.752,239.200 192.192 C 239.200 191.894,238.361 192.029,236.426 192.636 M231.031 212.490 C 229.727 215.126,228.463 217.488,228.221 217.741 C 225.635 220.441,223.572 231.338,225.300 233.170 C 225.700 233.594,225.700 233.737,225.300 233.883 C 224.960 234.008,224.800 235.045,224.799 237.133 C 224.798 238.820,224.495 242.990,224.125 246.400 C 222.898 257.705,223.701 300.567,225.207 304.200 C 225.390 304.640,225.647 306.260,225.780 307.800 C 226.139 311.977,226.874 317.073,227.192 317.587 C 227.465 318.029,229.484 317.430,230.000 316.754 C 230.110 316.610,231.533 316.030,233.161 315.465 C 234.790 314.900,236.257 314.294,236.421 314.119 C 236.737 313.782,235.572 303.684,235.139 303.000 C 234.999 302.780,234.762 300.440,234.612 297.800 C 234.463 295.160,234.077 289.670,233.755 285.600 C 232.653 271.649,232.591 256.325,233.590 245.200 C 234.449 235.626,234.491 210.536,233.650 208.349 C 233.481 207.910,232.631 209.255,231.031 212.490 M176.344 242.828 C 175.984 243.582,175.393 244.920,175.031 245.800 L 174.374 247.400 175.178 246.400 L 175.982 245.400 175.991 246.695 C 175.999 247.800,175.795 248.075,174.600 248.574 C 173.830 248.896,173.200 249.374,173.200 249.635 C 173.200 249.897,172.946 250.312,172.636 250.556 C 170.158 252.506,167.052 262.175,168.386 263.783 C 168.755 264.228,168.845 266.519,168.741 272.790 C 168.663 277.416,168.748 281.200,168.929 281.200 C 169.110 281.200,169.216 285.581,169.165 290.935 C 169.115 296.290,169.181 300.846,169.314 301.061 C 169.447 301.275,169.592 303.150,169.637 305.226 C 169.682 307.301,169.846 309.180,170.002 309.400 C 170.425 309.999,171.725 324.710,171.548 326.900 C 171.463 327.945,171.531 328.800,171.697 328.800 C 171.864 328.800,172.000 329.587,172.000 330.550 L 172.000 332.299 176.500 330.359 L 181.000 328.418 181.119 326.001 C 181.185 324.672,180.955 320.933,180.607 317.692 C 180.260 314.452,179.865 310.315,179.729 308.500 C 179.593 306.685,179.321 305.200,179.126 305.200 C 178.926 305.200,178.888 303.653,179.039 301.656 C 179.225 299.186,179.169 298.028,178.853 297.833 C 178.557 297.650,178.402 295.933,178.405 292.876 C 178.409 288.261,177.801 264.935,177.272 249.428 C 177.007 241.655,176.984 241.490,176.344 242.828 " stroke="none" fill="#5ae4ae" fill-rule="evenodd"></path><path id="path2" d="M258.500 35.996 C 256.694 37.097,256.863 37.366,258.700 36.314 C 260.548 35.256,260.623 35.200,260.167 35.201 C 259.965 35.202,259.215 35.560,258.500 35.996 M243.900 44.629 C 242.405 45.440,242.496 45.778,244.000 45.000 C 244.660 44.659,245.200 44.294,245.200 44.190 C 245.200 43.932,245.157 43.947,243.900 44.629 M234.081 50.572 C 232.223 51.885,231.962 52.261,233.531 51.362 C 234.263 50.943,235.050 50.375,235.280 50.100 C 235.871 49.393,235.593 49.502,234.081 50.572 M206.200 69.444 L 204.600 70.876 206.300 69.604 C 207.763 68.510,208.291 67.983,207.900 68.006 C 207.845 68.009,207.080 68.656,206.200 69.444 M178.393 94.300 L 173.800 99.000 178.500 94.407 C 182.866 90.140,183.382 89.600,183.093 89.600 C 183.035 89.600,180.920 91.715,178.393 94.300 M170.549 101.884 C 169.477 103.140,168.809 104.039,169.064 103.883 C 169.623 103.539,172.954 99.600,172.686 99.600 C 172.582 99.600,171.620 100.628,170.549 101.884 M155.600 120.733 C 155.600 121.870,155.742 122.800,155.915 122.800 C 156.088 122.800,156.270 123.385,156.320 124.100 C 156.369 124.815,156.768 127.200,157.205 129.400 C 159.102 138.929,160.635 149.218,161.598 158.882 C 162.065 163.567,162.601 167.760,162.790 168.200 C 163.101 168.925,164.391 182.487,165.054 192.000 C 165.199 194.090,165.448 195.890,165.607 196.000 C 165.840 196.161,166.694 211.173,167.336 226.400 C 167.408 228.112,167.470 227.634,167.517 225.000 C 167.654 217.357,165.741 184.699,165.143 184.467 C 164.954 184.393,164.800 183.626,164.800 182.760 C 164.800 180.048,162.383 155.441,162.034 154.600 C 161.852 154.160,161.204 149.570,160.596 144.400 C 159.987 139.230,159.328 134.793,159.130 134.541 C 158.932 134.288,158.855 133.613,158.958 133.041 C 159.062 132.468,158.979 132.000,158.774 132.000 C 158.568 132.000,158.393 131.595,158.385 131.100 C 158.363 129.748,156.204 119.271,155.881 118.947 C 155.726 118.793,155.600 119.597,155.600 120.733 M167.152 120.087 C 167.337 121.198,167.393 121.255,167.519 120.454 C 167.601 119.933,167.503 119.343,167.301 119.141 C 167.079 118.919,167.021 119.293,167.152 120.087 M167.680 122.200 C 167.680 122.640,167.824 123.450,168.000 124.000 C 168.254 124.792,168.320 124.833,168.320 124.200 C 168.320 123.760,168.176 122.950,168.000 122.400 C 167.746 121.608,167.680 121.567,167.680 122.200 M170.043 130.800 C 170.028 131.130,170.266 132.300,170.572 133.400 C 170.878 134.500,171.141 135.130,171.157 134.800 C 171.172 134.470,170.934 133.300,170.628 132.200 C 170.322 131.100,170.059 130.470,170.043 130.800 M173.260 142.800 C 173.247 143.708,174.179 147.912,174.454 148.188 C 174.733 148.466,174.167 145.181,173.631 143.400 C 173.432 142.740,173.265 142.470,173.260 142.800 M176.446 158.373 C 176.360 159.444,177.298 166.198,177.577 166.507 C 177.823 166.780,177.036 159.913,176.647 158.400 C 176.522 157.914,176.484 157.908,176.446 158.373 M179.790 181.579 C 180.016 183.537,180.296 185.234,180.414 185.350 C 180.724 185.656,179.958 178.655,179.644 178.310 C 179.499 178.151,179.565 179.622,179.790 181.579 M237.817 195.968 C 237.282 197.002,237.280 197.327,237.804 198.810 C 238.129 199.732,238.279 200.691,238.139 200.943 C 237.955 201.270,238.015 201.279,238.349 200.972 C 238.703 200.648,238.670 200.133,238.214 198.840 C 237.679 197.322,237.679 197.008,238.217 195.968 C 238.549 195.326,238.731 194.800,238.621 194.800 C 238.511 194.800,238.149 195.326,237.817 195.968 M182.618 208.200 C 182.713 210.400,182.912 215.672,183.059 219.916 C 183.207 224.159,183.434 227.697,183.564 227.778 C 183.863 227.963,183.311 213.521,182.817 208.200 L 182.445 204.200 182.618 208.200 M235.497 205.550 C 235.238 206.542,235.643 215.580,235.956 215.773 C 236.090 215.856,236.080 213.826,235.933 211.262 C 235.786 208.698,235.761 206.195,235.877 205.700 C 236.129 204.618,235.777 204.479,235.497 205.550 M215.497 216.766 C 213.853 217.819,213.625 218.191,215.075 217.454 C 215.776 217.097,216.461 216.624,216.598 216.403 C 216.919 215.884,216.823 215.915,215.497 216.766 M225.800 221.600 C 225.459 222.260,225.269 222.800,225.379 222.800 C 225.489 222.800,225.859 222.260,226.200 221.600 C 226.541 220.940,226.731 220.400,226.621 220.400 C 226.511 220.400,226.141 220.940,225.800 221.600 M189.375 224.268 C 188.759 225.076,188.459 225.611,188.709 225.456 C 189.221 225.140,190.953 222.800,190.675 222.800 C 190.576 222.800,189.991 223.461,189.375 224.268 M224.475 225.300 C 224.434 225.905,224.220 226.400,224.000 226.400 C 223.747 226.400,223.599 229.302,223.597 234.300 C 223.595 239.060,223.278 245.538,222.800 250.600 C 221.610 263.197,222.158 298.550,223.600 302.200 C 223.774 302.640,224.124 305.803,224.379 309.229 C 224.865 315.762,225.492 318.791,226.436 319.172 C 226.746 319.298,227.062 319.760,227.138 320.200 C 227.214 320.640,227.374 321.090,227.494 321.200 C 227.847 321.524,227.197 317.879,226.820 317.420 C 226.192 316.654,225.223 307.546,224.585 296.400 C 224.239 290.350,223.776 285.073,223.557 284.672 C 222.473 282.694,222.813 247.628,223.934 245.800 C 224.503 244.872,225.029 234.315,224.775 228.947 C 224.651 226.336,224.516 224.695,224.475 225.300 M190.200 232.635 L 189.000 233.666 190.300 232.806 C 191.015 232.333,191.600 231.868,191.600 231.773 C 191.600 231.473,191.431 231.578,190.200 232.635 M167.701 234.200 C 167.705 235.080,167.787 235.393,167.883 234.895 C 167.979 234.398,167.975 233.678,167.875 233.295 C 167.775 232.913,167.696 233.320,167.701 234.200 M175.300 241.396 C 174.585 241.707,174.000 242.066,174.000 242.195 C 174.000 242.323,174.374 242.228,174.831 241.983 C 175.288 241.739,175.904 241.631,176.198 241.744 C 176.493 241.857,176.833 241.691,176.954 241.375 C 177.225 240.670,176.964 240.673,175.300 241.396 M173.265 247.817 C 172.595 249.288,172.723 249.602,173.447 248.265 C 173.786 247.640,173.988 247.054,173.896 246.963 C 173.805 246.871,173.521 247.256,173.265 247.817 M163.100 247.829 C 161.549 248.670,161.725 248.961,163.300 248.159 C 164.808 247.393,165.075 247.194,164.567 247.216 C 164.365 247.225,163.705 247.501,163.100 247.829 M150.700 253.829 C 149.205 254.640,149.296 254.978,150.800 254.200 C 151.460 253.859,152.000 253.494,152.000 253.390 C 152.000 253.132,151.957 253.147,150.700 253.829 M144.500 256.846 C 143.137 257.719,142.695 258.306,143.900 257.643 C 144.818 257.139,146.256 256.027,146.000 256.019 C 145.890 256.016,145.215 256.388,144.500 256.846 M168.000 271.624 C 168.000 276.604,168.139 279.162,168.400 279.000 C 168.643 278.850,168.800 275.863,168.800 271.376 C 168.800 266.725,168.652 264.000,168.400 264.000 C 168.147 264.000,168.000 266.808,168.000 271.624 M130.962 274.600 C 130.962 278.120,131.024 279.506,131.098 277.681 C 131.172 275.856,131.172 272.976,131.097 271.281 C 131.022 269.586,130.961 271.080,130.962 274.600 M130.346 293.700 C 130.317 300.575,130.182 315.056,130.046 325.881 C 129.911 336.705,129.915 345.435,130.056 345.281 C 130.383 344.922,130.965 281.200,130.641 281.200 C 130.509 281.200,130.376 286.825,130.346 293.700 M168.400 290.200 C 168.400 295.667,168.546 298.800,168.800 298.800 C 169.054 298.800,169.200 295.667,169.200 290.200 C 169.200 284.733,169.054 281.600,168.800 281.600 C 168.546 281.600,168.400 284.733,168.400 290.200 M237.909 286.119 C 237.969 287.263,238.166 294.013,238.346 301.117 C 238.543 308.873,238.836 314.196,239.080 314.440 C 239.355 314.715,239.387 314.160,239.179 312.723 C 239.011 311.555,238.754 304.750,238.609 297.600 C 238.464 290.450,238.223 284.473,238.073 284.319 C 237.923 284.164,237.849 284.974,237.909 286.119 M168.911 305.796 C 168.960 308.324,169.135 310.394,169.300 310.396 C 169.465 310.398,169.604 311.255,169.608 312.300 C 169.612 313.345,169.880 316.540,170.204 319.400 C 170.527 322.260,170.818 325.500,170.850 326.600 C 170.904 328.484,170.930 328.429,171.297 325.654 C 171.559 323.671,171.552 322.429,171.275 321.854 C 170.763 320.791,169.584 308.485,169.593 304.300 C 169.597 302.553,169.430 301.200,169.211 301.200 C 168.976 301.200,168.857 303.022,168.911 305.796 M183.447 316.724 C 182.954 317.521,183.010 327.163,183.511 327.667 C 183.926 328.085,183.942 327.953,183.599 326.968 C 183.320 326.170,183.285 324.156,183.496 321.078 C 183.672 318.505,183.778 316.400,183.732 316.400 C 183.685 316.400,183.557 316.546,183.447 316.724 M240.852 319.577 C 241.077 320.224,241.498 320.950,241.787 321.189 C 242.080 321.433,241.960 320.913,241.514 320.012 C 240.576 318.116,240.273 317.917,240.852 319.577 M247.040 321.818 C 245.628 324.980,245.695 325.068,248.551 323.805 C 251.432 322.531,251.698 321.882,249.953 320.390 C 248.208 318.898,248.383 318.812,247.040 321.818 M244.400 323.000 C 243.883 323.550,243.627 323.994,243.830 323.987 C 244.172 323.976,245.821 322.000,245.488 322.000 C 245.406 322.000,244.917 322.450,244.400 323.000 M238.727 330.655 C 236.677 332.599,234.939 334.223,234.863 334.264 C 233.903 334.795,237.415 337.778,238.695 337.519 C 239.018 337.453,240.227 335.330,241.382 332.800 C 243.371 328.445,243.556 328.187,244.842 327.953 C 245.916 327.757,245.991 327.693,245.200 327.647 C 244.650 327.615,243.807 327.484,243.327 327.355 C 242.628 327.167,241.712 327.824,238.727 330.655 M171.200 331.167 C 171.200 333.851,171.580 335.393,171.970 334.292 C 172.316 333.315,171.983 328.800,171.564 328.800 C 171.364 328.800,171.200 329.865,171.200 331.167 M178.071 333.776 C 174.603 337.243,174.222 337.515,173.713 336.888 C 173.209 336.266,173.195 336.281,173.563 337.045 C 174.078 338.117,176.659 340.400,177.354 340.400 C 177.645 340.400,178.831 338.190,180.014 335.441 C 181.470 332.058,182.316 330.546,182.674 330.684 C 182.963 330.795,183.200 330.796,183.200 330.686 C 183.200 329.333,181.473 330.373,178.071 333.776 M137.052 358.716 C 136.944 358.890,137.473 358.961,138.228 358.873 C 138.983 358.785,139.600 358.642,139.600 358.556 C 139.600 358.255,137.245 358.403,137.052 358.716 M129.991 360.177 C 130.361 361.149,130.313 361.200,129.028 361.200 C 127.838 361.200,127.300 361.613,124.564 364.627 C 122.320 367.099,121.249 368.002,120.725 367.865 C 119.701 367.597,121.152 369.626,122.847 370.833 C 124.385 371.928,124.393 371.919,126.514 366.408 C 128.213 361.995,128.335 361.805,129.641 361.529 C 131.148 361.211,133.681 361.739,134.482 362.538 C 134.767 362.823,135.360 363.163,135.800 363.294 C 137.606 363.833,140.742 365.162,142.974 366.336 C 145.037 367.421,146.969 367.798,145.097 366.750 C 144.714 366.536,144.400 366.192,144.400 365.985 C 144.400 365.453,142.265 362.433,141.876 362.415 C 141.698 362.407,141.664 362.580,141.800 362.800 C 141.936 363.020,141.965 363.200,141.863 363.200 C 141.340 363.200,134.581 359.898,134.471 359.588 C 134.400 359.389,133.455 359.562,132.371 359.974 C 130.825 360.562,130.400 360.607,130.400 360.185 C 130.400 359.889,130.221 359.536,130.001 359.401 C 129.737 359.238,129.734 359.501,129.991 360.177 " stroke="none" fill="#368e6d" fill-rule="evenodd"></path><path id="path3" d="M260.976 35.022 C 260.212 35.634,260.213 35.638,261.000 35.276 C 261.440 35.074,262.070 34.808,262.400 34.686 C 262.918 34.493,262.915 34.459,262.376 34.432 C 262.034 34.414,261.404 34.680,260.976 35.022 M254.744 38.424 L 253.800 39.247 255.000 38.545 C 256.579 37.620,256.603 37.600,256.111 37.600 C 255.879 37.600,255.264 37.971,254.744 38.424 M230.300 53.029 C 229.475 53.570,228.800 54.093,228.800 54.192 C 228.800 54.457,231.563 52.783,231.825 52.360 C 232.136 51.857,231.998 51.917,230.300 53.029 M199.600 74.840 L 197.400 76.870 199.700 74.987 C 201.719 73.333,202.268 72.788,201.900 72.804 C 201.845 72.807,200.810 73.723,199.600 74.840 M167.000 106.800 C 166.659 107.460,166.469 108.000,166.579 108.000 C 166.689 108.000,167.059 107.460,167.400 106.800 C 167.741 106.140,167.931 105.600,167.821 105.600 C 167.711 105.600,167.341 106.140,167.000 106.800 M166.235 115.275 C 166.538 116.884,166.951 118.560,167.152 119.000 C 167.353 119.440,167.994 122.040,168.575 124.778 C 169.156 127.517,169.780 129.947,169.962 130.178 C 170.143 130.410,170.862 133.030,171.561 136.000 C 172.259 138.970,172.976 141.670,173.153 142.000 C 173.331 142.330,173.705 143.559,173.985 144.731 C 174.286 145.989,174.762 146.960,175.147 147.102 C 175.506 147.234,175.893 147.478,176.007 147.644 C 176.353 148.150,181.600 149.926,181.600 149.538 C 181.600 149.338,181.325 149.070,180.990 148.941 C 180.540 148.768,180.493 148.570,180.809 148.189 C 181.059 147.888,181.086 147.577,180.873 147.445 C 180.672 147.321,180.594 146.765,180.700 146.210 C 180.819 145.590,180.710 145.200,180.420 145.200 C 180.155 145.200,180.039 144.891,180.157 144.500 C 180.273 144.115,180.029 142.815,179.615 141.611 C 179.201 140.407,178.968 139.252,179.097 139.043 C 179.226 138.835,179.077 138.761,178.766 138.878 C 178.336 139.041,178.188 138.674,178.150 137.348 C 178.123 136.389,177.920 135.378,177.700 135.102 C 177.479 134.826,177.174 133.568,177.021 132.306 C 176.869 131.045,176.577 129.909,176.372 129.783 C 176.167 129.656,176.000 129.216,176.000 128.805 C 176.000 128.394,175.741 127.798,175.425 127.482 C 175.109 127.166,174.867 126.343,174.886 125.653 C 174.906 124.962,174.648 124.083,174.313 123.699 C 173.978 123.314,173.786 122.775,173.886 122.500 C 173.985 122.225,173.782 122.000,173.433 122.000 C 173.085 122.000,172.800 121.840,172.800 121.643 C 172.800 121.447,172.363 121.177,171.828 121.043 C 171.293 120.909,170.615 120.558,170.321 120.264 C 170.027 119.969,169.249 119.552,168.593 119.335 C 167.493 118.973,167.352 118.704,166.793 115.897 C 166.459 114.223,166.073 112.739,165.935 112.601 C 165.796 112.463,165.932 113.666,166.235 115.275 M156.006 124.833 C 156.009 125.585,156.177 126.461,156.379 126.779 C 156.616 127.154,156.665 126.730,156.518 125.579 C 156.235 123.370,155.998 123.025,156.006 124.833 M159.276 142.000 C 159.267 142.550,159.403 143.810,159.580 144.800 C 159.820 146.150,159.907 146.300,159.927 145.400 C 159.942 144.740,159.805 143.480,159.623 142.600 C 159.416 141.598,159.286 141.374,159.276 142.000 M175.173 151.105 C 175.370 151.793,175.658 153.539,175.813 154.984 C 175.968 156.429,176.223 157.690,176.380 157.787 C 176.799 158.047,175.645 150.685,175.196 150.236 C 174.953 149.993,174.945 150.311,175.173 151.105 M178.473 170.600 C 178.466 171.260,178.695 173.240,178.982 175.000 C 179.269 176.760,179.512 177.570,179.522 176.800 C 179.531 176.030,179.302 174.050,179.013 172.400 C 178.723 170.750,178.480 169.940,178.473 170.600 M239.395 191.992 C 239.529 192.208,239.198 193.474,238.660 194.805 C 237.172 198.490,237.658 199.632,241.283 200.976 C 243.826 201.919,245.200 202.225,245.200 201.850 C 245.200 201.242,243.882 198.121,243.489 197.800 C 243.220 197.580,242.370 196.096,241.600 194.502 C 240.830 192.909,239.964 191.604,239.676 191.602 C 239.388 191.601,239.262 191.777,239.395 191.992 M181.879 198.800 C 181.990 201.550,182.203 203.932,182.353 204.092 C 182.502 204.253,182.492 202.633,182.329 200.492 C 181.848 194.149,181.664 193.459,181.879 198.800 M165.740 199.200 C 165.740 201.070,165.809 201.835,165.893 200.900 C 165.977 199.965,165.977 198.435,165.893 197.500 C 165.809 196.565,165.740 197.330,165.740 199.200 M237.399 254.880 C 237.400 273.465,237.541 283.701,237.800 283.961 C 238.067 284.228,238.094 281.601,237.881 276.081 C 237.705 271.526,237.651 259.700,237.759 249.800 C 237.868 239.900,237.831 230.540,237.678 229.000 C 237.524 227.460,237.399 239.106,237.399 254.880 M188.615 242.128 C 190.783 244.478,191.919 245.438,192.195 245.155 C 192.471 244.873,191.748 243.930,189.926 242.198 C 185.837 238.311,185.054 238.268,188.615 242.128 M146.900 255.834 C 146.185 256.146,145.600 256.482,145.600 256.580 C 145.600 256.875,147.984 255.949,148.224 255.561 C 148.491 255.129,148.529 255.121,146.900 255.834 M132.800 264.400 C 132.330 265.060,132.036 265.600,132.146 265.600 C 132.256 265.600,132.730 265.060,133.200 264.400 C 133.670 263.740,133.964 263.200,133.854 263.200 C 133.744 263.200,133.270 263.740,132.800 264.400 M223.685 306.310 C 224.138 312.659,224.350 313.294,224.116 307.600 C 224.003 304.850,223.791 302.469,223.645 302.310 C 223.499 302.150,223.517 303.950,223.685 306.310 M168.931 307.400 C 168.933 308.940,169.005 309.521,169.092 308.691 C 169.179 307.861,169.177 306.601,169.089 305.891 C 169.000 305.181,168.929 305.860,168.931 307.400 M239.600 315.665 C 239.600 316.283,243.178 323.600,243.480 323.600 C 243.593 323.600,244.196 323.169,244.822 322.643 C 246.145 321.529,245.486 320.400,243.511 320.400 C 242.193 320.400,241.746 319.362,242.928 319.045 C 243.407 318.916,244.571 318.808,245.513 318.805 C 247.427 318.799,247.941 318.185,247.197 316.794 C 246.893 316.226,246.473 315.992,245.985 316.120 C 245.574 316.227,245.185 316.178,245.119 316.010 C 244.887 315.414,239.600 315.084,239.600 315.665 M226.400 320.813 C 226.400 321.877,226.604 322.503,227.000 322.655 C 227.330 322.782,227.600 323.100,227.600 323.363 C 227.600 324.186,228.575 325.976,229.145 326.197 C 229.533 326.348,229.607 326.207,229.402 325.705 C 229.244 325.317,228.836 324.190,228.494 323.200 C 228.152 322.210,227.712 321.294,227.516 321.164 C 227.320 321.034,227.131 320.539,227.095 320.064 C 226.979 318.526,226.400 319.150,226.400 320.813 M251.008 322.387 C 250.848 322.647,249.655 323.319,248.358 323.882 C 245.638 325.062,245.370 325.599,247.500 325.603 C 248.325 325.605,249.945 325.720,251.100 325.859 C 253.137 326.104,253.200 326.082,253.200 325.118 C 253.200 323.891,251.437 321.693,251.008 322.387 M183.600 327.026 C 183.600 328.443,190.318 330.040,191.973 329.016 C 192.653 328.596,191.955 327.600,190.981 327.600 C 190.467 327.600,189.931 327.411,189.788 327.181 C 189.611 326.895,189.345 326.914,188.952 327.240 C 188.510 327.607,188.014 327.611,186.841 327.260 C 185.205 326.769,183.600 326.654,183.600 327.026 M229.595 326.800 C 229.207 327.596,229.436 328.755,230.058 329.143 C 230.688 329.537,230.800 329.486,230.800 328.803 C 230.800 328.362,230.633 328.000,230.429 328.000 C 230.225 328.000,229.976 327.685,229.876 327.300 C 229.775 326.915,229.649 326.690,229.595 326.800 M241.803 331.858 C 240.811 333.981,240.000 335.871,240.000 336.058 C 240.000 336.246,239.654 336.746,239.231 337.169 C 238.472 337.928,238.480 337.947,239.791 338.569 C 242.953 340.070,243.418 339.520,243.985 333.610 C 244.249 330.865,244.550 328.480,244.656 328.310 C 244.761 328.139,244.568 328.000,244.227 328.000 C 243.833 328.000,242.946 329.413,241.803 331.858 M179.939 335.593 L 177.689 340.756 178.840 341.009 C 179.473 341.148,180.079 341.404,180.186 341.577 C 180.293 341.751,180.816 341.810,181.348 341.708 C 182.293 341.527,182.322 341.405,182.604 336.328 C 182.985 329.479,182.644 329.385,179.939 335.593 M172.024 334.200 C 171.994 334.866,171.923 334.899,171.600 334.400 C 171.263 333.878,171.211 333.885,171.206 334.451 C 171.203 334.809,171.490 335.343,171.845 335.637 C 172.199 335.931,172.638 336.538,172.819 336.986 C 173.145 337.788,173.149 337.789,173.144 337.000 C 173.137 335.845,172.071 333.180,172.024 334.200 M129.867 345.467 C 129.360 345.974,129.568 358.647,130.100 359.667 L 130.600 360.625 132.400 359.934 L 134.200 359.244 132.600 359.216 C 129.915 359.169,129.948 359.267,130.081 351.864 C 130.146 348.198,130.185 345.199,130.167 345.199 C 130.148 345.200,130.013 345.320,129.867 345.467 M132.200 361.991 C 133.300 362.436,134.380 362.792,134.600 362.784 C 135.360 362.754,132.996 361.694,131.600 361.439 C 130.428 361.224,130.525 361.314,132.200 361.991 M128.031 362.500 C 127.839 362.995,126.951 365.276,126.058 367.568 C 124.361 371.924,124.431 372.971,126.400 372.702 C 126.730 372.657,127.241 372.771,127.535 372.955 C 128.487 373.552,128.693 372.694,128.946 367.100 C 129.188 361.742,128.895 360.273,128.031 362.500 M137.764 364.297 C 138.098 364.632,141.600 365.981,141.600 365.775 C 141.600 365.527,139.954 364.731,138.690 364.368 C 138.031 364.179,137.614 364.147,137.764 364.297 " stroke="none" fill="#2b6c54" fill-rule="evenodd"></path><path id="path4" d="M265.759 31.133 C 266.055 31.613,265.304 32.010,261.000 33.652 C 259.680 34.155,258.420 34.709,258.200 34.883 C 257.582 35.372,252.851 37.896,250.400 39.044 C 249.190 39.611,246.760 40.752,245.000 41.579 C 243.240 42.406,241.383 43.215,240.873 43.377 C 240.364 43.539,238.704 44.375,237.186 45.235 C 235.667 46.096,234.254 46.800,234.046 46.800 C 233.837 46.800,233.607 46.940,233.533 47.111 C 233.460 47.282,232.500 47.883,231.400 48.447 C 227.747 50.319,224.630 52.097,221.913 53.858 C 220.435 54.816,219.040 55.600,218.813 55.600 C 218.586 55.600,218.400 55.750,218.400 55.932 C 218.400 56.115,217.905 56.510,217.300 56.810 C 216.695 57.110,214.730 58.400,212.933 59.678 C 211.135 60.955,209.470 62.000,209.233 62.000 C 208.995 62.000,208.800 62.175,208.800 62.390 C 208.800 62.604,208.305 63.037,207.700 63.351 C 204.669 64.927,194.066 74.069,186.466 81.661 C 180.076 88.044,170.400 98.997,170.400 99.847 C 170.400 100.045,170.040 100.432,169.600 100.707 C 169.160 100.982,168.800 101.400,168.800 101.637 C 168.800 101.874,168.001 103.087,167.025 104.334 C 166.048 105.580,165.065 107.088,164.840 107.685 C 164.020 109.861,164.281 118.957,165.200 120.200 C 165.598 120.739,166.273 123.909,166.818 127.800 C 167.065 129.560,167.423 131.360,167.614 131.800 C 167.805 132.240,168.345 135.660,168.813 139.400 C 169.282 143.140,169.821 146.560,170.012 147.000 C 170.202 147.440,170.827 152.570,171.399 158.400 C 171.971 164.230,172.698 170.530,173.015 172.400 C 173.632 176.050,174.618 187.189,175.016 195.000 C 175.150 197.640,175.413 200.160,175.599 200.600 C 175.948 201.424,176.620 214.645,177.012 228.400 C 177.253 236.867,177.269 236.793,174.995 238.072 C 173.980 238.643,173.782 239.020,173.678 240.572 C 173.611 241.577,173.356 242.400,173.111 242.400 C 172.867 242.400,172.773 242.506,172.902 242.635 C 173.031 242.765,173.646 242.510,174.269 242.069 C 176.704 240.344,177.065 240.497,177.144 243.293 C 177.182 244.672,177.388 252.010,177.602 259.600 C 177.815 267.190,178.107 278.800,178.249 285.400 C 178.400 292.377,178.676 297.612,178.909 297.907 C 179.155 298.219,179.203 299.715,179.034 301.807 C 178.875 303.764,178.911 305.200,179.120 305.200 C 179.319 305.200,179.593 306.685,179.729 308.500 C 179.865 310.315,180.260 314.452,180.607 317.692 C 180.955 320.933,181.185 324.674,181.119 326.005 L 181.000 328.425 176.600 330.322 C 171.469 332.536,171.232 333.135,173.916 337.112 C 174.167 337.483,175.256 336.614,177.874 333.953 C 180.689 331.093,181.741 330.273,182.638 330.241 C 184.062 330.190,184.316 329.273,183.426 327.397 C 182.688 325.842,182.939 317.466,183.754 316.438 C 184.074 316.035,184.214 304.753,184.249 276.407 C 184.301 234.932,184.274 235.537,186.100 234.979 C 186.595 234.828,187.990 234.036,189.200 233.218 C 190.410 232.400,192.092 231.404,192.937 231.003 C 193.782 230.602,194.566 230.032,194.680 229.737 C 194.793 229.442,195.085 229.200,195.328 229.200 C 195.571 229.200,197.037 228.374,198.585 227.364 C 205.095 223.119,208.230 221.210,208.700 221.205 C 208.975 221.202,209.200 221.011,209.200 220.780 C 209.200 220.548,209.785 220.109,210.500 219.803 C 211.215 219.497,213.060 218.428,214.600 217.426 C 216.140 216.425,217.601 215.604,217.846 215.603 C 218.091 215.601,218.721 215.270,219.246 214.866 C 219.771 214.462,221.190 213.607,222.400 212.966 C 223.610 212.325,224.690 211.710,224.800 211.600 C 224.910 211.490,226.244 210.770,227.764 210.000 C 229.283 209.230,230.858 208.285,231.264 207.900 C 232.269 206.945,233.152 207.021,233.561 208.100 C 234.476 210.514,234.495 235.123,233.590 245.200 C 232.591 256.325,232.653 271.649,233.755 285.600 C 234.077 289.670,234.463 295.160,234.612 297.800 C 234.762 300.440,234.999 302.780,235.139 303.000 C 235.278 303.220,235.693 305.740,236.061 308.600 C 236.839 314.646,237.028 314.240,232.786 315.605 C 231.254 316.097,230.000 316.622,230.000 316.770 C 230.000 316.918,229.359 317.271,228.576 317.554 C 227.257 318.031,227.170 318.163,227.405 319.335 C 228.139 322.995,231.972 331.600,232.869 331.600 C 233.124 331.600,233.224 331.709,233.091 331.843 C 232.957 331.976,233.023 332.291,233.238 332.543 C 233.452 332.794,233.867 333.347,234.160 333.771 C 234.661 334.495,234.928 334.319,238.540 330.878 L 242.386 327.213 244.193 327.461 L 246.000 327.709 246.000 325.841 C 246.000 324.642,246.358 323.267,247.000 322.000 C 248.347 319.341,248.285 319.302,246.202 321.501 C 245.213 322.546,244.403 323.535,244.402 323.700 C 244.389 325.430,241.188 320.752,240.228 317.600 C 239.859 316.390,239.365 315.052,239.129 314.626 C 238.894 314.200,238.631 311.590,238.547 308.826 C 238.462 306.062,238.100 294.980,237.743 284.200 C 237.279 270.163,237.171 260.229,237.364 249.200 C 237.631 234.000,236.965 217.869,235.992 215.957 C 235.812 215.603,235.605 213.083,235.532 210.357 L 235.400 205.400 236.651 203.800 C 238.185 201.837,238.451 200.811,237.895 199.000 C 237.232 196.837,236.618 197.286,234.574 201.432 C 233.250 204.117,232.400 205.372,231.732 205.626 C 231.208 205.825,230.675 206.261,230.547 206.594 C 230.419 206.927,230.132 207.200,229.910 207.200 C 229.687 207.200,228.410 207.875,227.072 208.700 C 225.734 209.525,223.411 210.830,221.909 211.600 C 210.813 217.289,205.291 220.215,199.829 223.300 C 198.368 224.125,196.999 224.800,196.786 224.800 C 196.574 224.800,196.400 224.989,196.400 225.220 C 196.400 225.452,195.775 225.902,195.012 226.221 C 194.248 226.540,192.372 227.611,190.842 228.600 C 189.312 229.590,187.923 230.400,187.756 230.400 C 187.588 230.400,187.080 230.739,186.626 231.154 C 184.696 232.916,184.000 232.677,184.000 230.251 C 184.000 229.039,183.820 227.936,183.600 227.800 C 183.380 227.664,183.197 225.898,183.194 223.876 C 183.182 215.661,181.066 186.707,180.390 185.505 C 180.176 185.123,180.000 184.366,180.000 183.823 C 180.000 182.006,177.970 167.411,177.605 166.600 C 177.407 166.160,177.047 164.180,176.805 162.200 C 176.154 156.864,174.850 149.114,174.449 148.200 C 174.256 147.760,173.502 144.700,172.773 141.400 C 172.044 138.100,171.333 135.310,171.193 135.200 C 171.053 135.090,170.445 132.930,169.842 130.400 C 169.240 127.870,168.581 125.440,168.378 125.000 C 165.513 118.784,165.419 106.012,168.229 104.933 C 168.543 104.813,168.800 104.462,168.800 104.154 C 168.800 103.619,182.212 90.161,183.416 89.487 C 183.733 89.310,185.695 87.507,187.776 85.482 C 193.659 79.756,197.446 76.389,203.600 71.415 C 205.910 69.548,208.015 68.016,208.277 68.010 C 208.540 68.005,208.990 67.669,209.277 67.264 C 209.565 66.859,210.561 66.049,211.491 65.464 C 212.421 64.880,214.131 63.682,215.291 62.802 C 216.451 61.923,217.526 61.203,217.679 61.202 C 217.833 61.201,218.444 60.750,219.038 60.200 C 219.631 59.650,220.277 59.200,220.473 59.200 C 220.669 59.200,222.111 58.300,223.678 57.200 C 225.244 56.100,226.748 55.200,227.020 55.200 C 227.292 55.200,227.607 54.958,227.720 54.663 C 227.834 54.368,228.618 53.801,229.463 53.403 C 230.308 53.005,231.990 52.012,233.200 51.196 C 234.410 50.380,235.773 49.595,236.229 49.452 C 236.686 49.308,237.411 48.878,237.841 48.495 C 238.272 48.113,239.518 47.350,240.612 46.800 C 241.705 46.250,242.731 45.599,242.891 45.352 C 243.050 45.106,243.770 44.669,244.491 44.380 C 245.211 44.091,247.005 43.078,248.479 42.127 C 249.952 41.177,251.347 40.400,251.579 40.400 C 251.810 40.400,252.323 40.085,252.717 39.700 C 253.112 39.315,254.237 38.568,255.217 38.041 C 256.198 37.513,257.279 36.842,257.620 36.551 C 258.256 36.007,263.833 33.600,264.456 33.600 C 265.087 33.600,268.612 31.215,268.000 31.202 C 267.670 31.195,266.967 31.073,266.437 30.932 C 265.766 30.752,265.561 30.813,265.759 31.133 M156.836 122.239 C 156.816 122.481,157.157 124.371,157.594 126.439 C 158.030 128.508,158.390 130.605,158.394 131.100 C 158.397 131.595,158.553 132.000,158.740 132.000 C 158.927 132.000,158.764 130.335,158.378 128.300 C 157.643 124.422,156.897 121.492,156.836 122.239 M160.672 144.506 C 161.168 148.298,161.579 152.064,161.587 152.876 C 161.594 153.688,161.754 154.448,161.942 154.564 C 162.130 154.681,162.228 154.376,162.159 153.888 C 162.090 153.400,161.645 149.670,161.170 145.600 C 160.695 141.530,160.186 138.068,160.039 137.906 C 159.892 137.744,160.177 140.714,160.672 144.506 M163.870 171.308 C 164.362 176.418,164.800 181.500,164.842 182.600 C 164.896 183.978,164.974 184.231,165.095 183.415 C 165.305 181.992,163.608 162.725,163.236 162.308 C 163.093 162.147,163.378 166.197,163.870 171.308 M238.695 193.596 C 238.348 194.478,238.149 195.200,238.253 195.200 C 238.523 195.200,239.678 192.345,239.486 192.152 C 239.397 192.064,239.041 192.713,238.695 193.596 M166.865 205.920 C 167.011 208.494,167.280 214.740,167.464 219.800 C 167.647 224.860,167.863 228.280,167.943 227.400 C 168.150 225.126,167.178 201.857,166.862 201.520 C 166.718 201.366,166.719 203.346,166.865 205.920 M231.000 212.000 C 230.659 212.660,230.469 213.200,230.579 213.200 C 230.689 213.200,231.059 212.660,231.400 212.000 C 231.741 211.340,231.931 210.800,231.821 210.800 C 231.711 210.800,231.341 211.340,231.000 212.000 M228.555 216.612 C 228.190 217.169,227.964 217.698,228.053 217.787 C 228.142 217.876,228.518 217.420,228.889 216.774 C 229.714 215.336,229.469 215.217,228.555 216.612 M167.931 234.000 C 168.047 235.216,167.942 235.600,167.491 235.600 C 167.165 235.600,166.674 235.870,166.400 236.200 C 166.013 236.666,166.011 236.800,166.389 236.800 C 166.657 236.800,167.402 237.174,168.044 237.631 L 169.211 238.462 171.056 237.431 C 172.071 236.864,173.328 236.400,173.850 236.400 C 174.373 236.400,174.800 236.236,174.800 236.036 C 174.800 235.836,173.530 235.661,171.978 235.646 C 168.572 235.614,168.400 235.524,168.400 233.776 C 168.400 233.019,168.260 232.400,168.089 232.400 C 167.919 232.400,167.848 233.120,167.931 234.000 M176.096 242.500 C 175.365 243.409,172.689 250.022,172.947 250.280 C 173.086 250.419,173.200 250.224,173.200 249.846 C 173.200 249.439,173.770 248.921,174.600 248.574 C 175.795 248.075,175.999 247.800,175.991 246.695 L 175.982 245.400 175.178 246.400 L 174.374 247.400 175.026 245.800 C 175.385 244.920,175.923 243.705,176.221 243.100 C 176.800 241.925,176.750 241.686,176.096 242.500 M167.800 245.227 C 167.140 245.650,166.805 245.997,167.056 245.998 C 167.306 245.999,167.936 245.646,168.456 245.213 C 169.645 244.223,169.359 244.229,167.800 245.227 M223.868 245.900 C 222.856 247.594,222.498 283.458,223.483 284.443 C 223.659 284.619,223.656 282.387,223.476 279.482 C 223.127 273.866,223.429 252.822,223.923 248.300 C 224.217 245.614,224.210 245.327,223.868 245.900 M131.374 266.300 C 131.242 266.905,131.048 267.670,130.943 268.000 C 130.821 268.384,130.886 268.456,131.123 268.200 C 131.522 267.770,132.100 265.200,131.798 265.200 C 131.697 265.200,131.507 265.695,131.374 266.300 M225.062 305.121 C 225.802 311.930,226.518 317.059,226.764 317.314 C 226.931 317.486,226.836 316.173,226.553 314.396 C 226.270 312.619,225.915 309.638,225.764 307.772 C 225.612 305.905,225.366 304.303,225.216 304.210 C 225.067 304.118,224.998 304.528,225.062 305.121 M170.391 315.394 C 170.726 318.774,171.094 321.632,171.209 321.745 C 171.324 321.858,171.144 319.186,170.809 315.806 C 170.474 312.426,170.106 309.568,169.991 309.455 C 169.876 309.342,170.056 312.014,170.391 315.394 M171.309 326.800 C 171.309 327.790,171.387 328.195,171.482 327.700 C 171.578 327.205,171.578 326.395,171.482 325.900 C 171.387 325.405,171.309 325.810,171.309 326.800 M135.900 359.091 C 135.075 359.178,134.400 359.392,134.400 359.567 C 134.400 359.817,138.690 361.944,141.469 363.072 C 142.219 363.376,141.857 362.334,140.582 360.515 C 139.347 358.754,139.289 358.737,135.900 359.091 M123.600 361.537 C 121.510 362.342,119.575 363.146,119.300 363.324 C 118.732 363.691,118.612 365.600,119.157 365.600 C 119.353 365.600,119.628 366.058,119.769 366.617 C 120.282 368.663,121.136 368.290,124.763 364.440 C 128.963 359.980,128.787 359.541,123.600 361.537 " stroke="none" fill="#51cb9b" fill-rule="evenodd"></path></g></svg>