<!-- Generated by IcoMoon.io -->
<svg version="1.1" xmlns="http://www.w3.org/2000/svg" width="32" height="32" viewBox="0 0 32 32">
<path fill="#3104a2" d="M21.959 0.298c0 0.016-0.029 0.021-0.064 0.012-0.037-0.010-0.064-0.001-0.064 0.021 0 0.021-0.013 0.029-0.029 0.020s-0.034-0.007-0.040 0.006c-0.009 0.021-0.154 0.1-0.716 0.391-0.053 0.027-0.101 0.060-0.107 0.074s-0.030 0.024-0.053 0.024c-0.023 0-0.051 0.024-0.062 0.052s-0.028 0.045-0.037 0.036c-0.009-0.009-0.061 0.023-0.114 0.072s-0.135 0.108-0.182 0.133c-0.047 0.024-0.354 0.206-0.683 0.405s-0.614 0.361-0.633 0.361-0.035 0.015-0.035 0.032-0.020 0.032-0.044 0.032c-0.024 0-0.082 0.038-0.128 0.084s-0.085 0.072-0.086 0.056c-0.001-0.016-0.016-0.003-0.034 0.028s-0.054 0.056-0.079 0.056c-0.026 0-0.046 0.015-0.046 0.032s-0.015 0.032-0.034 0.032c-0.048 0-0.364 0.216-0.849 0.582-0.23 0.173-0.432 0.315-0.449 0.315s-0.049 0.031-0.072 0.067c-0.023 0.037-0.048 0.061-0.056 0.054s-0.096 0.063-0.198 0.157c-0.101 0.094-0.2 0.17-0.219 0.17s-0.114 0.079-0.212 0.176c-0.098 0.097-0.187 0.176-0.198 0.176-0.044 0-0.897 0.809-1.277 1.212-0.332 0.351-0.582 0.631-0.591 0.663-0.003 0.011-0.044 0.050-0.089 0.086s-0.14 0.149-0.21 0.253c-0.070 0.103-0.159 0.21-0.198 0.237s-0.057 0.050-0.040 0.051c0.017 0.001-0.001 0.028-0.040 0.060s-0.063 0.066-0.054 0.076-0.021 0.045-0.066 0.081c-0.045 0.035-0.082 0.072-0.082 0.082s-0.109 0.166-0.242 0.348c-0.342 0.466-0.623 0.882-0.623 0.922 0 0.018-0.015 0.033-0.032 0.033s-0.032 0.022-0.032 0.049c0 0.027-0.022 0.057-0.048 0.068s-0.040 0.031-0.030 0.047c0.010 0.016-0.005 0.037-0.032 0.048s-0.042 0.032-0.033 0.048 0.005 0.029-0.011 0.029c-0.149 0-0.301 1.139-0.186 1.394 0.016 0.035 0.026 0.088 0.023 0.117s0.007 0.062 0.024 0.072 0.023 0.048 0.014 0.083c-0.010 0.037-0.001 0.064 0.021 0.064 0.023 0 0.030 0.025 0.018 0.064-0.012 0.037-0.006 0.064 0.015 0.064s0.027 0.031 0.015 0.080c-0.012 0.048-0.007 0.080 0.015 0.080s0.027 0.036 0.016 0.092c-0.010 0.051-0.003 0.101 0.016 0.113s0.026 0.062 0.015 0.116c-0.011 0.058-0.005 0.095 0.015 0.095s0.027 0.043 0.016 0.112c-0.011 0.068-0.005 0.112 0.015 0.112s0.027 0.050 0.016 0.128c-0.011 0.080-0.005 0.128 0.017 0.128s0.027 0.042 0.016 0.112c-0.012 0.074-0.005 0.112 0.019 0.112 0.023 0 0.029 0.029 0.017 0.080-0.011 0.044-0.009 0.105 0.004 0.136s0.021 0.103 0.017 0.161c-0.004 0.057 0.007 0.104 0.025 0.104s0.024 0.054 0.014 0.128c-0.012 0.090-0.005 0.128 0.022 0.128s0.036 0.049 0.029 0.161c-0.006 0.088-0.003 0.161 0.008 0.161s0.053 0.357 0.095 0.793c0.042 0.436 0.084 0.796 0.093 0.801s0.013 0.080 0.007 0.168c-0.006 0.088 0.001 0.161 0.016 0.16s0.022 0.079 0.016 0.176c-0.006 0.097 0.001 0.176 0.016 0.176s0.022 0.065 0.016 0.145c-0.006 0.080-0.001 0.17 0.012 0.2s0.021 0.131 0.017 0.224c-0.003 0.092 0.006 0.168 0.020 0.168s0.022 0.094 0.016 0.208c-0.006 0.115 0.001 0.208 0.016 0.208s0.022 0.080 0.016 0.177c-0.006 0.098-0.001 0.202 0.011 0.232s0.020 0.167 0.017 0.303c-0.003 0.137 0.006 0.248 0.021 0.248s0.021 0.13 0.015 0.288c-0.006 0.159 0.001 0.288 0.016 0.288s0.022 0.137 0.016 0.305c-0.006 0.168-0.001 0.33 0.011 0.36s0.020 0.246 0.018 0.48c-0.003 0.233 0.007 0.424 0.021 0.424s0.026 0.194 0.026 0.43v0.43l-0.155 0.084c-0.085 0.046-0.28 0.165-0.432 0.265s-0.288 0.178-0.301 0.174c-0.013-0.003-0.024 0.009-0.024 0.028s-0.015 0.025-0.032 0.014c-0.018-0.011-0.032-0.006-0.032 0.011 0 0.029-0.392 0.293-0.436 0.293-0.011 0-0.181 0.106-0.377 0.235-0.548 0.361-0.777 0.502-0.816 0.502-0.020 0-0.036 0.015-0.036 0.032s-0.020 0.032-0.044 0.032c-0.025 0-0.053 0.023-0.064 0.050s-0.034 0.041-0.052 0.030c-0.018-0.011-0.033-0.002-0.033 0.019s-0.008 0.031-0.018 0.021c-0.010-0.010-0.054 0.015-0.097 0.055s-0.119 0.093-0.169 0.117c-0.109 0.053-0.325 0.239-0.325 0.28 0 0.016-0.022 0.038-0.048 0.048s-0.062 0.055-0.079 0.099c-0.017 0.044-0.046 0.081-0.066 0.081s-0.026 0.015-0.015 0.032 0.004 0.032-0.016 0.032-0.027 0.015-0.016 0.032 0.004 0.032-0.016 0.032-0.027 0.015-0.016 0.032 0.008 0.032-0.006 0.032c-0.053 0-0.107 0.252-0.137 0.641-0.068 0.88-0.137 7.735-0.079 7.793 0.010 0.010 0.139-0.025 0.287-0.079 0.248-0.090 0.273-0.093 0.321-0.044 0.111 0.111 0.201 0.061 0.148-0.082-0.015-0.041-0.017-1.379-0.005-2.99 0.024-3.133 0.027-2.962-0.052-2.896-0.068 0.056-0.048-1.854 0.023-2.134 0.050-0.198 0.306-0.466 0.582-0.607 0.101-0.052 0.224-0.129 0.273-0.17s0.211-0.148 0.361-0.237 0.431-0.267 0.625-0.394c0.194-0.128 0.403-0.258 0.465-0.29s0.314-0.189 0.561-0.351c0.247-0.161 0.533-0.34 0.636-0.398s0.231-0.149 0.285-0.204l0.098-0.1-0.022-0.803c-0.021-0.744-0.093-2.299-0.131-2.822-0.084-1.143-0.121-1.547-0.143-1.602-0.015-0.035-0.058-0.396-0.096-0.801-0.145-1.546-0.359-3.326-0.417-3.46-0.015-0.035-0.052-0.223-0.082-0.416s-0.091-0.511-0.135-0.705c-0.096-0.423-0.091-0.887 0.012-1.077 0.16-0.296 0.934-1.386 1.348-1.897 0.155-0.191 0.3-0.383 0.324-0.426s0.063-0.087 0.088-0.096c0.025-0.010 0.045-0.030 0.045-0.045s0.083-0.113 0.184-0.219 0.303-0.318 0.448-0.474c0.145-0.155 0.311-0.329 0.369-0.385 0.205-0.202 0.677-0.65 0.686-0.65 0.005 0 0.236-0.195 0.515-0.434 0.498-0.427 0.794-0.643 0.821-0.598 0.007 0.013 0.024 0.085 0.036 0.16l0.023 0.137 0.139-0.113c0.076-0.062 0.147-0.113 0.158-0.113s0.24-0.17 0.509-0.378 0.547-0.413 0.616-0.455c0.069-0.042 0.137-0.094 0.15-0.115s0.172-0.136 0.352-0.256c0.181-0.12 0.401-0.28 0.488-0.356s0.171-0.138 0.186-0.138c0.015 0 0.195-0.127 0.401-0.282 0.474-0.355 0.595-0.433 0.887-0.566 0.139-0.063 0.258-0.142 0.29-0.191 0.050-0.077 0.072-0.083 0.291-0.083 0.154 0 0.237-0.013 0.237-0.036s-0.035-0.029-0.096-0.017c-0.058 0.012-0.096 0.006-0.096-0.015 0-0.019-0.048-0.029-0.11-0.024-0.061 0.005-0.121-0.001-0.133-0.013-0.034-0.034-0.333-0.029-0.333 0.006zM19.547 15.726c-0.026 0.026-0.056 0.038-0.066 0.027s-0.020-0.001-0.020 0.021c0 0.023-0.021 0.033-0.048 0.023s-0.048-0.007-0.048 0.007-0.11 0.068-0.245 0.119c-0.345 0.131-0.504 0.282-0.661 0.622-0.101 0.219-0.268 0.449-0.326 0.449-0.006 0-0.16 0.094-0.342 0.208s-0.349 0.208-0.369 0.208c-0.020 0-0.045 0.023-0.056 0.050s-0.034 0.041-0.052 0.030c-0.018-0.011-0.033-0.004-0.033 0.016s-0.013 0.028-0.029 0.018c-0.016-0.010-0.037 0.005-0.048 0.033s-0.034 0.041-0.052 0.030c-0.018-0.011-0.033-0.008-0.033 0.007s-0.068 0.062-0.151 0.106c-0.225 0.118-0.6 0.341-0.89 0.528-0.141 0.091-0.306 0.193-0.367 0.227-0.202 0.112-0.295 0.218-0.617 0.699-0.446 0.667-0.452 0.652 0.092 0.269 0.144-0.101 0.27-0.185 0.28-0.185 0.028 0 0.385-0.231 0.406-0.263 0.018-0.027 0.446-0.286 0.446-0.27 0 0.005-0.042 0.091-0.094 0.193l-0.094 0.185 0.086-0.055c0.048-0.030 0.128-0.096 0.178-0.147s0.104-0.092 0.118-0.092c0.028 0 0.618-0.384 0.706-0.459 0.091-0.078 0.331-0.237 0.495-0.328 0.088-0.049 0.296-0.178 0.464-0.287 0.634-0.413 0.801-0.507 0.801-0.451 0 0.026-0.263 0.58-0.489 1.033l-0.195 0.39-0.002 0.675c-0.001 0.371-0.015 0.675-0.031 0.675s-0.021 0.087-0.011 0.192c0.011 0.123 0.005 0.192-0.016 0.192s-0.027 0.050-0.016 0.128c0.011 0.078 0.004 0.128-0.016 0.128s-0.027 0.062-0.018 0.16c0.009 0.091 0.002 0.16-0.015 0.16s-0.025 0.072-0.019 0.16c0.006 0.088-0.001 0.16-0.016 0.16s-0.023 0.123-0.016 0.273c0.006 0.15 0.001 0.273-0.013 0.273-0.036 0-0.030 1.595 0.007 1.617 0.019 0.012 0.023 0.137 0.011 0.318-0.013 0.206-0.009 0.305 0.017 0.321s0.030 0.099 0.016 0.261c-0.015 0.169-0.009 0.239 0.016 0.239s0.031 0.094 0.016 0.332c-0.015 0.237-0.010 0.338 0.017 0.355s0.031 0.098 0.016 0.277c-0.017 0.196-0.012 0.254 0.020 0.254s0.036 0.046 0.019 0.192c-0.016 0.139-0.011 0.192 0.016 0.192 0.026 0 0.033 0.041 0.021 0.128-0.009 0.070-0.007 0.128 0.005 0.128s0.038 0.119 0.058 0.265c0.038 0.277 0.107 0.454 0.186 0.484 0.026 0.010 0.047 0.005 0.047-0.012s0.112-0.065 0.248-0.107 0.273-0.088 0.304-0.101c0.037-0.015 0.056-0.008 0.056 0.021 0 0.024 0.023 0.087 0.051 0.14s0.121 0.233 0.208 0.401c0.22 0.426 0.43 0.558 0.43 0.27 0-0.071 0.023-0.164 0.052-0.208 0.126-0.192 0.253-0.479 0.211-0.479-0.037 0-0.183 0.163-0.183 0.204 0 0.008-0.029 0.048-0.064 0.090s-0.092 0.111-0.126 0.155c-0.076 0.097-0.088 0.085-0.271-0.269-0.166-0.324-0.212-0.58-0.213-1.204-0.001-0.291-0.016-1.033-0.034-1.65-0.047-1.614-0.047-2.988 0.001-3.925 0.036-0.721 0.035-0.891-0.011-1.442-0.137-1.626-0.134-2.014 0.015-2.227 0.117-0.168 0.139-0.27 0.085-0.403-0.042-0.104-0.038-0.122 0.089-0.398 0.191-0.413 0.203-0.456 0.101-0.354zM14.066 20.678c-0.118 0.284-0.119 0.288-0.068 0.288 0.080 0 0.054 0.12-0.031 0.15-0.079 0.027-0.195 0.207-0.357 0.552-0.085 0.182-0.164 1.478-0.091 1.478 0.017-0 0.025 0.284 0.019 0.673-0.005 0.37 0.002 0.673 0.016 0.673s0.021 0.31 0.016 0.689c-0.007 0.468 0.001 0.689 0.024 0.689 0.020 0 0.033 0.071 0.033 0.168-0.001 0.189 0.127 1.584 0.151 1.658 0.009 0.027 0.014 0.167 0.011 0.313-0.007 0.343 0.031 0.393 0.232 0.311 0.411-0.168 0.422-0.171 0.505-0.103 0.092 0.074 0.181-0.001 0.14-0.119-0.050-0.143-0.049-0.486 0.001-1.186 0.044-0.614 0.051-1.161 0.043-3.277l-0.010-2.541-0.106 0.138c-0.084 0.108-0.096 0.14-0.056 0.148 0.027 0.006 0.050 0.025 0.050 0.044s-0.029 0.026-0.064 0.017c-0.049-0.013-0.098 0.023-0.2 0.145l-0.136 0.161-0.064-1.208-0.060 0.144zM10.862 30.665l-0.252 0.084 0.38 0.122c0.209 0.067 0.391 0.119 0.403 0.115 0.027-0.008-0.229-0.409-0.26-0.407-0.011 0.001-0.133 0.039-0.272 0.086z"></path>
<path fill="#130444" d="M22.748 0.379c0.017 0.042-0.019 0.050-0.241 0.050-0.333 0-0.333 0.021 0.003 0.337 0.276 0.259 0.305 0.265 0.312 0.056 0.001-0.040 0.015-0.072 0.031-0.072s0.021-0.029 0.012-0.064c-0.010-0.038-0.001-0.064 0.023-0.064 0.026 0 0.033-0.027 0.019-0.080-0.012-0.049-0.007-0.080 0.015-0.080 0.063 0 0.011-0.080-0.053-0.081-0.034-0.001-0.079-0.012-0.101-0.026-0.027-0.017-0.034-0.009-0.021 0.025zM21.833 0.717c-0.131 0.070-0.261 0.151-0.288 0.18-0.035 0.038-0.021 0.034 0.046-0.011 0.053-0.036 0.186-0.11 0.296-0.166s0.2-0.107 0.2-0.116c0-0.023 0.004-0.025-0.254 0.113zM20.533 1.058c-0.058 0.049-0.070 0.068-0.029 0.048 0.059-0.029 0.169-0.135 0.137-0.131-0.007 0.001-0.055 0.038-0.108 0.083zM20.856 1.359c-0.069 0.052-0.113 0.095-0.096 0.094 0.031-0.001 0.267-0.19 0.238-0.19-0.009 0-0.073 0.043-0.142 0.096zM20.133 1.891c-0.132 0.097-0.262 0.198-0.288 0.225s0.078-0.040 0.232-0.149c0.154-0.109 0.288-0.212 0.298-0.228 0.027-0.044 0.016-0.037-0.242 0.152zM19.244 2.546c-0.093 0.071-0.168 0.137-0.168 0.147s0.054-0.025 0.12-0.076 0.156-0.117 0.2-0.147c0.044-0.029 0.065-0.054 0.048-0.053s-0.107 0.058-0.2 0.129zM18.446 3.13c-0.21 0.17-0.257 0.224-0.091 0.103 0.189-0.137 0.313-0.241 0.283-0.239-0.015 0.001-0.101 0.062-0.192 0.136zM17.725 3.713c-0.135 0.113-0.256 0.223-0.269 0.243s0.102-0.068 0.254-0.195c0.24-0.201 0.302-0.26 0.269-0.255-0.005 0.001-0.119 0.094-0.254 0.207zM16.929 4.407l-0.273 0.259 0.265-0.232c0.235-0.206 0.321-0.29 0.29-0.287-0.005 0.001-0.133 0.118-0.283 0.26zM15.776 4.514c-0.078 0.079-0.134 0.144-0.125 0.144s0.080-0.065 0.158-0.144c0.078-0.079 0.134-0.144 0.125-0.144s-0.080 0.065-0.158 0.144zM16.272 5.019l-0.255 0.264 0.265-0.255c0.145-0.141 0.265-0.259 0.265-0.264 0-0.023-0.036 0.010-0.273 0.255zM15.182 5.115l-0.127 0.136 0.136-0.127c0.127-0.118 0.151-0.146 0.127-0.146-0.005 0-0.066 0.061-0.136 0.136zM15.725 5.563c-0.155 0.162-0.336 0.379-0.235 0.281 0.114-0.111 0.422-0.448 0.409-0.448-0.008 0-0.086 0.076-0.174 0.168zM14.621 5.707l-0.11 0.12 0.12-0.11c0.066-0.061 0.12-0.115 0.12-0.12 0-0.025-0.027-0.001-0.13 0.11zM15.309 6.012l-0.094 0.104 0.104-0.094c0.097-0.088 0.119-0.114 0.094-0.114-0.005 0-0.052 0.047-0.104 0.104zM14.879 6.484c-0.18 0.194-0.32 0.352-0.312 0.352s0.163-0.159 0.344-0.352c0.18-0.194 0.32-0.352 0.312-0.352s-0.163 0.159-0.344 0.352zM14.365 7.053l-0.175 0.184 0.184-0.175c0.171-0.163 0.199-0.194 0.175-0.194-0.005 0-0.088 0.083-0.184 0.184zM14.060 7.389l-0.127 0.136 0.136-0.127c0.075-0.070 0.136-0.131 0.136-0.136 0-0.024-0.028 0-0.146 0.127zM13.819 7.662c-0.149 0.16-0.235 0.264-0.218 0.264 0.008 0 0.090-0.086 0.183-0.192 0.187-0.212 0.21-0.261 0.034-0.072zM12.9 7.976c-0.040 0.060-0.066 0.11-0.058 0.11 0.023 0 0.155-0.194 0.142-0.208-0.007-0.007-0.044 0.037-0.084 0.098zM13.279 8.434c-0.079 0.155-0.118 0.434-0.074 0.527 0.018 0.038 0.072 0.265 0.121 0.503 0.115 0.565 0.36 1.6 0.398 1.682 0.132 0.286 0.322 1.373 0.586 3.348 0.020 0.15 0.046 0.28 0.057 0.288 0.069 0.054 0.285 2.772 0.338 4.269 0.012 0.33 0.031 0.601 0.042 0.6 0.024-0.001 0.135-0.169 0.251-0.379 0.045-0.082 0.157-0.257 0.249-0.389 0.163-0.235 0.259-0.544 0.168-0.544-0.020 0-0.027-0.096-0.017-0.256 0.008-0.141 0.006-0.256-0.005-0.256s-0.038-0.249-0.060-0.552c-0.095-1.3-0.275-2.881-0.33-2.902-0.015-0.006-0.019-0.046-0.008-0.088s0.009-0.103-0.005-0.133c-0.013-0.031-0.021-0.103-0.017-0.161s-0.006-0.104-0.022-0.104-0.023-0.043-0.015-0.096c0.009-0.060 0-0.096-0.023-0.096-0.025 0-0.031-0.036-0.017-0.108 0.012-0.062 0.006-0.117-0.013-0.129s-0.025-0.070-0.015-0.132c0.011-0.071 0.005-0.111-0.017-0.111s-0.029-0.036-0.016-0.096c0.011-0.056 0.006-0.096-0.013-0.096s-0.042-0.083-0.055-0.184c-0.051-0.417-0.417-2.036-0.464-2.052-0.015-0.005-0.020-0.038-0.011-0.072 0.009-0.036 0-0.062-0.022-0.062s-0.030-0.025-0.019-0.061c0.011-0.034 0.004-0.071-0.014-0.082s-0.025-0.035-0.015-0.052 0.005-0.048-0.013-0.070c-0.040-0.048-0.302-1.224-0.299-1.343 0.002-0.094-0.067-0.159-0.436-0.406l-0.2-0.135 0.049-0.095c0.027-0.052 0.042-0.095 0.033-0.095s-0.044 0.056-0.079 0.123zM19.62 15.753c0 0.025-0.029 0.079-0.064 0.119s-0.065 0.097-0.066 0.125c-0.001 0.028-0.035 0.114-0.075 0.192-0.068 0.13-0.070 0.15-0.029 0.269 0.025 0.071 0.040 0.152 0.034 0.18-0.019 0.088 0.584 0.472 0.645 0.411 0.109-0.109 0.009-0.541-0.228-0.993-0.15-0.286-0.217-0.379-0.217-0.302zM19.246 16.951l-0.090 0.118 0.011 0.531c0.006 0.292 0.024 0.544 0.040 0.561s0.029 0.102 0.029 0.19c0 0.088 0.023 0.428 0.052 0.755 0.046 0.525 0.047 0.693 0.011 1.444-0.048 0.967-0.048 2.297 0 3.925 0.018 0.617 0.033 1.361 0.033 1.655 0 0.562 0.075 0.997 0.205 1.196 0.088 0.135 0.373 0.111 0.482-0.041l0.062-0.086-0.066 0.057c-0.051 0.044-0.084 0.050-0.147 0.026-0.137-0.052-0.124-0.086 0.053-0.142 0.216-0.068 0.276-0.069 0.194-0.003-0.059 0.047-0.058 0.048 0.013 0.013 0.066-0.032 0.092-0.023 0.207 0.069 0.123 0.099 0.128 0.1 0.069 0.019-0.035-0.048-0.101-0.104-0.148-0.125-0.16-0.074-0.185-0.257-0.221-1.612-0.062-2.337-0.072-3.851-0.034-4.71 0.034-0.753 0.031-0.91-0.025-1.634-0.035-0.44-0.073-0.991-0.085-1.224l-0.022-0.423-0.333-0.2c-0.369-0.222-0.366-0.218-0.251-0.368 0.045-0.059 0.074-0.107 0.066-0.107s-0.056 0.053-0.106 0.118zM18.732 17.379c-0.11 0.070-0.2 0.135-0.2 0.144s0.098-0.045 0.216-0.119c0.257-0.16 0.251-0.155 0.214-0.155-0.016 0.001-0.119 0.058-0.229 0.129zM18.773 17.626c-0.091 0.188-0.148 0.328-0.133 0.328 0.019 0 0.215-0.424 0.202-0.437-0.006-0.006-0.037 0.043-0.069 0.109zM17.818 17.94c-0.119 0.078-0.216 0.149-0.216 0.157 0 0.021 0.414-0.24 0.435-0.275 0.025-0.041 0.018-0.037-0.219 0.118zM16.917 18.547c-0.239 0.166-0.255 0.204-0.020 0.048 0.247-0.163 0.243-0.16 0.206-0.158-0.016 0.001-0.1 0.050-0.186 0.11zM16.101 19.106c-0.094 0.068-0.188 0.143-0.208 0.164-0.040 0.044 0.287-0.18 0.363-0.248 0.086-0.078 0.019-0.042-0.155 0.084zM15.327 19.657c-0.261 0.188-0.307 0.25-0.057 0.077 0.119-0.082 0.224-0.163 0.234-0.179 0.027-0.043 0.017-0.038-0.178 0.102zM14.749 20.157c-0.001 0.013-0 1.39 0.001 3.060 0.002 2.511-0.007 3.153-0.050 3.709-0.052 0.68-0.038 1.307 0.029 1.313 0.003 0 0.163 0.064 0.357 0.143l0.352 0.142 0.027-0.103c0.033-0.122 0.009-0.496-0.035-0.539-0.040-0.040-0.289 0.001-0.345 0.056-0.060 0.060-0.080 0.055-0.080-0.021 0-0.050-0.021-0.064-0.097-0.064-0.084 0-0.164-0.072-0.123-0.11 0.007-0.006 0.149 0.008 0.316 0.031s0.307 0.039 0.311 0.035c0.088-0.088 0.155-6.897 0.071-7.197-0.029-0.101-0.732-0.538-0.735-0.456zM14.063 20.551c0.008 0.013-0.043 0.146-0.113 0.296s-0.127 0.292-0.127 0.316 0.034-0.036 0.075-0.133c0.040-0.097 0.111-0.249 0.157-0.339 0.061-0.121 0.072-0.163 0.038-0.163-0.025 0-0.038 0.011-0.031 0.023zM13.473 20.868c-0.112 0.068-0.22 0.141-0.24 0.162s0.075-0.029 0.212-0.111 0.248-0.156 0.248-0.163c0-0.021-0.003-0.020-0.22 0.113zM12.355 21.497c-0.145 0.080-0.264 0.153-0.264 0.162 0 0.018 0.478-0.237 0.527-0.281 0.057-0.052 0.001-0.026-0.263 0.119zM11.309 22.073c-0.122 0.078-0.237 0.157-0.256 0.178-0.043 0.046 0.396-0.221 0.461-0.28 0.076-0.070 0.030-0.047-0.204 0.102zM9.947 22.228l-0.077 0.1 0.092-0.087c0.050-0.048 0.085-0.093 0.078-0.1s-0.049 0.033-0.092 0.087zM10.382 22.975c-0.011 0.067-0.030 1.661-0.042 3.543s-0.034 3.429-0.049 3.438c-0.054 0.034-0.013 0.806 0.046 0.865 0.019 0.019 0.552-0.167 0.616-0.214 0.035-0.026 0.125-0.039 0.227-0.033 0.036 0.002 0.087 0.041 0.111 0.086s0.074 0.097 0.109 0.114c0.060 0.029 0.061 0.028 0.009-0.014-0.031-0.025-0.056-0.054-0.056-0.066 0-0.043-0.113-0.149-0.159-0.149-0.044 0-0.048-0.397-0.040-3.681l0.009-3.681-0.346-0.152c-0.19-0.084-0.362-0.158-0.381-0.166-0.021-0.008-0.044 0.037-0.055 0.108zM18.275 26.549c0.001 0.092 0.063 0.138 0.063 0.048 0-0.048-0.014-0.088-0.032-0.088s-0.032 0.018-0.032 0.040zM18.456 27.31c0.024 0.146 0.171 0.522 0.217 0.552 0.021 0.014 0.022 0.024 0.003 0.025-0.021 0.001-0.021 0.009 0 0.025 0.018 0.013 0.064 0.081 0.102 0.151s0.086 0.133 0.107 0.14c0.020 0.007 0.001-0.043-0.041-0.111s-0.088-0.156-0.101-0.196c-0.013-0.040-0.034-0.072-0.048-0.072-0.031 0-0.11-0.177-0.194-0.432-0.037-0.112-0.056-0.145-0.045-0.080zM20.494 27.388c0.055 0.071 0.009 0.109-0.273 0.222l-0.296 0.12v0.119c0 0.116-0.002 0.119-0.136 0.128-0.136 0.010-0.209 0.084-0.575 0.58-0.005 0.007-0.042-0.014-0.082-0.048s-0.029-0.013 0.023 0.044c0.213 0.234 0.747 0.351 0.707 0.155-0.008-0.037-0.023-0.208-0.033-0.378-0.027-0.42 0.027-0.437 0.379-0.115 0.091 0.084 0.182 0.152 0.2 0.152s0.068 0.036 0.11 0.080c0.119 0.127 0.128 0.104 0.128-0.328s-0.030-0.605-0.121-0.703c-0.031-0.033-0.044-0.045-0.031-0.028zM14.975 27.983c0 0.018-0.022 0.032-0.048 0.032s-0.048-0.015-0.048-0.032c0-0.018 0.022-0.032 0.048-0.032s0.048 0.015 0.048 0.032zM14.847 28.011c0 0.016-0.028 0.036-0.062 0.044-0.043 0.011-0.056 0.003-0.044-0.029 0.019-0.048 0.106-0.062 0.106-0.016zM14.406 28.438c-0.068 0.094-0.162 0.233-0.207 0.309-0.076 0.129-0.085 0.135-0.126 0.080-0.083-0.112-0.182-0.173-0.106-0.066 0.086 0.121 0.414 0.3 0.6 0.326l0.153 0.022-0.022-0.234c-0.057-0.613-0.107-0.688-0.291-0.436zM10.73 30.656c-0.131 0.040-0.24 0.033-0.24-0.018 0-0.015 0.083-0.027 0.184-0.025l0.184 0.003-0.128 0.040zM11.446 30.877c0.020 0.024 0.027 0.052 0.016 0.063s0.018 0.084 0.064 0.163c0.104 0.178 0.104 0.184-0.004 0.147-0.682-0.231-1.356-0.348-1.396-0.242-0.074 0.192-0.32 0.5-0.369 0.462-0.056-0.044-0.007 0.034 0.075 0.119 0.057 0.060 0.362 0.175 0.462 0.175 0.113 0 0.114-0.002 0.053-0.304-0.113-0.566-0.153-0.544 0.613-0.333 0.73 0.201 0.79 0.211 0.693 0.114-0.012-0.012-0.025-0.057-0.030-0.101-0.008-0.072-0.158-0.305-0.197-0.305-0.009 0-0 0.019 0.020 0.043z"></path>
<path fill="#090421" d="M21.575 0.404c-0.097 0.056-0.181 0.113-0.187 0.127s-0.029 0.026-0.050 0.026c-0.060 0-0.688 0.378-0.855 0.515-0.081 0.066-0.247 0.174-0.369 0.239-0.283 0.151-0.54 0.303-0.862 0.51-0.141 0.090-0.34 0.214-0.443 0.275s-0.24 0.157-0.304 0.215-0.132 0.104-0.151 0.104c-0.018 0-0.198 0.125-0.401 0.277s-0.497 0.371-0.656 0.485-0.343 0.263-0.409 0.332c-0.066 0.068-0.204 0.183-0.304 0.257-0.198 0.144-0.289 0.229-1.11 1.044-0.668 0.663-0.954 0.962-1.018 1.067-0.027 0.044-0.142 0.181-0.255 0.304s-0.244 0.282-0.291 0.352-0.139 0.197-0.203 0.281c-0.064 0.084-0.11 0.152-0.103 0.152 0.025 0 0.409-0.508 0.409-0.541 0-0.017 0.033-0.058 0.074-0.090 0.086-0.068 0.439-0.479 0.439-0.511 0-0.026 0.331-0.368 0.981-1.015 0.687-0.684 0.87-0.855 1.077-1.008 0.101-0.075 0.238-0.19 0.305-0.257s0.279-0.236 0.473-0.376c0.194-0.141 0.357-0.267 0.363-0.28s0.024-0.017 0.040-0.007c0.016 0.010 0.029 0.004 0.029-0.013 0-0.036 0.387-0.326 0.538-0.403 0.058-0.030 0.132-0.080 0.163-0.111 0.064-0.064 0.342-0.259 0.369-0.259 0.010 0 0.162-0.094 0.339-0.208s0.322-0.197 0.322-0.184 0.011 0.007 0.024-0.013c0.023-0.036 0.363-0.241 0.657-0.395 0.084-0.044 0.213-0.134 0.288-0.2s0.146-0.121 0.159-0.121c0.013-0 0.123-0.065 0.247-0.145s0.292-0.174 0.377-0.21c0.084-0.036 0.161-0.077 0.17-0.091s0.096-0.070 0.193-0.126 0.162-0.1 0.144-0.1c-0.018 0-0.111 0.046-0.208 0.102zM22.165 0.556c-0.017 0.017-0.146 0.094-0.287 0.171s-0.305 0.168-0.366 0.201c-0.061 0.034-0.414 0.286-0.785 0.562s-0.797 0.583-0.947 0.684c-0.15 0.101-0.287 0.2-0.304 0.221-0.044 0.052-0.393 0.31-0.418 0.31-0.030 0-0.897 0.681-1.397 1.099-0.851 0.71-1.513 1.329-2.080 1.947-1.888 2.057-2.102 2.308-2.249 2.633l-0.054 0.119 0.2 0.134c0.365 0.245 0.437 0.312 0.436 0.405-0.002 0.285 0.066 0.357 0.162 0.17 0.035-0.069 0.082-0.145 0.105-0.168s0.065-0.080 0.094-0.124c0.058-0.090 0.775-0.903 1.225-1.388 0.161-0.174 0.314-0.348 0.341-0.386 0.096-0.139 1.331-1.397 1.371-1.397 0.013 0 0.143-0.115 0.288-0.256s0.271-0.256 0.279-0.256c0.007 0 0.198-0.154 0.423-0.342s0.525-0.428 0.666-0.532c0.141-0.105 0.263-0.2 0.273-0.212 0.030-0.041 0.411-0.323 0.438-0.324 0.015-0.001 0.113-0.073 0.219-0.16s0.271-0.212 0.369-0.277c0.097-0.064 0.393-0.277 0.657-0.474s0.531-0.388 0.593-0.426 0.144-0.104 0.183-0.146c0.039-0.042 0.246-0.168 0.461-0.281 0.46-0.242 0.655-0.401 0.7-0.568 0.136-0.516 0.189-0.871 0.131-0.871-0.024 0-0.033 0.025-0.023 0.064 0.009 0.035 0.004 0.064-0.012 0.064s-0.030 0.033-0.031 0.072c-0.007 0.208-0.036 0.203-0.308-0.052-0.265-0.249-0.294-0.267-0.349-0.213zM13.317 7.334c-0.128 0.181-0.232 0.344-0.232 0.361s-0.034 0.066-0.074 0.107c-0.153 0.157-0.502 0.758-0.502 0.864 0 0.020 0.060-0.084 0.133-0.231 0.141-0.283 0.271-0.489 0.39-0.618 0.039-0.042 0.092-0.118 0.117-0.168s0.131-0.211 0.235-0.357c0.104-0.147 0.184-0.271 0.177-0.277s-0.116 0.138-0.244 0.319zM14.174 10.309c0 0.027 0.015 0.057 0.032 0.068s0.032-0.002 0.032-0.029c0-0.027-0.015-0.057-0.032-0.068s-0.032 0.002-0.032 0.029zM14.773 12.86c0.019 0.15 0.031 0.182 0.057 0.155 0.009-0.009-0.005-0.080-0.030-0.158l-0.045-0.142 0.018 0.144zM12.983 12.989c0.007 0.070 0.018 0.128 0.025 0.128s0.013-0.058 0.013-0.128c0-0.070-0.011-0.128-0.025-0.128s-0.019 0.058-0.013 0.128zM14.896 13.607c-0.014 0.032-0.016 0.066-0.005 0.078 0.033 0.033 0.059-0.013 0.044-0.076-0.013-0.056-0.015-0.056-0.039-0.001zM15.207 15.792c0 0.070 0.007 0.096 0.015 0.056s0.007-0.098-0.001-0.128c-0.008-0.031-0.014 0.002-0.014 0.072zM19.653 15.739c0 0.017 0.011 0.036 0.024 0.042 0.036 0.016 0.29 0.511 0.362 0.706 0.035 0.093 0.055 0.126 0.046 0.073-0.035-0.195-0.432-0.949-0.432-0.822zM19.204 15.824c-0.044 0.025-0.066 0.046-0.048 0.046s0.068-0.021 0.112-0.046c0.044-0.025 0.066-0.046 0.048-0.046s-0.068 0.021-0.112 0.046zM18.964 15.926c-0.062 0.033-0.080 0.057-0.052 0.067 0.024 0.008 0.053 0.001 0.064-0.016s0.049-0.047 0.084-0.067c0.101-0.057 0.011-0.042-0.096 0.017zM15.239 16.112c0 0.070 0.007 0.096 0.015 0.056s0.007-0.098-0.001-0.128c-0.008-0.031-0.014 0.002-0.014 0.072zM18.659 16.152c-0.105 0.106-0.174 0.214-0.224 0.352-0.040 0.11-0.084 0.2-0.098 0.2s-0.034 0.027-0.044 0.060-0.123 0.129-0.251 0.213c-0.127 0.084-0.236 0.165-0.242 0.18s-0.023 0.027-0.039 0.027-0.157 0.078-0.313 0.172c-0.157 0.095-0.316 0.182-0.354 0.194s-0.133 0.071-0.211 0.13-0.239 0.161-0.36 0.225c-0.263 0.142-0.693 0.4-0.716 0.429-0.076 0.099-0.267 0.17-0.308 0.113-0.056-0.076-0.083-0.047-0.070 0.072l0.010 0.094 0.421-0.275c0.232-0.151 0.53-0.331 0.662-0.399s0.288-0.166 0.347-0.216c0.058-0.050 0.15-0.108 0.203-0.13s0.221-0.114 0.372-0.206 0.306-0.176 0.344-0.188c0.038-0.012 0.069-0.034 0.069-0.048s0.090-0.085 0.2-0.157c0.255-0.166 0.298-0.218 0.41-0.497 0.067-0.167 0.132-0.265 0.241-0.365 0.082-0.075 0.138-0.136 0.125-0.136s-0.092 0.068-0.175 0.152zM15.272 16.465c0 0.088 0.007 0.12 0.014 0.072s0.007-0.121-0.001-0.16c-0.008-0.039-0.014 0.001-0.013 0.088zM15.304 16.849c0 0.088 0.007 0.12 0.014 0.072s0.007-0.121-0.001-0.16c-0.008-0.039-0.014 0.001-0.013 0.088zM19.396 16.747c0 0.023-0.043 0.099-0.096 0.168-0.132 0.175-0.135 0.169 0.237 0.394 0.3 0.18 0.336 0.212 0.346 0.303 0.011 0.1 0.013 0.099 0.095-0.074 0.090-0.19 0.156-0.558 0.088-0.491-0.039 0.038-0.196-0.040-0.5-0.249-0.152-0.105-0.171-0.11-0.171-0.050zM15.342 17.294c0.009 0.139 0.017 0.316 0.017 0.393 0 0.082 0.015 0.139 0.036 0.139 0.042 0 0.009-0.609-0.040-0.718-0.020-0.045-0.025 0.016-0.013 0.186zM18.732 17.412c-0.109 0.070-0.213 0.126-0.231 0.126s-0.033 0.013-0.033 0.029c0 0.016-0.026 0.035-0.058 0.044s-0.314 0.183-0.626 0.388-0.581 0.373-0.598 0.373c-0.016 0-0.041 0.020-0.055 0.044s-0.17 0.138-0.346 0.253c-0.176 0.115-0.544 0.369-0.817 0.565-0.559 0.402-1.044 0.739-1.136 0.791-0.094 0.052-0.092 0.095 0.006 0.139 0.049 0.022 0.213 0.121 0.364 0.22l0.275 0.18 0.021 0.672c0.062 1.988 0.004 6.488-0.085 6.577-0.004 0.004-0.144-0.012-0.311-0.035s-0.309-0.037-0.316-0.031c-0.040 0.037 0.039 0.11 0.12 0.11 0.052 0 0.1 0.016 0.106 0.036 0.009 0.026 0.062 0.025 0.198-0.003 0.125-0.026 0.197-0.028 0.219-0.007 0.044 0.044 0.070 0.417 0.036 0.54l-0.027 0.102-0.304-0.12c-0.167-0.066-0.334-0.136-0.37-0.156-0.107-0.058-0.152 0.049-0.114 0.274 0.017 0.101 0.040 0.274 0.051 0.385l0.021 0.202-0.154-0.022c-0.178-0.025-0.473-0.176-0.581-0.299l-0.075-0.084 0.069 0.104c0.038 0.057 0.1 0.121 0.139 0.141s0.095 0.062 0.126 0.095c0.074 0.077 0.256 0.125 0.477 0.125 0.296 0 0.363-0.026 0.559-0.22 0.269-0.266 0.282-0.311 0.256-0.901-0.013-0.296-0.007-0.677 0.015-0.945 0.033-0.404 0.035-1.233 0.016-5.99l-0.001-0.32 0.2-0.145c0.11-0.080 0.281-0.196 0.379-0.257s0.238-0.166 0.31-0.232c0.072-0.066 0.144-0.12 0.159-0.12s0.147-0.083 0.291-0.184c0.379-0.267 0.375-0.265 0.641-0.448 0.134-0.093 0.252-0.168 0.263-0.168 0.034 0 0.318-0.198 0.361-0.253 0.035-0.043 0.046-0.044 0.068-0.007 0.033 0.053 0.075-0.107 0.064-0.244-0.007-0.087 0.173-0.503 0.489-1.128 0.182-0.36 0.186-0.349-0.062-0.192zM15.391 18.131c0 0.117 0.014 0.208 0.032 0.208s0.032-0.091 0.032-0.208c0-0.117-0.014-0.208-0.032-0.208s-0.032 0.091-0.032 0.208zM13.279 19.975c-0.078 0.051-0.15 0.106-0.161 0.122s-0.083 0.065-0.162 0.108c-0.248 0.136-0.748 0.447-0.865 0.538-0.062 0.048-0.184 0.127-0.273 0.175s-0.377 0.227-0.641 0.399-0.509 0.328-0.544 0.348c-0.035 0.020-0.051 0.037-0.036 0.037s0.154-0.078 0.308-0.175c0.154-0.097 0.296-0.176 0.316-0.176s0.036-0.013 0.036-0.029c0-0.026 0.492-0.355 0.531-0.355 0.024 0 0.379-0.228 0.398-0.256s0.559-0.358 0.769-0.472c0.079-0.043 0.159-0.095 0.176-0.116s0.104-0.085 0.192-0.142c0.088-0.057 0.146-0.102 0.128-0.101s-0.096 0.044-0.174 0.096zM13.916 20.624c-0.096 0.058-0.257 0.159-0.357 0.224s-0.324 0.192-0.497 0.283c-0.172 0.090-0.351 0.191-0.398 0.224s-0.313 0.177-0.593 0.32c-0.28 0.144-0.531 0.279-0.557 0.299-0.106 0.084-0.73 0.466-0.761 0.466-0.036 0-0.233 0.232-0.292 0.343-0.044 0.083-0.066 0.067 0.389 0.265l0.314 0.137-0.009 3.681c-0.008 3.284-0.004 3.681 0.040 3.681 0.052 0 0.159 0.108 0.159 0.16 0 0.017 0.016 0.032 0.034 0.032s0.005-0.048-0.032-0.108c-0.066-0.107-0.067-0.117-0.067-3.669v-3.561l0.15-0.103c0.082-0.057 0.177-0.129 0.21-0.162 0.060-0.058 0.096-0.079 0.585-0.343 0.141-0.076 0.357-0.198 0.481-0.271 0.414-0.246 0.724-0.384 0.753-0.337 0.033 0.052 0.081-0.231 0.052-0.306-0.011-0.029 0.050-0.183 0.141-0.358 0.088-0.17 0.16-0.329 0.16-0.355s0.064-0.182 0.142-0.347c0.078-0.165 0.139-0.3 0.134-0.3s-0.086 0.048-0.182 0.106zM10.456 21.756c-0.102 0.069-0.418 0.363-0.39 0.362 0.012-0 0.095-0.069 0.183-0.152s0.197-0.176 0.24-0.206c0.044-0.030 0.072-0.055 0.062-0.056s-0.052 0.023-0.096 0.052zM9.894 22.259c-0.098 0.131-0.254 0.464-0.229 0.488 0.007 0.007 0.046-0.070 0.086-0.171s0.117-0.239 0.169-0.306c0.052-0.067 0.090-0.127 0.084-0.133s-0.056 0.049-0.11 0.122zM20.071 26.721c-0.001 0.020 0.019 0.098 0.046 0.172s0.048 0.145 0.048 0.157c0 0.011-0.094 0.047-0.208 0.080-0.213 0.061-0.233 0.096-0.087 0.152 0.074 0.028 0.096 0.018 0.188-0.082 0.057-0.062 0.124-0.114 0.148-0.114 0.092 0 0.326 0.28 0.395 0.472 0.028 0.078 0.043 0.097 0.044 0.053 0.002-0.086-0.229-0.446-0.316-0.492-0.066-0.036-0.147-0.161-0.216-0.338-0.021-0.053-0.039-0.080-0.040-0.060zM18.307 26.835c0.001 0.080 0.062 0.147 0.063 0.068 0-0.038-0.014-0.079-0.032-0.090s-0.032-0.001-0.032 0.022zM18.645 27.927c0.035 0.114 0.198 0.391 0.27 0.456 0.036 0.033 0.065 0.076 0.065 0.098 0 0.058 0.245 0.269 0.38 0.328 0.296 0.129 1.203-0.015 1.275-0.202 0.017-0.043-0.169-0.236-0.229-0.238-0.018-0.001-0.107-0.070-0.198-0.153-0.351-0.322-0.405-0.306-0.379 0.115 0.011 0.17 0.026 0.34 0.033 0.378 0.012 0.060-0.004 0.070-0.138 0.086-0.253 0.029-0.572-0.162-0.751-0.452-0.039-0.064-0.095-0.139-0.124-0.168s-0.072-0.098-0.097-0.153c-0.025-0.056-0.056-0.101-0.071-0.101s-0.017-0.015-0.006-0.032 0.003-0.032-0.016-0.032c-0.023 0-0.028 0.027-0.015 0.072zM10.489 30.638c0 0.050 0.109 0.058 0.24 0.018l0.128-0.040-0.184-0.003c-0.101-0.002-0.184 0.009-0.184 0.025zM11.529 30.947c0.047 0.062 0.090 0.146 0.094 0.186s0.019 0.091 0.033 0.113c0.048 0.078-0.008 0.069-0.634-0.104-0.675-0.186-0.771-0.194-0.744-0.056 0.009 0.046 0.041 0.219 0.072 0.384l0.056 0.3 0.21-0.017c0.191-0.015 0.681-0.176 1.019-0.334 0.145-0.068 0.138-0.176-0.026-0.405-0.072-0.1-0.138-0.181-0.148-0.181s0.021 0.051 0.068 0.113zM9.667 31.427c0.079 0.164 0.328 0.339 0.476 0.336 0.023-0.001-0.031-0.033-0.119-0.070-0.155-0.067-0.208-0.111-0.341-0.281l-0.063-0.080 0.046 0.096z"></path>
<path fill="#220487" d="M22.496 0.389c-0.207 0.009-0.253 0.021-0.281 0.074-0.023 0.043-0.023 0.063-0.001 0.063 0.018 0 0.033-0.022 0.033-0.048 0-0.038 0.050-0.048 0.256-0.048 0.15 0 0.256-0.013 0.256-0.032 0-0.018-0.003-0.029-0.008-0.026s-0.119 0.011-0.256 0.017zM21.354 0.988c-0.112 0.077-0.227 0.165-0.256 0.195-0.044 0.047 0.237-0.141 0.428-0.286 0.135-0.102 0.023-0.043-0.172 0.091zM20.624 1.024l-0.090 0.082 0.104-0.072c0.057-0.040 0.104-0.077 0.104-0.082 0-0.025-0.035-0.003-0.119 0.072zM19.765 1.535c-0.070 0.043-0.115 0.079-0.1 0.079 0.033 0 0.244-0.127 0.244-0.147s-0.006-0.017-0.144 0.068zM20.486 1.615c-0.090 0.076-0.096 0.088-0.029 0.054 0.091-0.045 0.21-0.152 0.167-0.151-0.015 0.001-0.077 0.044-0.139 0.096zM19.765 2.131c-0.19 0.142-0.215 0.18-0.042 0.064 0.083-0.056 0.159-0.115 0.17-0.133 0.028-0.046 0.015-0.038-0.129 0.069zM17.99 2.689c-0.077 0.061-0.128 0.11-0.112 0.11s0.086-0.050 0.157-0.111c0.165-0.143 0.137-0.142-0.044 0.001zM19.012 2.692c-0.079 0.062-0.166 0.135-0.192 0.164s0.042-0.017 0.152-0.1c0.11-0.083 0.2-0.157 0.2-0.165 0-0.022-0.007-0.017-0.16 0.101zM17.025 3.444l-0.176 0.162 0.184-0.151c0.162-0.133 0.206-0.176 0.176-0.175-0.005 0-0.088 0.074-0.184 0.163zM18.11 3.376l-0.076 0.064 0.104-0.050c0.103-0.050 0.131-0.078 0.076-0.078-0.016 0-0.062 0.029-0.104 0.064zM17.458 3.911c-0.088 0.081-0.117 0.118-0.064 0.082 0.090-0.062 0.268-0.234 0.238-0.231-0.007 0.001-0.086 0.068-0.174 0.149zM17.007 4.314l-0.094 0.104 0.104-0.094c0.057-0.052 0.104-0.099 0.104-0.104 0-0.025-0.027-0.003-0.114 0.094zM16.751 4.538l-0.127 0.136 0.136-0.127c0.127-0.118 0.151-0.146 0.127-0.146-0.005 0-0.066 0.061-0.136 0.136zM16.255 5.003l-0.207 0.216 0.216-0.207c0.201-0.193 0.231-0.225 0.207-0.225-0.005 0-0.102 0.098-0.216 0.216zM15.71 5.547l-0.175 0.184 0.184-0.175c0.171-0.163 0.199-0.194 0.175-0.194-0.005 0-0.088 0.083-0.184 0.184zM15.121 6.188c-0.095 0.11-0.116 0.145-0.053 0.088 0.095-0.087 0.246-0.273 0.222-0.272-0.005 0-0.081 0.083-0.168 0.184zM14.584 6.765c-0.056 0.066-0.099 0.136-0.082 0.136 0.007 0 0.044-0.043 0.083-0.096 0.077-0.104 0.076-0.131-0.001-0.040zM13.343 7.341c-0.059 0.084-0.080 0.128-0.046 0.098 0.058-0.052 0.188-0.251 0.164-0.251-0.007 0-0.060 0.068-0.118 0.152zM13.457 8.102c-0.029 0.044-0.075 0.12-0.103 0.168l-0.052 0.088 0.064-0.078c0.076-0.092 0.177-0.259 0.157-0.259-0.008 0-0.037 0.036-0.066 0.080zM13.215 9.041c-0.001 0.040 0.033 0.228 0.075 0.416s0.087 0.404 0.099 0.479 0.033 0.143 0.046 0.151c0.013 0.008 0.005-0.075-0.018-0.184-0.147-0.702-0.199-0.926-0.201-0.861zM13.792 11.483c-0.001 0.027 0.013 0.106 0.033 0.176s0.084 0.381 0.141 0.689 0.107 0.53 0.108 0.491c0.006-0.157-0.275-1.502-0.283-1.357zM12.932 12.396c0 0.070 0.007 0.096 0.015 0.056s0.007-0.098-0.001-0.128c-0.008-0.031-0.014 0.002-0.014 0.072zM12.956 12.732c0 0.070 0.011 0.128 0.025 0.128s0.019-0.058 0.013-0.128c-0.007-0.070-0.018-0.128-0.025-0.128s-0.013 0.058-0.013 0.128zM14.382 14.975c0.008 0.115 0.036 0.424 0.062 0.689 0.087 0.869 0.178 2.136 0.2 2.765 0.011 0.34 0.029 0.623 0.040 0.63 0.064 0.040-0.148-3.072-0.269-3.955-0.029-0.211-0.041-0.259-0.032-0.128zM18.657 16.184l-0.11 0.12 0.12-0.11c0.112-0.103 0.135-0.13 0.11-0.13-0.005 0-0.059 0.054-0.12 0.12zM19.352 16.468c0.056 0.135 0.037 0.26-0.060 0.388l-0.068 0.090 0.069-0.060c0.133-0.115 0.164-0.533 0.040-0.533-0.016 0-0.007 0.052 0.019 0.115zM18.363 17.588c-0.119 0.078-0.216 0.149-0.216 0.157 0 0.021 0.414-0.24 0.435-0.275 0.025-0.041 0.018-0.037-0.219 0.118zM16.989 17.668l-0.076 0.066 0.096-0.056c0.127-0.074 0.129-0.076 0.089-0.076-0.019 0-0.068 0.030-0.109 0.066zM18.531 18.178c-0.071 0.141-0.122 0.256-0.113 0.256s0.074-0.115 0.145-0.256c0.071-0.141 0.122-0.256 0.113-0.256s-0.074 0.115-0.145 0.256zM17.442 18.165c-0.114 0.078-0.196 0.143-0.182 0.143 0.031 0 0.407-0.253 0.407-0.273 0-0.022 0-0.022-0.224 0.131zM19.196 18.302c0.005 0.082 0.032 0.438 0.060 0.79 0.050 0.628 0.044 1.115-0.035 2.643-0.011 0.221-0.002 0.704 0.075 3.973 0.027 1.165 0.071 1.509 0.2 1.588 0.024 0.015 0.025 0.003 0.003-0.038-0.125-0.237-0.162-0.594-0.182-1.774-0.011-0.643-0.033-1.688-0.049-2.323s-0.023-1.261-0.015-1.394c0.073-1.297 0.084-2.119 0.035-2.675-0.029-0.317-0.052-0.651-0.052-0.743s-0.011-0.174-0.024-0.182-0.020 0.052-0.015 0.134zM16.577 18.759c-0.261 0.188-0.307 0.25-0.057 0.077 0.119-0.082 0.224-0.163 0.234-0.179 0.027-0.043 0.017-0.038-0.178 0.102zM15.206 18.94c-0.105 0.149-0.241 0.378-0.205 0.344 0.044-0.041 0.297-0.432 0.28-0.432-0.007 0-0.041 0.040-0.075 0.088zM15.741 19.336c-0.151 0.107-0.241 0.185-0.157 0.137 0.096-0.056 0.32-0.213 0.32-0.225 0-0.023-0.025-0.010-0.163 0.088zM14.975 19.881c-0.097 0.070-0.195 0.146-0.218 0.169-0.034 0.034-0.042 0.614-0.039 3.123 0.003 2.558-0.005 3.196-0.048 3.753-0.050 0.643-0.050 1.030-0.002 1.168 0.041 0.118-0.048 0.194-0.14 0.119-0.083-0.067-0.093-0.066-0.509 0.105-0.116 0.048-0.144 0.050-0.166 0.013-0.057-0.092-0.055-0.007 0.003 0.158 0.033 0.094 0.107 0.22 0.164 0.278l0.104 0.107 0.079-0.134c0.176-0.298 0.323-0.47 0.396-0.462 0.055 0.006 0.079-0.017 0.107-0.105 0.021-0.062 0.060-0.117 0.089-0.123 0.063-0.013 0.070-0.070 0.007-0.070-0.025 0-0.054 0.025-0.066 0.055-0.088 0.229-0.102-0.279-0.033-1.145 0.038-0.471 0.047-1.22 0.046-3.653-0.001-1.683-0.001-3.084-0-3.115s0.086-0.112 0.191-0.184c0.105-0.071 0.199-0.144 0.21-0.161 0.029-0.046 0.020-0.041-0.176 0.1zM13.373 19.96c-0.044 0.025-0.059 0.044-0.032 0.044s0.076-0.022 0.11-0.048c0.077-0.058 0.030-0.056-0.078 0.004zM12.371 20.599c-0.066 0.044-0.119 0.088-0.119 0.097s0.058-0.023 0.128-0.070c0.112-0.074 0.15-0.108 0.119-0.108-0.005 0-0.062 0.036-0.128 0.081zM13.893 20.581c-0.145 0.088-0.131 0.11 0.016 0.025 0.148-0.085 0.154-0.089 0.117-0.089-0.016 0-0.076 0.029-0.133 0.064zM13.953 20.89c-0.021 0.046-0.031 0.092-0.023 0.1s-0.005 0.036-0.031 0.062c-0.075 0.075-0.054 0.105 0.050 0.069 0.101-0.035 0.138-0.155 0.047-0.155-0.040 0-0.042-0.013-0.013-0.067 0.020-0.037 0.030-0.073 0.023-0.080s-0.031 0.025-0.052 0.071zM13.028 21.108c-0.128 0.075-0.243 0.148-0.256 0.162-0.036 0.041 0.418-0.21 0.472-0.261 0.069-0.065 0.041-0.052-0.216 0.098zM13.747 21.352c-0.049 0.087-0.082 0.159-0.074 0.159 0.022 0 0.189-0.291 0.175-0.305-0.007-0.007-0.052 0.060-0.101 0.147zM11.892 21.729c-0.118 0.066-0.226 0.133-0.24 0.149-0.030 0.033 0.408-0.202 0.454-0.243 0.055-0.050 0.004-0.028-0.213 0.094zM10.893 22.314c-0.104 0.069-0.176 0.126-0.16 0.126 0.034 0 0.365-0.218 0.365-0.241 0-0.021 0.005-0.024-0.205 0.115zM10.514 22.624c-0.137 0.156-0.166 0.273-0.178 0.713-0.027 0.967-0.054 6.625-0.031 6.611 0.013-0.008 0.026-0.912 0.028-2.007 0.008-4.675 0.025-5.102 0.214-5.317 0.027-0.031 0.042-0.056 0.033-0.056s-0.038 0.025-0.065 0.056zM18.112 23.585c0.015 0.111 0.017 0.113 0.028 0.028 0.006-0.050-0.001-0.105-0.017-0.12s-0.021 0.023-0.011 0.092zM18.143 24.209c0.015 0.089 0.019 0.094 0.029 0.029 0.007-0.042-0.001-0.089-0.017-0.105-0.018-0.018-0.023 0.012-0.012 0.076zM18.173 24.731c0.007 0.062 0.019 0.112 0.026 0.112s0.013-0.050 0.013-0.112c0-0.062-0.011-0.112-0.026-0.112s-0.020 0.050-0.013 0.112zM18.208 25.412c0.015 0.111 0.017 0.113 0.028 0.028 0.006-0.050-0.001-0.105-0.017-0.12s-0.021 0.023-0.011 0.092zM18.237 25.948c0.007 0.062 0.019 0.112 0.026 0.112s0.013-0.050 0.013-0.112c0-0.062-0.011-0.112-0.026-0.112s-0.020 0.050-0.013 0.112zM18.883 27.090c-0.15 0.050-0.277 0.106-0.283 0.123-0.015 0.046-0.134-0.023-0.134-0.079 0-0.025-0.014-0.054-0.031-0.064s-0.010 0.050 0.016 0.134c0.026 0.084 0.063 0.211 0.082 0.281 0.036 0.132 0.117 0.308 0.155 0.336 0.012 0.009 0.055 0.081 0.096 0.16s0.11 0.211 0.153 0.292c0.066 0.125 0.254 0.314 0.278 0.279 0.147-0.217 0.454-0.572 0.494-0.573 0.043-0.001 0.036-0.016-0.029-0.072-0.046-0.039-0.149-0.201-0.229-0.359s-0.169-0.332-0.197-0.385c-0.028-0.053-0.050-0.114-0.051-0.136-0-0.049 0.011-0.051-0.32 0.060zM20.174 27.138c0.019 0.019-0.129 0.338-0.229 0.489-0.052 0.079-0.074 0.363-0.026 0.333 0.015-0.009 0.022-0.064 0.015-0.123l-0.013-0.106 0.298-0.12c0.294-0.119 0.335-0.155 0.259-0.23-0.021-0.021-0.027-0.038-0.011-0.038s-0.036-0.050-0.114-0.112c-0.117-0.093-0.247-0.16-0.18-0.093zM19.604 27.494c0.107 0.198 0.118 0.201 0.212 0.064 0.039-0.057 0.092-0.121 0.118-0.142 0.036-0.030 0.009-0.034-0.133-0.020-0.128 0.013-0.194 0.006-0.233-0.026-0.036-0.030-0.024 0.012 0.036 0.124zM14.879 27.983c0 0.018 0.022 0.032 0.048 0.032s0.048-0.015 0.048-0.032c0-0.018-0.022-0.032-0.048-0.032s-0.048 0.015-0.048 0.032zM10.269 30.622c-0.005 0.111 0.061 0.344 0.092 0.324 0.032-0.020 1.194 0.303 1.248 0.347 0.025 0.021-0-0.044-0.057-0.145s-0.101-0.194-0.099-0.208 0.001-0.037-0.003-0.050c-0.004-0.013-0.009-0.035-0.012-0.048s-0.035-0.055-0.072-0.093-0.082-0.094-0.1-0.124c-0.017-0.031-0.048-0.050-0.068-0.044-0.021 0.007 0.016 0.091 0.092 0.204 0.157 0.236 0.164 0.234-0.304 0.083-0.371-0.119-0.389-0.122-0.506-0.076-0.144 0.057-0.156 0.049-0.185-0.129-0.017-0.103-0.023-0.113-0.026-0.043zM11.050 30.569c-0.098 0.024-0.128 0.068-0.034 0.050 0.046-0.009 0.091-0.029 0.1-0.044s0.013-0.027 0.007-0.025c-0.005 0.002-0.039 0.011-0.074 0.019zM9.811 30.961c-0.135 0.050-0.254 0.083-0.265 0.073s0.003 0.052 0.029 0.139c0.026 0.087 0.069 0.173 0.096 0.193s0.042 0.042 0.034 0.049c-0.008 0.008 0.014 0.031 0.048 0.053 0.056 0.035 0.076 0.016 0.215-0.206 0.084-0.134 0.169-0.26 0.188-0.279 0.122-0.122-0.048-0.133-0.346-0.023z"></path>
<path fill="#51049c" d="M17.778 3.231c-0.088 0.058-0.381 0.294-0.65 0.525s-0.494 0.421-0.499 0.421c-0.009 0-0.48 0.446-0.686 0.65-0.058 0.057-0.223 0.23-0.369 0.385s-0.347 0.369-0.448 0.474c-0.101 0.105-0.184 0.204-0.184 0.219s-0.021 0.035-0.045 0.045c-0.025 0.009-0.064 0.053-0.088 0.096s-0.169 0.235-0.324 0.426c-0.414 0.512-1.188 1.602-1.348 1.898-0.103 0.19-0.108 0.654-0.012 1.077 0.044 0.194 0.105 0.511 0.135 0.705s0.067 0.381 0.082 0.416c0.058 0.134 0.272 1.914 0.417 3.46 0.038 0.405 0.081 0.766 0.096 0.801 0.023 0.055 0.059 0.459 0.143 1.602 0.038 0.522 0.111 2.078 0.131 2.822l0.022 0.803-0.098 0.1c-0.054 0.055-0.182 0.147-0.285 0.204s-0.389 0.236-0.636 0.398c-0.247 0.161-0.499 0.319-0.561 0.351s-0.271 0.162-0.465 0.29c-0.194 0.128-0.475 0.305-0.625 0.394s-0.312 0.196-0.361 0.237c-0.048 0.041-0.171 0.118-0.273 0.17-0.566 0.291-0.616 0.43-0.641 1.772l-0.018 1.005 0.067-0.042c0.065-0.041 0.067-0.067 0.077-1.037 0.011-1.125 0.007-1.105 0.272-1.352 0.136-0.127 0.468-0.363 0.509-0.363 0.011 0 0.152-0.082 0.313-0.182s0.517-0.299 0.79-0.443c0.657-0.346 1.433-0.791 1.558-0.895 0.087-0.072 0.294-0.179 0.347-0.179 0.009 0 0.019 0.133 0.021 0.296s0.013 0.446 0.024 0.629l0.020 0.332 0.161-0.194c0.088-0.107 0.209-0.261 0.269-0.341l0.109-0.147-0.016-0.44c-0.009-0.242-0.005-0.47 0.009-0.507 0.023-0.063 0.417-0.36 0.623-0.47 0.053-0.028 0.154-0.104 0.224-0.168s0.201-0.159 0.289-0.209c0.219-0.125 0.297-0.203 0.377-0.378 0.037-0.082 0.073-0.159 0.080-0.172 0.016-0.031-0.415 0.222-0.439 0.257-0.021 0.031-0.379 0.263-0.406 0.263-0.010 0-0.136 0.083-0.28 0.185-0.509 0.359-0.481 0.362-0.475-0.058 0.002-0.157-0.010-0.292-0.028-0.302s-0.032-0.159-0.032-0.33c-0-0.608-0.173-2.887-0.287-3.781-0.134-1.054-0.266-1.98-0.29-2.041-0.015-0.035-0.065-0.281-0.111-0.544-0.091-0.511-0.475-2.167-0.528-2.275-0.032-0.064-0.125-0.487-0.213-0.961-0.084-0.456-0.019-0.686 0.319-1.133 0.207-0.273 0.907-1.072 1.14-1.302 0.090-0.088 0.199-0.211 0.244-0.273 0.236-0.327 1.84-1.942 2.184-2.2 0.067-0.050 0.208-0.174 0.312-0.275s0.203-0.184 0.218-0.184 0.11-0.067 0.212-0.149l0.186-0.149-0.035-0.153c-0.045-0.201-0.042-0.2-0.227-0.079z"></path>
</svg>
